<mxfile host="Electron" agent="Mozilla/5.0 (Windows NT 10.0; Win64; x64) AppleWebKit/537.36 (KHTML, like Gecko) draw.io/26.0.4 Chrome/128.0.6613.186 Electron/32.2.5 Safari/537.36" version="26.0.4" pages="3">
  <diagram id="eZ375qKk8LWyOJYQztjw" name="Provisioning">
    <mxGraphModel dx="2878" dy="999" grid="1" gridSize="10" guides="1" tooltips="1" connect="1" arrows="1" fold="1" page="1" pageScale="1" pageWidth="1169" pageHeight="827" background="#ffffff" math="0" shadow="0">
      <root>
        <mxCell id="0" />
        <mxCell id="1" parent="0" />
        <mxCell id="1UD2cVJRev7sIc3YvW7m-4" value="" style="rounded=0;whiteSpace=wrap;html=1;verticalAlign=top;align=center;strokeWidth=2;" parent="1" vertex="1">
          <mxGeometry x="540" y="130" width="500" height="456" as="geometry" />
        </mxCell>
        <mxCell id="LNALhKh-zvmf5X7zv8Wf-22" value="" style="group" parent="1" vertex="1" connectable="0">
          <mxGeometry x="-830" y="354" width="720" height="115" as="geometry" />
        </mxCell>
        <mxCell id="LNALhKh-zvmf5X7zv8Wf-23" value="" style="group" parent="LNALhKh-zvmf5X7zv8Wf-22" vertex="1" connectable="0">
          <mxGeometry width="720" height="115" as="geometry" />
        </mxCell>
        <mxCell id="LNALhKh-zvmf5X7zv8Wf-24" style="edgeStyle=orthogonalEdgeStyle;shape=connector;curved=1;rounded=0;hachureGap=4;orthogonalLoop=1;jettySize=auto;html=1;entryX=0;entryY=0.5;entryDx=0;entryDy=0;labelBackgroundColor=default;strokeColor=default;fontFamily=Helvetica;fontSize=16;fontColor=default;endArrow=classic;" parent="LNALhKh-zvmf5X7zv8Wf-23" source="LNALhKh-zvmf5X7zv8Wf-26" target="LNALhKh-zvmf5X7zv8Wf-29" edge="1">
          <mxGeometry relative="1" as="geometry" />
        </mxCell>
        <mxCell id="LNALhKh-zvmf5X7zv8Wf-25" value="Deploy,&lt;br style=&quot;font-size: 14px;&quot;&gt;update DP" style="edgeLabel;html=1;align=center;verticalAlign=middle;resizable=0;points=[];fontSize=14;fontFamily=Helvetica;fontColor=default;labelBackgroundColor=none;" parent="LNALhKh-zvmf5X7zv8Wf-24" vertex="1" connectable="0">
          <mxGeometry x="-0.0027" y="-2" relative="1" as="geometry">
            <mxPoint x="2" y="-26" as="offset" />
          </mxGeometry>
        </mxCell>
        <mxCell id="LNALhKh-zvmf5X7zv8Wf-26" value="DP team" style="shape=umlActor;verticalLabelPosition=bottom;verticalAlign=top;html=1;outlineConnect=0;hachureGap=4;fontFamily=Helvetica;fontSize=16;fontColor=default;" parent="LNALhKh-zvmf5X7zv8Wf-23" vertex="1">
          <mxGeometry y="30.768888888888725" width="35.55555555555556" height="66.23148148148154" as="geometry" />
        </mxCell>
        <mxCell id="LNALhKh-zvmf5X7zv8Wf-27" value="" style="edgeStyle=orthogonalEdgeStyle;shape=connector;curved=1;rounded=0;hachureGap=4;orthogonalLoop=1;jettySize=auto;html=1;labelBackgroundColor=default;strokeColor=default;fontFamily=Helvetica;fontSize=16;fontColor=default;endArrow=classic;" parent="LNALhKh-zvmf5X7zv8Wf-23" source="LNALhKh-zvmf5X7zv8Wf-29" target="LNALhKh-zvmf5X7zv8Wf-30" edge="1">
          <mxGeometry relative="1" as="geometry" />
        </mxCell>
        <mxCell id="LNALhKh-zvmf5X7zv8Wf-28" value="Deploy&lt;div&gt;&lt;br&gt;&lt;/div&gt;" style="edgeLabel;html=1;align=center;verticalAlign=middle;resizable=0;points=[];fontSize=14;fontFamily=Helvetica;fontColor=default;labelBorderColor=none;labelBackgroundColor=none;" parent="LNALhKh-zvmf5X7zv8Wf-27" vertex="1" connectable="0">
          <mxGeometry x="0.3239" relative="1" as="geometry">
            <mxPoint x="-24" y="-6" as="offset" />
          </mxGeometry>
        </mxCell>
        <mxCell id="LNALhKh-zvmf5X7zv8Wf-29" value="" style="rounded=0;whiteSpace=wrap;html=1;hachureGap=4;fontFamily=Helvetica;fontSize=20;verticalAlign=middle;fillColor=#fff2cc;strokeColor=#d6b656;glass=0;" parent="LNALhKh-zvmf5X7zv8Wf-23" vertex="1">
          <mxGeometry x="133.33333333333331" y="12.777777777777692" width="177.77777777777777" height="102.2222222222223" as="geometry" />
        </mxCell>
        <mxCell id="LNALhKh-zvmf5X7zv8Wf-30" value="Provisioning Coordinator" style="whiteSpace=wrap;html=1;fontSize=20;fontFamily=Helvetica;fillColor=#fff2cc;strokeColor=#d6b656;rounded=0;hachureGap=4;glass=0;" parent="LNALhKh-zvmf5X7zv8Wf-23" vertex="1">
          <mxGeometry x="417.7777777777777" y="12.777777777777692" width="177.77777777777777" height="101.15740740740749" as="geometry" />
        </mxCell>
        <mxCell id="LNALhKh-zvmf5X7zv8Wf-31" value="" style="shape=image;verticalLabelPosition=bottom;labelBackgroundColor=default;verticalAlign=top;aspect=fixed;imageAspect=0;image=data:image/png,iVBORw0KGgoAAAANSUhEUgAABUgAAAD3CAYAAADPJr6lAAAACXBIWXMAAC4jAAAuIwF4pT92AAAgAElEQVR4nO3dDWyd5Z3n/dsvcV6c4KQYesIWbCbMUCpaG3V2mzIRNh0x7fOwTMxoZmiXleyUjlQ98gpn9lkRFkYxGlhAOzsx6pGekaZVbGn7UGZmi720O2VQi82klHbbSVwQlDZpYtomh3AgMYnz4tfV5fxPuOP45bzcL9f/ur4fKYLOtDn3uX18n/v63f///6qam5sLAACISz6bsfmLZqSxO9duwXGkLp/NNAdB0KXw0Icbu3PDFhwHAAAAAKVq+cEBAIAgCExAulvpiSAgBQAAgLfy2UyX5cUO/Y3duX4LjmNJBKQAAAAAAACAXqbYoc3io7e+oKHagmMAAAAAAAAAgFQQkAIAAAAAAADwFgEpAAAAAAAAAG8RkAIAAAAAAADwFgEpAAAAAAAAAG8RkAIAAAAAAADwFgEpAAAAAAAAAG8RkAIAAAAAAADwFgEpAAAAAAAAAG8RkAIAAAAAAADwFgEpAAAAAAAAAG8RkAIAAAAAAADwFgEpAAAAAAAAAG8RkAIAAAAAAADwFgEpAAAAAAAAAG8RkAIAAAAAAADwVi0/egAAAABanXnliaa5yVN3m8OfPT/eFsyc3zT/72eO3zg3dWbNwrc1N31m9cyJQ2vNv1evv2a2eu2V7y/21msamkcL/1697urB+X+pXfvj+lsf3seHBQAAtxCQAgAAALDexEsP9cxNn7l5bvL0DTPjR1rCQWe5Zk8frZ49fXTjYv/z6XdebQv9x4v/fvZfskF1/ebp6nWNp6vXX3Okqm7DkerVDSNVdRueXbd11xifJAAA9CEgBQAAAGAVE4aaatDZU7/aOns231BpEBq12YljtbMTxzYG77zaGgSB+dMRBMGesz/92lxNQ/O4qT41VaeEpgAA6EBACgAAACBV84HomeMdpjJ0+p1XF63o1GBu8lSVOX6pPjV/9pw/9NzZ6g3XHq1Zv3m4et2H/5LAFAAA+xCQAgAAAEjUxL7ee2bP5j8/896b7ZoD0WKY6teZE4e2TAXBliAI7jOBac3GG96s2fCRgfrbHuuz/x0AAOA+AlIAAAAAsTOh6Mz44V3Tx396s2lR9/WMS2A635p/7md/99e1mU/+suaKpr9f3/7kgxYcHgAAXiIgBQAAABALQtHlmZb8qbeGTXXprvM//+YDhKUAAKSDmxQAAAAAkTnzyhNNM6d+3Td9fP9nbdtcyWYLw9JV/+rW0ZpNv/0f6m99eJ/v5wYAgLgRkAIAAAComNloafrkoW4T8nE2K2PC0snDz7cGh5//56lfjZysverm/7H+M3u+pPk9AQBgMwJSAAAAAGUx1aKzZ97+i8mx4U5a6OMhu+Lfd/7gt75Yd137S9VXND1MVSkAANHiJgYAAABASebb6E8eGph8a/g2U+3I2YufOc/nDz7XFgTBP0/nXztU23hzF0EpAADRICAFAAAAUJSJlx/dNnPiF1+Z+s3LLQSj6ZmfVfrW8D/PvPvGr2oamv+6/rbH+nw9FwAARIGAFAAAAMCyTMXo1PED32W+qF0mx757bRAEe6aO/Wj3qn/1e1+u39b7jO/nBACAchCQAgAAAFgUrfQ6yJzSb0y/97PHaL0HAKB0BKQAAAAALnPqhe5nJw8/v51gVI+LrfcnfnGg9sqbOtZt3TXm+zkBAKAYBKQAAAAALpp46aGe84f+139lV3q9Jg8/3zr1m5cPz5z69dCGO7J3+34+AABYCTc9AAAAAOY3YJrO/e+/nzr6wwxnQ7/5Xe/f/IeO6eP7z9Rd2/6f2cgJAIClEZACAAAAnjv1nT8bZs6om2ZOHFp79sShPdMnD3Wvurr192m7BwDgcgSkAAAAgKcm9vXeMzn2wl4TovEZcJuZTzqd+8nh2XMnnlzf/uSDvp8PAADCCEgBAAAAD5mq0fMHn2vjZ+8PUyF87rWBXTPv/axr1TWf3ko1KQAAFxCQAgAAAB6hahRmzux0/nWqSQEAEASkAAAAgCdOvdD97OTh57czaxSFatLZidznaq+8qcOHatJ8NrMxCILWBf/n9iX+6yeDIDiw4P92oLE7dzKmwwPKls9mCp/jxT7jxRou/Pcau3PD/DTgGwJSAOrks5nmIAi6FB76MDcbAIA0nHnliaapoz94hR3qsdDk4edbZ04efGNu+tyO+m29z2g+QaEAtFWCokJoFNkoiXx2/ldoXMLTQoh6xPzhPg9xymczhc92s3y2zWe8JcKX3F34F/mcG2OFz7f8MZ/xk43duYUPDwD1CEgBaNQc/gJXhhtnAECiTEv9+V8M/ffZiWPc+2NRZtzCuYnjT89Njt+x/jN7vqThLEkY2i6BUeGfDQm9fEModN0eOqZAAqUD8meYqlOUI/T5Lny205oX3SR/Cq8/vwaTz/pI+LPe2J07wg8bmtVKKfZSbQU2M180g3z6PiAX0R5bjqcUjd25Xj1Hm4x8NtMjTwW16efL0Q75bKZLwmQsrTmfzdh8/aHqWIEFLZuVtLgVqjOCUGXSEa6pqMTp7+386vmD3/oiLfVYyXzL/etP3zd79r1PXnHnwC22nbAFgVF7xJVzUSoESttDYdKohKXDrGGxFKkQ7bL88x3WFg5u89nMWOFzTmAKjWrl5ltjJZb55ePL5VIdWqvq8tkMoVqI3ADuseaAijdO2G2VrhSfNmvRpOC6SUBqEXmwHG5xi/J3bNG/S6o0RiU8LVRqHOB7EysZ/5+fPzj11vAWThRKYVruT3z9986s3nLXTWnPJZWxSh1yT6MhMFpKi/y5X67pQ/L9Psi13G9yX9Eln/OkKqDjYu6rO+VP4cHAoHzOacmH9WrNB1WS/iZlP64m84XJF8olOiw6llKZY+/Tdcix0vqz5KEFAGfIwjzcvpnm4rywuA63co6FWjiHWXygwMwbnRz77oHpd17V2IkCC8y33L/xzMG56XP/Pum5pHLt7ZH7YW1r1GJtlz97JETqJyz1R2g/hS6HP+NB6N5lt9yz9Ln6Oc9nM3MWHIbtzOfA5sKU2wtziEyocX/KB1MOQjUhFYfbi/ov26mLn+UltAakVLoBUE0qOTqUtLeF2zjNsY/LPV2hKomZdx4y80Ynx17YawIu388FKmNm1p57/etPz02fbV3f/uSDcZ5OWct0SDCquVK0HC3SOWbC0pFQWMo13DFyj9GjfN1erqbQ53xIxrJRXAOrFALSYaUBKaHaBzRXjxotVARfoDzs5ksOgDr5bKZDvke1t7c1hFrb9lKV5B8Tjs4HWswbRUTm55K+NrArmJ28Ko7Nm2TmYk+hJRcXZzr25bMZc1/dy/VbP9kXoNfxatFSzFdQh6pK+3kgABtUBxc2yDEX33GFP5EWKU+Hzo22FtIe8kZF63kY4osNgBamisPMv85nM+a69awszrXP/lqoUJV0OJ/NDJsFmjyEg4NODz/wOOEo4mI2bzr1nT+LrFNIrkfm79tPOLqowgOvwvXbhbWed+RzbgLuvYSjiypUlR4xm6Zyj4K0VYdeX2vlF6HaBS6cB774L9B6HqgeBWA1c+Odz2Z6ZLHyoqOh6FLaZIF2RILhUnfYh8XMTvWmyo9wFHE6f/C5NrPxVyUvsSAwYiPJ4pjz9KI5b1KJCMvJQ9gDBKNFa5BNUwlKkSoXAlLvQzVpDXRhgbedi+E8NmgCgAiZbhMTCgZBcEIqFXxerBSqkvYXqkotOCZUYD4cff3p+ziHSMLUW8NbyglJqaSLRJOMTyEotZTcbwzKQ1jfZulGoRCUHuAzjjRcDEgVD8glVHOritbrimDFYfcI7fUAbCMVHKaF8zAtnItqCy+2uZ/Sh3AUaSglJCUYjUU4KPW+WMgWpvLRBHuebsAUtcJnfJiRikhS9YLXGlJ69n1vsycgdQfVowBQoVAw+iItnEVpCrXf09qmBOEo0rRSSEqLcSKapPV+mLEp6THnXj7ruz0a25OUNpnD2+vH20XaFgakzCFVRp4aunQh9v2JGwEpAJSJYLRi4RlgtLZZjHAUNlgsJKXFOBVtMjalnwdcyTJzzYMgGOazHrvdJoSmmhRxcyUg9TlUcy4cljZz7ygOu0cbu3NHLDgOAJ4KzRglGI1GQ6h90/fODusQjsIm4ZCUFuPUdfKAKxmy6WO/zDWnajQZLcwmRdwuCUhlhqDKNnuPb+BdfN/8LHXpV3rcANzQwYzR2Jj2zWeZAWYPwlHYyISk7+39xE9pMbZCA7Mb4yXndZj7jlQUPt99Hr53JGBhBWlAm70eMmvGxZk+BKS6DCs9bgBuoK0tfhdngNG+mZ7Tww88TjgK21TXb55e+4n7ds5OHL/NdBXxA7JGm1Tb9fh+IqIk6+8D3Huk7n55CMA9CSK1WECqNezwMVRztby8wbeKYMVh91hjd+6ABccBAIjfbllws2tywib29d5z/ufffMCrNw3r1V3/2QNrbrrnhvrbHuuTTkSzNhnnJ2cNU223hyApGtLavZ8qaWuYhwBUSiNSlwWkMktQ49M/70K1IAhcXqD49rPUGnazORMA+KWwa3IfC+5kTLz86LZzr3/96bnJU1U+vF/Yr6puw9yamzufuOLOgVvWbd01VjhgeWjeTkhqnTaZTcrDrTJJOLpX5cG7rTCXtNX3E4FoLFZBGiieKehNqCZPSlwu7fftC1zr+2X+KAD46X4WJfE788oTTZOH//GfCEdhi5pNW86uubnztvXtTz642CFJSEpbt30a5OFWr+8nolSEo9ZrkEpS7kdQsaUCUq1VYT6Faq6HwU2+XOQUh9201wOA30w16X4W3PGZOvqDV2ZOHFrr6vuDLquuaz+06d7vr6u/9eF9yx14Y3fOPEB/hB+vlXbTcl88wlE1CEkRiUUDUsVt9t6Eag7PHw3z4T0GbM4EAFCOBXcM3v925/6poz/MOPfGoNKaj33haw1/+I0bij32xu6ceXAywE/bSm10AKyMcFQdQlJUbKkK0kBx+OF8qOZBe32BLyMTmD8KANCOBXeETn9v51cnDz/PuUTqzLzRta1f/vz6z+z5UhnH0sPO9tZqkjDJx42OVyTfZX2WHyYuZ0LSfh7YolzLBaTMIbWXL6MEnK8IVhx2jzd25whIAQBhhZZ7XzpAYjG/Y/3Bb33RwbcGZebnjX7s3i/Ub+t9ppwjl53tO9i0yVomTHqWa/alZH02zG71arVI+E9IipItGZDKbMExhafUhzZ7n570uR4Ga31/hKMAgKXsNbvcc3ZKN78p09gLe9mUCWkz4ejqLXfdVG44WiCj2wjg7MY1W0ioNkg4ql4LFcAox3IVpAGbNdlHLtrbXX1/i3D9hkpr2E1ACgBYzv35bIY2txJNHT/wXTZlQtpWXfOpnAlH123dFUmxjHQdPcUP1mrz12zfT4KEaj6MsvNBZz6b6fH9JKA0rgakLodqvs2JaZE2B+doDrtprwcAFKGTNrfinR5+4PGpt4a3aDleuMnsVN/wR0ObowpHCxq7c8wjtV+nzyGpzGPttOBQEJ09zEZHKZYNSBu7c8NKZ8Y4G6p5GJAGDr9nre9ryIJjAADowCywIky8/Oi28z//5gPWHyicNh+OlrBTfRm6mEdqPS9DUskOqKB1E90sKNpKFaSB4ipSV0M1n9rrCwhI7UL1KACgFISkK5j61chzzB1FmhIIRwt7XPTyg7aejyFpP3NHndXCdQfFIiBVRMr+fdTm6KJKa9hNQAoAKBUh6RJOvdD97PQ7r3JekJokwtGCxu6cmfE4wk/bet6EpLLGbrPgUBAfM2PX9c2fEYEVA1KZNaixFcLFUM3XgDRw7b0rDruHGrtzJy04DgCAPoSkC5jW+snDz/vYHQRLmN3qkwpHQ2i118H5kFS+j2it9wO72mNFxVSQBlSRWoOA1B1a38+wBccAANCLkDSE1nqkyYSjZrf6pA+hsTt3hJZXNUxI6vIGyD201nvD7FPDdQfLKjYg1RqKOBOqScWhzxfv7Y4tppg/CgDwFSGp2bX+ezu/Sms90lJdv3nahKNR71ZfLFrtVdnrYkgqGzP1WHAoSE6P7/ceWJ7rFaQuhWrMzHAk8FYcdo/KE38AACrldUh65pUnms4f/NYXLTgUeKiqbsPc6t/e/u/TCkdDCKf06MtnM62Ovadeqke900D1OpZTVEAqMweHlJ5JV6pIfW6vL3AlJNb6PpjPAwCIUouvM8Gmjh/4Lq31SMvq3/mjJ+u39T6T9g9AdrV/JO3jQFEaXHqoJdWjnRYcCpJ3v/z8gcsUW0EaKK4iVR+qydO6JgsOJW2E3emivR4AEDUz386rkHTipYd6pt4a3mLBocBDq2/848H17U8+aNE7N7//aVeyojgNDu1H4PJcVayMKlIsyoeA1IVQjQv4BQ2Kd3+fpzjspr0eABCX+x3fBOQSU8d+tNuiw4FHVl3zqdyGO7J32/SOpVORsEKPFu0720sVLOMd/NZJFSkWU3RAKl9eowrPovpQjfb6S2g/F1oXgOxeDwCI014H59tdho2ZkBazKdOqaz691cYfQGN3rp8Nm1TRvrO975sf4wKK0HCZ2hJPifny2qPwNHZorYCVJxu013+AsDsdzB8FAMRt0ISk8lDeSZNjw8y8Qyos2ZRpOaaK9MUEXmc8CAIz+/Sk/LNgYTGAeZARfmhTGNvWlsAxamA2bTogc2S18b161FwHjsjn2+eg2Oxo3+fyPQdKV2pAOqg4INWK6tFLNcjiSd2XseKwe0zpzQ8AQJcmudd0ZVPGS5x6ofvZ2Yljpd57AxUzc0dt2JRpOY3dObMB0EjEAeS4BJ8HCv8sMQxZtMBGWrRb5VpV+KdvQVODFFCoqvyX9ViLBYcSt7HQZ//ASp996eBolp9nhyfnqEHeK4VAuKikmzQzgzCfzYwq/IVRG6pR+r2oLqVP/ticCQCA5bXls5nexu6cUzMJz7zyRNPk4ee3W3Ao8EztVR8/advc0WWYe/zDFf4dI3LvOhzX2k+CpuFw1akETO3yHnwIlwKZR6rteu1y8dGYhH39pe4dIb8rB+R3p1ceAnTI59nlqukeAlKElbJJU4HWsERd0OjRE65Saf1i0xp2E5ACAJK027V5pDMnDw3MTZ6qsuBQ4JGqug1zq65tu0vLO5ZQZ6CM/6kp4NkRBMGmxu5ce2N3ri/pwhjzevK65tp1fRAEO5Xu31EqbddrF4uPTDC6o7E712zC6ig21jUPAcxsYPP7JJ/ncn4vNWhhsyaE+RSQagzVaK9fXJO2hZPisHvctDxZcBwAAL8MSgWLevPVo28N38bnF0mru/6zQ/W3PrxP2YkvthrRtM8/ZcIbE0pKmGPFLEETUIXC0lskXBq34NDioqICz8HiI/OZ2inBaGw/A/k8dzkclPo+kxYhJQek8jTO5gHfS1EXqhGQLkvbuaG9HgCA4jWVEJRYjepRpEFZa/1FRVSRmnXoI2ZeYmN3rieKark4SWVpl8x3fMTRoHS+1d6C41iJS/OtTXWyeTDQl9QLhoLS25XmQUshc8FF5VSQBlSRxk+qJtglcWkEpMkgIAUApOX+fDajfkFL9SiSpq21fhGLhW0mWHwk1EasaudpaVnudTgo3a2gVdmVgNSEo+1pPRyQ7sJWh6pJNRbSISbl7qRpSrjvV/hD6VBUjcCTjOXNzwux/alxoDvsNu31BKS69Yc3EEjAboVna8zy1jBGXMB3/bLRpqowpOD093Z+lepRJK3uuvaXFLbWXyQbA4d3tDeBYp/W60CYvAezCU6frEs1rqmX0m95COlCQFoIR1P9XZDX78pnM+Y+dW+axxKRDtmkCp4rKyA1rQL5bGZM2p80UROqEZAWxZyjxNoKKjxOjQhmlItzHtFi8tmMxoD0iGu7ZcMq46Eb7pOL3HybioXCnM1mhfdVSWiS+WAqf08nx4Y7LTgMeKS6fvP0hs/9rfogqPqKa/+/2dO5NcHs1OeVrN1KIgFTTz6b6Zf1jAudg235bKbDxgILKVjR/h07ZkM4GmbWGvls5qSE4w22HFcZoiikG0nweDcqnadrPsM2X89PlltBGkh4ovGmz/pQTS7g2y04FNt1EZDGiupRACjeiASg83/K3UFZ2ryaJTxtl39qXnREwbRuDia9K3WlTg8/8PjsxLFK7rWBktVd/wd/pf2szVdenzv5xbqmz4xeceeAc+FomFzX2vPZTOFBkPbrfZ+lawgXWqg7bKyiNoG4jMMZVvz5NYV0Gys5v7LjfyLkfL+Y1OtFqN/2wpRKbtoGlQakGkI1lwZIx8n6imDlYTcBKQAsbUyuk8NRVsvIYvlA+BosoWmH/HFpB95S9Gm7P5p++1++bMFhwCNmY6b17U8+qPUdn3nliaapoz94ZeroDzPmP0/95uUW839bt3WXSxvCLMpstiPtyv3Kr/NmnmOvhSGI9vX1UzY/JJQO4x7l7fbtrH9R7iZNgSwGNA6XblEwQJr2+uLZ/mWn9ct4yIU5TwAQsXHZlOB22SikJ4lWQtkF2Sw4TVB6vVkoObaDbDHmWzftP8wLJl5+dNv0O69uLOa/C0Rl1eZ/84jWkzmxr/eec288c7AQjhpmfu/smbf/It0jS45c61vlGq9ZjxSJ2MT29f9KrB8zI6O9dlpwKOWiSA3lB6RCa8Ju+4efgLR4tp8r2usBQL8xuek3oWiX7OCaCtM1IcGsWeztSHjmVdo0jNWZN3PiF1+x4DDgkVXXfCpXf9tjan5HwkxL/bnXv/70YiMppo796N+lenApMNd4ub5r3em+QWZH20RzQDqgpXDFVEKbQhsLDqUcBKTwNiC1NrSS6gjfZ42VYruFTyjDCEgBQC8TjO6QalHrdlA21Roy8+p2T4LS+dZNC45jRaY12PJDhGNqM//6TzS+o/e/3bn/3OtP32eqRRf7/8+cOLTWVJcmf2Tpkmq8dsUhqW1VpJor+rWty7q0dhpbcAxIWaUBqdZdrm0O1ageLZ2V50xx2D1Kez0Az5kbe9Oq2iqLVKuZilYJSnd40HpvY+vmJeY3mFki7AHisOq69kP1tz68T9vJHf+fnz84efj5FTfPmX7vZ48lc0R2KWzgZO7NFR6+bVWkWsOv8SRG+URJ1pEqHmYuJJsfwWMVBaTy4ddaQm1rEElAWjp+ltGyPgwAgBiNSDDaq+1hkYS5LsyvW46NrZuXmDn5yzstOhx4oPZDH31I27s04ejUW8NbivnvTud+8lvxH5GdlIek1j/QUsDajZmWI632Gh/YrvjABm6rtII0oM0+OrJLLe31pbP1SY/WJ1C01wPwkaka3WkqMc2cT63v34S6Mr/udoerSa1ddF/YhfuDTWaAuJmd6+u39T6j6USXEo4GslnT6eEHHo/3qOwlD+s0hqTWP9BSQGvHbqC0ilT7Zl6okM8BqY3hVZcFx6BRg20720rY3WTBoZRqVHMwAABlMovOdql4cIJsJNWquNNnOdYuumdOHPQ2xEE6tO1cX2o4WjDz3s+8XicpDklZ3/pLY05EBannKg5I5WKtcWMA60I12usrYtu503ozQPUoAN+MSDiqso1tOVJN2iHzVF1jZUA6/d4b3MshMdX1m6c17VxfbjhqmMpsU6Ed/VHpEQpJNW2AYzbXIyT1kNJxjFSQeq42ordvQpU2haeyw5ZASHHFoS0Iu6NBQArAJwON3TnnF25mnmo+mzHdAXstOJyomAfdXTZtojXx8qPbzI7bFhwKPFHX1D6g5Z2eeqH72XLD0YLZM2//RRAEX4r0wJQxoZNsJDOsaDRbD3sc+Eke0gJqRNFiHzCHNBJcPCrTYMuuc4rD7jEXK6gAYAlehKMFEiTusONoImPVfLPZidx/tOAw4Imqug1z1es+/Jca3q2ZH3r+zX+oeK3DBmgXyP26pu+vFlkfoXRscgUkKJKAVGYWatxZz5pQjYA0EracQ6pHAcBuXoWjBQ6GpE0W3ccFs6d+tdWCw4AnajOf/OW6rbus34htYl/vPed//s0Hovi7pvOvfziKv8cFjd25QWXjU9isqTxaN/0FVIqqgjRQXDafepiVz2bMrIuWtI/DAQSklaH1BYAPvAxHCxwMSa1YdLN7PZJW+6GPPqThpE+OvbDX7EIfxd/l+272C5nxKYr2AqEYqDwtkhUASECUASlt9rqPwQVNabdvKA67x2mvB+CBIZ/D0QIJSXfacTQV227D4nH23Ikvp30M8Mf85kzbep+x/Q2//+3O/VHP5Z2dyH0uyr/PAR1KNm1qYLOmsqnZiA3QLrKAVNrsrW/zWETqoZriHc9tlPa5pL0eAOw0yvftBxq7c2bBpWaDlxWk/t078/7Yn6R9DPDHqo/83rdsf7MTLz3UM3n4+cjXWNPHf3pz1H+nZrJTuJbvtjSv1RrHARZsJ1wGkhFlBWmgOGRJ7YKTz2Y20l4fqbQXSVq/vAhIAbjMVNd0yUISQqppNS8aC1Jvs595902NmzNCqer6zH+z+cjNyInzh/7Xf43j756dOFY78fKj2+L4u7WSeaRDCg5/u6x906D9+7+Pja6A+EUdkDKHVNdru6gprVY7xWH3uNxYAYCrehgjsiQt7ZnLSbUbyIQ1JrRJ6/Xhl5pNW87W3/rwPpvf9MzJQwNx/k7MnXuXarrLdSm5lqe19tUekDYEQTCcz2bIDoAYRRqQyuJDa5t9WvOruMhFL61zSns9ANhnSGZuYhEyIqnXgXOTWmBCWIMk1V59y/M2n3DzwOD8wefa4nyNmdPH2Nl7AemQ0HAtT2u95MJDUhOSPpvPZlz4zgasFHUFacBmTcWTisPtSb+uB9JaqBCQAoBdxpk7ujKZR6plJ+SlpPYdTFiDJFWvbfyGzSd8Ove//z7u12CkxeLkWm57sVJa10uXukh257OZA/lshu8eIGJxBKTDSn9IaSygqB6NR0vSFcHKw26tv7MAsJJe5o4WTXuQnFqbPWENkmL77vVmY6apoz/MxP06zCFdVuozmVfQkFKwdySF14yTGev2Yj6b6U+xExZwTuQBqcwy1DjLKvv3PE0AACAASURBVPFQjYA0VkmfW60/yyHCAwCOGpVqGhRBWu0fUX6uEg95zWY0zB9FUmquvNHq6sCpYz/andRrzU2eujOp19JE1uK2dwQkvm5yeA55ZxAEhyUopaIUqFAcFaQBbfZF4yIWn6TPrdafJe31AFxlexWNjfqUb9iU+Hfx3OSpu5N+Tfir5oqm2NvXy2WqR6ffeTWxHcpnJ3KfS+q1FLL94WBa6ybto2SW0ykVpab1vku6GwGUiID0UoldrGUHuoakXs9D2xP+YmD+KADYY6SxO8f4kBJJR4HmqtvEu4FmzxynGwiJqV6z6W9sPdvT+dceSPL1Zk8fpa14CVJFanO1cUtKAZ4P9wWm9X6vGSkgVaV8RwEliCUgVdxmn2SoxsUqfomcY8Vh9wjt9QAcxQ6v5aOKtASzZ47fmOTrwV81m7acXbd1l5Whl5kHmsTs0bAkq1WVsv17MI0qUp8KQxqkqtTsen+SsBQoTlwVpIHiJzRJXTi4QMWPn+XyqB4F4KJRqkfL50AVaaKL7pnxtxqTfD34q2bjDW/a+uZnTvziK2m8Lhs1Lcv2gqXEN9WTOaSaHwCWKxyWzuWzmUFpw6cKG1ggzoCUOaRLkAHKtNfHL6mKYAJSALAHGzNVrl/xsSdbQcoGTUhI9doP/cTWcz31m5db0nhdNmpamjzssvleP605pKx/gmC7tOEflpmlfWzwBFxAQHq57Qm8BtWjyYn1Yq847B6VHYsBwCXjjd05zeGeFeT7YUjp4TclVRVjNqVJ4nUAo6qu4QUbT8Tp4Qcen5s8VZXGa8+de+/TabyuIjY/MGxL6XW5R7iUebhxv2zwdJLqUvgutoBUnlqpvLlOYD4HAWly+FkujpsDAC7i2hYdqkhXMDd95uYkXgcw6rf1PmPjiZh5f+xP0nptZgAvT1rKrd2sKZ/NpNFmP2z5BlZpalhQXXpEqks72BUfvoizgjSgzf5y8kXQFNffHyOtXyQEpItjPh8AFxGQRkTxhptBUrPt5iZP35DE6wC1V33c2k01p3M/+a20Xntu6syatF5bEZvX42lVKTKKpzhNUl36bBAEJ/LZzHA+m+lJI9gGkhJ3QMpGTZfrivHvjpP5ch1VeNwNcVUEaw675YkyALiEa1v0tD7oTmTxRvUaklK9/horxyKl2V4fsJN9sWx+cJhW0Nbv6WZNlTJjEfYEQbA/tDN+F9WlcEmsAanMsCJUu5TWAcj9iitz4vpZag67AcA1XNuip/WcJjLbjuo1JKWqboOVAensRO5zFhwGlmH5zu2pBKQyCpCOk8oUdsbfu6C6lNmlUC3uCtKAUO0DcsFIZZfHChWqcrQulOIKpTWH3QDgGkaHREza7FVKogVwZvyIxk0aoVD16oYRG4965uTB1Kuo2SytKLZ+P6YZpvVSRRqpQnVpeHYprfhQJ4mAlFDtA1rnVc7/DBVXBDdFfYF2IOwGAKdoDvMsZ2UwU4TYF95pthbDM7Vrf2zbGz7zyhNNMycOrbXgULAyWwPS1NZSUkXKLNJ4FGaX7icshTaxB6SEapfQ2pI9vMS/axL1uVcddgOAY7SGeBpo/d6PdTE28fKj2+L8+4Gw+lsf3mfbCZmbPHW3BYcRzJ4fT2SkhnLWXsdTnl/ZRxVp7BYLS2nDh7WSqCANFN9cRxaqKa44HF9QlcPIhAtcCLsBwBVc2+Kj9dzGuwCbPvu7sf79gKiu3zxt47mYPXPcjmKBmfObLDgKq1nePZZaZaFUkWpd02lUCEtNG/4BNniCjZIKSAnVHKk4lC/YsfQOp2yRVQQ7FHYDgCsYHRKTxu4cASmQoup1jadtPP+zZ46nPn8UJaHTYhGyNhqy7sDc1yIbPB2R3fBpwYcVEglICdXmad3QZ7FAzfe5srTXA4BdCEjjpfEeLtaAlLZe+G72bN6KTcpmxo9oLFpIwxFLj8uGNXIXrfapKeyGv79QVerpeYAlkqogDXwO1aR0fHs0h5OsJSoOtVYER3XBdSnsBgD1ZN454qMxgG6K9W+nrRcJqWlotnIvBzZoUofvySVIq73WAhiXzFeVyqzSXtrvkYYkA1KfQzWtF9xF2w2kIljjU7aWSodCOxh2A4B2tA3GT2WFLosrIB5mB3tOrToEpMuQcTKPWHuAfjHXl93Sfk9QikQlFpD6HKo52pKtNWyr9GfhVNgNAA44yQ8xdloX1sw0A2Jgyw72KImt13FrrtON3bneIAgGLDgUXNBAUIqkJVlBGngcqqmsOHQ0IK20Ipj5owBgF+aPxo/KIwBWmhk/YsUsVJTNqtCrsTtn1opWjrXwWDgoZUYpYkVAWpyyQ7F8NqO24lDmsSxK2rW1VgRX8kXsYtgNAABKwMYwSEr1uqutu4ebm53+sAWHMW9u8lSVBYdhPWkhR3HaCUmt1CAzSs1mTlr3BIHlEg1IFYdqbRWEaloD0mK+RL0KvF0NuwEAWI7ihTUt9kAM5s6992nOK1wl6yZCUnuZB5Qv5rOZPtruEbWkK0gDD6tIXW7J1rpg8u1nyRNjAICPWDgBAEoWCknZCNJe90vbvdY1OiyURkDqTagmv6wa5+KMNnbnipk3pjXs3l7m0ybmjwIAAACA40xI2tida2fjJquZrOVZqkkRFSpIi1dOqKZ1NkZ/Mf8lebKmdXf0ksJOD8JuAAAAAECIbNy0k3NiNVNNOpzPZhitg4okHpD6FKp5UnGoNfAuNbx2OuwGAAAAAFyusTvXFwTB7Ur3U/FFi4SktNyjbGlUkAY+hGry9KIp3sOJRakVh77MlKW9HgAAAAA8JBsWNjOX1GqFlvte308EykNAWppSQrIuGw64DCXNiJWKYI07/DUU+3TJo7AbAAAUoWrVunOcJ/iqas2HfsAPHz4KzSXdSTWp1Xbnsxk6KVGyVAJSH0I1xRWH5VxItF58iv0ZeRF2AwCA4lSvu/pNThWSMHvmuHVriqrq2rctOIx5VXUb5iw4DOvlsxmt48KsJC33rVSTWq2TkBSlSquCNHA5VFNccTjW2J07UMb/zvWKYJ/CbgAAAECFmoZmqvh0U9vtZjr1pJr0brOOtuCQcDlCUpQkzYDU5VBN6xO6sn4m0sattSJ42Z3uPAy7AQAAgCVV1W14lrOjTrOlB6x+HFhjd25Qqkkfoe3eSoSkKFpqAanLoZriluxKQmutF52VflZehd0AADjkJD9MaDc3M9lg21tYt3UX1XL62BqQOkFmk/bKeR7w/XxYiJAURUmzgjRwMVTLZzPmotiS7OFEYlx25iuX1nmXK1UE+xh2AwBwUREPhm0VWydFVd36g3xCkITZ00etDLZqr/o4DyB0sfU67tTnSIJSs368nqDUOiYk1bq2R0LSDkhdDNW0zqusKFCTdm6NT5Obllr4eRx2AwAQtpGzcamq2nWv2XQ8QNKqVq07Z8NJr2lo1tiRmAZbK0idHAkm80lNGLeJ1nur7GXDMiwn1YDUxVDN14A0wr8jDUs9SfL5ZwkAWmitbtSE1kwgJTPjR6xrsTeq1139pgWHgeJpLPpQb0Hr/Q42c7LCYD6b4cEvFpV2BWmgOMy5LFSTX7S2dA6nIuMyXLpSWkcmLPUUiYAUAOzHTW78tAak8VUm1a79cWx/NxAyN3mqysbzUb3uajvuN2tWn7DgKKxmecWcF5vKSlDa39idM9+nt9N+n6oGxbkFYmZDQOpSqOZ1oKa4IrhF2ukvIuwGADU0Xqu1UVmlaxakcf3d9bc+vC+uvxtYaGJf7z22nZT62x7rs+AwgurVDSMWHIbtrL2Gx3mdtpUZhRZqv9+hdONq7bYzjxSLST0gdSlUUxyQRjmv0pW5svwsAUCJRb6PES2N5zf2e8uqug1zcb8GMG92arONJ6Jm05azFhwGVmZrBanX4XaoqrRVNnXaSQt+ovpotcdCNlSQBi6EavLLtT3dwylblBWHroxMoL0eAPRgDmm8NM6uOxL3C9Q0NLPpBhIxe+a4lfelNRtvSH0OqS2VrJazNSD1rnp0KbKpU5+04N8SBMFTVJbGzrTac/3AJWwJSF0I1bTuhjYUZWuDtHdrXDBcrAgm7AYAdQhIY6J4t9fYA1JbdvGG+2YnT33ExjdZs+Ejqc5RpIp7ZXINt3KjL1/mj5bKdNg2dud6FlSWEpbGo5MuJIRZEZC6EKpRcRj735mEwiKQsBsAdNF63daAgHQJ7OKNpMydffdKG0+2qd5MM6SkirsoNq9RCUhXEKosbQ3NLB1Qmp3Yig2bcJEtFaSB4sq3wsKBgDTevzMJhZ8hP0sA0IWNmuKjNSCNfeFdVbf+YNyvARjT77xq7Zy82swnf5nWa1etvfLdtF5bEQJSR4RmlnY1duc2Siv+I1SXVqwtn83QiYR5BKSV68hnMx0Wty4sZzSmikOtM2W3S3s9ASkAKKO4Fdx2WsPn+Fvsa9e9FvdrAAU27mRv1G7ckk3rtavrNvw6rdfWQL4Xmyw91HFTHWnBcaglrfi9oerSu6W6lI2eStej7YARD5sCUrWh2iIb/GgRSzm5hK5Dis8JYTcA6KP14Za15AGwSmbhGPdxszkMkjQ3OX6HjSfc/B5U12+eTuO1q9ddTXHA8mxeo1I9GiGpLh2U6tJmmV26Q9bktOOvjFmkmGdNQKo8VGNDn2T/7jhp/VkyOwWA7whIo6f1nI4k9UJpBUPwz8zpY9ZWya/a/LvfT+WFa9f+OJXXVUBBV5zW4igVZHapacfvCLXj70zy+1EhrUVviJBNFaQBLcKJGo25rYGfZbI43wB818QMqchpDUgTq0yqabgun9RrwW8z775pa6t0UH1F08NJv6bZHKr+1of3Jf26inRZ3hVHQJogacc3mz21N3bnqqQd/yna8S9BQAoCUo/Feq6VVwRrE3fYDQBacHMbEcXz1YMkA1J2skdSZieO1U68/Og2G0+4CSpXXdd+KMnXZAf7Fdk+U5EW+xRJO35PqB1/J2t3HrTDsoCUUC1RSYTRPBlMBg8WAOACAtLoaB5ZkNj9BzMQkaS5c+9ae42rbbw50WOraWhm5+4l5LOZLos3ZwrYO8Eu0o5vqks7Fmz25ONDCO4jPWdbBWlAqJaIsSQ2LyC4SwznGQAuaJCFISogGxV0Kj2Hie6MXFW34dmkXguweQ5p0lWkVWs+9IOkXkuhXssPmbWLpRZs9rQxFJb6gnn2nrMxIOWCGb9EzrEsUHi6G6+kwm4A0IKAtHKaz2GiD9rXbd01VrNpy9kkXxP+snkOaZBwFensRO7ppF5LEwXVowEFUXoUwlKpLN3hwdq+id3s/WZdQEqologkdzxnd/V48UABAC7Vls9mrK2ysp3sfGz77LrlJP69WL3uw8wBRyLm55Du673H1rOdVBVpdf3m6SvuHPhp3K+jjVy/ba8eNVX+BKTKSGWp2RXfzOi83fHd8LmH9JiNFaQBoVqskq44JMCLF78rAHA52xeINutRvDlTkEZlUk1D08tJvyb8NTN+eJfNb95UkZod5uN8jZorb2Tn7cX1KKgeZW2onAm4zW74QRDc4mhQSkDqMVsDUi6c8Ul04SAVwdzExGOc9noAWBRVpGVwoHp0LMn5owVVa67kYSUSM3Py4I02n21TRVp3XftLcb5GzfrNVCAuIG3BGq7frPMdYdahEpTe7th6n53sPWZlQEqoFqs0vpT4IowH5xWoHHOG3EUVaem0V4+m8r1oAiHmkCIpMycOrZ14+dFtNp/wDZ/72/Y4fyd4KLGofgXXb1PcwfrFMTIyodWhzZxaLDgGpMTWCtKA8CcWaX0pcRMTD35HgMrZ3oqG8rWxo33xpPpot5bjXUJq9xs1G294M63Xhn9mTvziK7a/6bqmO3bE8fea4NU8lIjj79Yqn82Yh1ttCg6ftYujZEZpl2zkpB5dSP6yOSAlVIteKl9K0gZORXC0eAILACvrk7ZxrEz7fVfSM9YvUV2f+U5arw3/TB//6c22v+n6bb3PrL7hrsjnE/Iw4lLycEtLxwRrF8eZjZwcCUm5d4yH9cGztQEpoVos0vxS4gsxWpxPICL5bIZZQ+5q4IHryhRVHy0n1e/F9e1PPpjm68Mv87vZv/SQ9fMmTat97VUfPxnl31mz4SOutPFGZVDJaBSKOzwhIelTyt8tawNP2VxBGhACRS7NgeYMU48WvxtAdJhD6rbt+Wymw/eTsBRl1UfLST0IX3XNp3JpHwP8MX3yULeGN1vX9PutUe1qb/6e+tse64vi73JBPpvpVzQvkYeVHmnszvVQ7IZFWF+Za3tASqgWnSEzGyStF5cnhuNpvb6D+N0AosNTYvf1SxCIy2mpPlpOqu31BTUbf+vbaR8D/DH11vCWM688Yf0c7XVbd42t+di9X4ji76rNfPKXUfw9LpAZ252K3grBtn80P3xlBmk8rH+gY3VASqgWKRsqDql6jEaqYTewDK3Xa26C3GcCwEHmkV5KWfXRcqyoTKpe9+G/tOAw4JGZU79WETqZeaRrPvaFr1X699Rc0fT30RyRbjIaaK+iNzHS2J07YsFxIFms/XEZ20eb1VpwDCsZVPZ0zFa2BKT8LCvHlw1sdUDpHEPtsxdRnBapYGFne53VR8uxIiA1lXJTR3+Qmzr6w4wFhwMPTP36+/9Wy7tc/5k9X5qbPH3D+YPPlfWda9rrmfV7MVzQ1kmWaJAvHSOHk3zNCOxs7M45VWVrCnry2cwI99lYoFXWjFayvcU+IAyKxIgNFYdUBEeG3wkgYsyo9EanVE16TcJRTdVHyxmyqTKJNnskyWzWdHr4gce1nHSzadOq69oPlfO/pb3+knBU01iUsaQ3Z1JarerquCetlcO2j2WyNmAsgtWde9YHpIRqkbApUGN2ZmWsCLuBJWj+bBKQ+sPrkDSfzbQ7FI4Gtm38QZs9kjb99r98WdNJb/jDb9xQTkjqe3u90nA0SHEOpbb8wNVxT1oDUqvnOyvPA6xec2moIA0I1SpmU0BK9WNlOH+wmeanmZ3Mp/SKlyGpVI669D2SeGXSSkybfbkVckA5pt95dePESw/1aDp5pYak1fWbp31ur1ccjo6n+J2j7Z60ydHNJNkIFQs12Ny5pyUgJRQq36hlbQb8LCvD+QPio2qBiYp5FZKG2uq171gfZuUOub5XuiF5U8d+tFvbaTchad31ny0qxKq9+hOvxX9EdlIcjhp9KVa6aaxcdLGbieKD+IwqPnYC0goRCpXPqsWffEkOWXAoGtkWdgMLaa/276GK1DsmJHV+d/t8NtPrWFt9kHJl0rJMpZupeLPx2OAmjVWkxhV3DtxSzO72NZt++z8kc0R2kSorreHoeNKbMy2gcc3k4iaSbNAUH81t9p22VkyrCEgJ1Spi4+KBwLs83m8sAutpn4/bkPLNPNKx3SxApUrHKSb4NQFwEATqqsuKkGZl0opWbf7d79t6bHCTxirSQHa3X/uJ+3aaXeoX+//XXvXxk/W3Prwv+SNLlzzYelZx1X/a12iNY59aXLoXUf5eNMyw1TzaLLC1C0hLBWlAqFaWMUsrDpkpWx5+B2C1xu6c9i/qQJ5oujooH0trkZDUmTEL8jk+IAGwa9KuTFpR9RVNDzt31mE1rVWkRv1tj/WtubnztppNW84u/P/VXnXz/0jnqNLhyIMtG67RWu9JXRr3pLkiVsPnR3thSqeNIbqmgJRQrXRWBmoS2mqemZEGW8NuYCEXfredb7nGokyVzp58NjOseaMEWVybhemLtu/CWgGrq0cNU/HGZk1I2uSvhv+L1pNufmc23fv9deG5pPObM31mz5fSPbLkOPRgqyfta7Ssm7TtZB/Y3HpcBhdHBtjEhXzMuofdagJSQrWy2NySTbt4aagehRYuBPkNUk1ISOonMy/rgLQ3qiLz6szi+n6Hf3LWV48W1G7ckrXjSOCLmROH1p7+3s6van67Zi6pabk34agvoyoce7BlijpsWedprSJVv06WjSFd2hTSRtorSI022+63NVWQBoRqJRmzvN2VwK80fPahhQtt9oG0XDOP1F/mpn53Pps5Ijf5VjNVR6byVebVuVo1WmB99WiBaRterGUYiNP5g9/64plXnlB9HTC/O0Ew9/+c/+U/Xu362JtQ1agrD7Zs+s7UWmHXJg88VZICA3UPmRew/rPjyGizQO63rfm8awtICdWKZ/W5oiK4JLaH3UCYS+NQTJvTASpJvWZChr2FoNS2z4K5oZRg9EVPdoo134eqFl2rNv+b/9+Cw4BH5iZPVU2/+4b6NdPsRO7eYHb6JnN9y2cz/Q61Hc8z70dmjbo0DmWosTtn032g5vWT5s98rwOfaS3VmSMWHEMU+m2ZR6oqICVUK4mGkIK5ssXhwQDUsOzGOAotru5wjpLMB6VmhIQs1FP7PMiiuteEtlIx6kMwWqCuIsXMTzStwhYcCjwyefj51ol9vfdofcdSVRm+tnUGQXBYrn2qH1rKNdx0hh12bBO9cQs3GNJ8T9qgcSa+VAK6UA2tJVx3pYiqwZb1lrYK0oBQrSjjjd05DaEabePF4TMPbVx7kGVC0v0aZ1Iicg2yUN8vVaV9SbR/mhtGs8O+qWiWRfVuD1rpFxqxaK5dSeqa2gcUHS4cMTn2wl7F72Sp79vdoQdVqqrrFgSjnRYcUtR6bdtQVsaxaL4nVTXuScItV9b3WvZUcKnLtEHur1Md01E1NzeX5uuXTH7x9qs66OQNNHbnVOwaJxUwvi3ySmHCbtp7F5BA4kWrDqo4j2hrDy2HbDTg6iYxY7IIcO4Bj+LfK1uMyAMtc7N6pNzRKLLoN3/Mz6NV/slGB0Fwi+ZxM+/tvWVqduJYrQWHAo+svvGPBzfckb1b0zsu8btoSOYSW1tMIBV1XY5Viy5kHmBZOStWHm7vtuBQKmH92l4ymmFH7lfUrL/lnvGwBYcSNXNt70pj5ry6GzVzc5zPZsYI1ZalqSV70PHdditFez00cvn3ujCTslee6g9GXTEhN5kbHRxX4Lq2cEtoPpsJJFAvfD4OLDHTqrCo3CjVIrjcU9pncZsq0nOvP32fBYcCj0wefn67abWv39b7jKJ3XcqDZBM6bpe1obn36LfhWiHf4ybQ6vBkzWpba33YoAMBaae02qcSGK3EsXA00NS9adYgjmZj26VbwBSlJFpFra6CNHC/Oqlijd25Ki3HSkXwiu5WMi4hUVSQ2i+fzZz0qOptVG7A56sHy7l5lc90qywymtL4rFBBCkuZG/9WLTvXL4cqUqShZtOWs5vu/f46DSc/ou+hQlg6nNQ9tIRX7fLHl1C0YGfSAUapHOpYHJWQ1JoHhtIO3efYPb/1n+kwGd3h4tiOgjEZ3dAXx71gYc5v4e/WepPWT0C6pCFLj2tRUhE8Tvvg4ghHodiw4+1kYS3yZ75CQZ7kHpFqwaVuYgtVg810RADLsrJiphxUkSINMycOrT31nT8b3vC5v7WyBXqBKB4MNsk68X6p5B+R7+LC+JOKq8MkyG0OjUHxtfp/REmQNOxIgFTYODTxqrqFJFTqd/ReX1sH16DjAWmTrLF257OZodADsIo6+OQ6Xqj07yj83FUGpIRqy9IYqLn+S10uVWE3sMCgRwHpQk2h0NPXcwBE4SmXRk2YHe0nx4Y7qSJF0s4ffK6t+qWHeupve8zaMEtmdbYV8V8t1UrjT1a6xmyUIDSQf7L+vGBcQgUNXKqwM5+/PfL70pvGd6SjVaMF4wpH+vg0kmt7YW0VKkgpvP/lzkNhvn/her7ktVzzDRqh2uIISN1B9Sg0M59fzTvoAkjXWETVZFZZveX//k9nf/q1PXy2kLRzP/u7v66q2/Dsuq27xiw9+UmGt+EHmXGEsj7o0FLdb0JEB+c0ms/ti/lsZiSJoFQqRjvke9nlzid162/zeyiVlb4VZRSu44VreCSzhquj+EtSQnh0uSGNbWjSRj5uwaHYhs841JJrEVXQAMrlTGt9mKngq73q4869L9hvbvJU1eTYd62sjMpnMz2Mm1HlEYXV/f0WHEMcCkHp/IY2sr9HZEylqsy4PCKFD67/nmpdf5MbRERtBakJ1Wizv4zmXwyqSC+lMuwGFnB1NhGAeGlcfBdt1bVtd02/8+o/KzlcOGT6nVc3vv/tzv1X3Dlwiy3vSirTvNjA0hEjSjcc7XdgN/vlhOc0jhU2Di38KWZdmc9mCm3I7aH5uj5lLeOK9/+gcy8i2mcgEapdSvNiwpXh2VHhKRDUkwdZrrU0AYiX1sV30epvfXjf7PtjI2YupJJDhkMmDz/fevp7O79qZuJa8q5cnWXoolFFc0cvYTZ08agNuUnW1RfX1ovM3g1jtu4FatffHrfZR05zi33g2UDalYxWupNXyggEL8VnG65wtaUJQPQ0bfpRkZqNWzqr6zdPK34LUOzc60/fN7Gv956034HsIkyBhA7jDow+0bDjfpyaQpuWhf8Qjl6g/fPBmisC2gNSQrUPqP6FYF7hJbSH3UAYX9YAitXuy3gZs1FO3fV/8FcWHAo8de71rz9tQUjqe2ClSYfC3b0vIaNbRi06JNhjxIHP96BUCaMCqgNSQrVLuBAWE3hfQKAEZ0jYP8BPFMAKdmhfnJRqffuTD6665lM5XUcNV5hNm87/Yui/n3nliVTG4JgNZYIgaOEDpcIOh+ZCE8pjMa58LsgRKqS9gjQgVJvnSsUhP8sLOA9wDZsvAFjOQGN3zsub+lXXfHprVd2GOQsOBR6anThWe/7Qc28kHZLKTtsub5jjkh0uXZ/lvVBlh7AxxZszLdQn4zBQJgJSNzjxRE8qgkcsOJQ00V4P51BFCmAZQ43duS5fT5BptV/9O3/0pAWHAk/NnDi0NoWQlConHZ5y9OGVt985WJQzhRySp5CPVUB9QCofAt9nibj0xeX7LzSbM8FVVJECWGiUhSqt9khfkiEprfVqmMr+HhffmIwL8L0oBxeMOvgQgDVXBVyoIA08fwo55tjMLt8DUp6ow0lUkQJYYNSnTK25wAAADqJJREFUTZlWQqs90pZESEprvRoDHlT2Oxn+omTOfQ5Yc1XGlYDU51DNqfcuv9C+VgS7FnYDC/UyFweAzH8jHA0xrfZrPvqnf27NAcFLcYak+WxmI4UQKvgQjgay5nrKgkNBeoYc2nxsoR7WXOVxIiD1PFRz8UbD1ypKbhrhNLlWs3so4Ddzw95BOHq5+tse66u7/rM8KEWqYgxJzfd/Kjvmo2g7PZsJ3cuGTd4ad7mKWO6xWHOVwZUK0sDTUG3c0acevs7hJCCF8xq7c73MjQa8NS6Vo4SAS7jizoFbajZtOWvlwcEbhZB04uVHt0XxnvPZjAndOvkEWc3sVu9VoCIhEq32fur1YGPkPh4AlM6lgNTHUM3JQE0WTr79MrsadgOL4WYU8M8Y4Whx6q7/v/6AeaRImwlJz7028NLEvt57KjkUmTtKJZO9xiUc9bKDr7E7N0irvXdGfHgYwAOA8jgTkHoaqrlccehbNSXVo/CGPAzgZhTwh6kabyUcLU79rQ/vYx4pbDA3earq3Otff/r093Z+tZzDCc0dbeAHaqVCVb/vm8TS3eQP85n3ZoyEPAAYsuBQ1HCpgjTwLGQalw+8q3z7oiYghVcau3M93IwCXmC3+jKYeaSrb/xj7g2Qugsh6dP3nfrOn5XT6TTI3FFrmWtzMw+uLlbadbGpjRe6PGitX4jPdglcC0h9CtWcvmn2rCLY9bAbWApf2IDbhghHy7fhjuzdq65rP6T1+OGW8wefaxv/5vZjxW7elM9mzLqsjY+BlQa4Nl9K1p60I7vtER/X3KEHACiCUwGpZ6GaD/MqfZnJSTgKL3EzCjhtoLE7x271FWr4w2/cwKZNsMXU0R9mzr3xzMGV5pKyKZPVzLzRLq7Nl5NRA4/YdlyIxJBsFOslCYYH+CitzLUK0oBQzSm+BIdszgRvyc0o80gBt8wvwPmZRmP1lrtuIiSFLWYnjtWePfA33zj1Qvezix1SPpvpCIJgLz8w65iW+luYN7o8CdEIktwySgXlPMabFcHFgNSHUG3Ih6d+8qTDh/ZbKkjhNZlHys0ooN84C/Dordu6a6yu6Y4d7GwPm5x/8x86Tj5zx4lwy73sWM/vv32ekpZ67+eNFkMe8HFf6gbmoAs5Bx2MN1uecwGpJ6GaT4Ga6+/Vi7AbKAJPNQHdRtjwIz7123qfWfOxe79ASAqbTL/z6sazP/3a4dPDDzwu4egwO9ZbxayJ7zYPollvlIz7Uv0IRxeQDararTooy7hYQRp4EKoRkLqD6lHgg6ea7dyMAiqZjQ9YhMRsPiT96J/+udNvEurM73L/2sCu6vrM3xGOWmVAHlqx1ihD6L50SN3BIyAcXZo8yN5h6/GljYBUn1GfftE9+FLnpgUQhKSAOmZjzNt93vggafW3Pda35mNf+Jpf7xq2W3Vd+6EP7TjwO6ZakfbN1BWuy2zEVCFz/sxmg7Tbq0M4ugIZhURIuggnA1LHQzUf5/q4+uTOq7AbKAYhKaCG+W5ubezOsdFgwtZ/Zs+XCElhCxOONvzhN24IPliDNbP5YirGpZq/metytJhJqgrhaJEISRfnagVp4HCo5mPFoavvmSH2wCIISQGrjclMuw4WIOkhJIUNwuFogVTdmfmN18tsYsRvQB5YUc0fEwlJCZPsNtDYnWvl3qR4hKSXczkgdTFUG5XBur5xNSClvR5YgiywWnliD1jlKVmE8/1lAUJSpGmxcDTMrFnMbGLT7k1QGhtzXm+Rdnof14iJkjDpFsZIWGmnhNgoESHppQhIdfFyQSJPgVyrCPY17AZKIjc7OzlrWAaVxvErLMLZCdkyhKRIw0rhaJhp9w4FpVyvozEic0bbZcMVJETOdzOhvzXG5Xehz/cTUYlQSOp9+O9sQOpoqOZzxYZrs3SovgGKJDc9t/OljSUM0soZG9NOv4NFuN1MSLr2E/ftrKrbMOf7uUD8Vt/4x4PFhqNhEpS2UlFakXAwypzRlEiXU7s8wOfeND0m62HmbkQkJG33/TPtcgVp4FioNub54sS1QJGAFCiB3PzwxB6LopUzcuHNPpiXrcCF3e3v/QIhKeJkqpU33JG9u5KXWFBRyhid4pjzdD3BqF3kAX4r9x2JG5eWemahR4wKafcDUpdCKK8DNWlHd6Utx/ewGygLT+yxkgULbxYspZsPRqUig80+lKnf1vuMCUlrNm056/u5QLRM8L7m5s4nTLVyVH+xXK+7pAPgEalYxwfG5H5nEzNG7RV6QEt7cjKGZBY6LfUxCa23HnHyDa7A6YDUsVCNCg53zgHVo0AFQk/sXRujgogQlJZsLByMUpGhlwlJV2+56yZCUkRlPhz92L1fWN/+5INxnFQJmMx1x1Qt3e35d/u4VIveLhX8fVyPdZBui2ZfQ6UEjMnvRQcPC5IhD8pv8e3hlesVpIEjoRoVhxe4EiwSdgMVkgVVhwRgVJ1gUaGg9BZaORc1KjNGCUYdsm7rrrFN935/ndlIx/dzgcqYoH3tJ+673gTvSZzKxu7coHy3b5KKPF/C0iF5v81SLUobvUJSedcrVdHcc0Sj0E7PrNEUSAbV6lPw70NA6kKoxsXgg4pg7UEIYTcQIQnAmmVhQVCKRZnrLq2clyhUKLUyY9RdZiMds6GO7+cB5TEBu6lGNoF70qdQgqb+BWHpgEMtzGPyfu5u7M5VSVVcPw+p3CAP8bsISisSHvlDO32KFgT/zndl1VpwDLEyF6h8NmO+hJoUvw1ubj9gzsX9thxMGQi7gRhIyNOfz2bMDWmv8ms+YiIP2sznozefzZiFd+FPgwfn3FSLmkXGIItwf5gNdapXN/Sc+9nf/fXc5Kkq388HimOC9Uo3Y4qKXK/6Cx1Y+WymVa7b7VLZpOH6PS5rgPk/FEv4Qe45uvLZTE8QBOZPF/enKxqT33XGS1hGPs/t+WymXe4nW1x8n84HpEJzqDZu2k0sOA5b9CsPSPlZAjEKBaXtcjO6nfONxch362A+m9kYCkpd+7yMyvfmIDO7/GV2uA9q1/548vA//tPMiUNrfT8fWNr8vNGP/umfz39mLCXh4sWAUQLT8J82C458RI5x/g+BqN8k6Cs8nO1y9H6jUuZ3pp+uFvvJqINW+Sz3uBaUVs3NzVlwGPGSL879Sg9/QEr0IfLZzBGlT99M2L3RguNQT8KvFxW+j0fYGTpZ+WymWW5EexRdN8zT88RnkPF7dUGosrRd4XdNoUppUKqUCEVxife/3bl/8vDzrZwVLFR71cdP1jX9fmsaLfVRk+/+ZrmOB6F/RlVxOh4Kac0196T85yNcd1GM0P1pl6uVeEUYL1SH8xBBL0eKUm4vrLu8qCA1v3CK2+ypOLyc1opgfpZAwmShYiph+kJteR0W3oyOyTWCm8SUFSpLgw8WMO2hP7bdRxQW6YW2Tca4YFlX3Dlwy+nhBx4///NvPkDLPQpW33DXyIbP/W27KydEvvuPLDfaSu4JSilcIPxEZBbcnzaHHsy6Xlk6LvdYg3TJukHuPYflc9yldJTExXEOXlSQBh9UhGh8Ys78jQVCv3zaDBJ8REPxZ4AAwxKhtupWuSFNOjAdXRBspb7oooJ0ZfK5aQ3NvmtO8LMzFlrwF9o2WayjLGdeeaJp6ugPXpk6+sMMZ9BfZpf6uqY7diS1Sz2AlUlu0Z7S/WkcRgvdLayD/CAPoArjJGwNS0dDFcz+BaQAACxHAsJC6FWoLInixnREgq2L4RYPvtwSaucs/AlCn6Gwhe2di+0GWlg8FFo2T/JwDXE59UL3s5OHn99ONal/6q7/7IHaK2/qcKGlHnCZ3J+m8WC2XCMLigC45/WYhKXhbqy0NtYrqjiFgBQAgBXIzWlYOAgLQgFoAaEWABUmXn5029SvRp6bfudV5qR7YL5q9Nr2/2zzRkwAlif3pc0LHupHNWO3WKPyMHdY7oHZkAwrWmRjvTg+t+ERVAdKCeoJSAEAAADPMZvUfa7NGgVwudA4oCAUnIYtfMi/mJOhjciCBYUAdEIhcqFilHAH1mKf34KFn9H5DqxKxzgQkAIAAACYn006/e4bg+x07xazQ/2qa9vuqr/14X2+nwsAAJZCQAoAAADgool9vfdM/eb7f0PbvW7V9Zun667/g79a3/7kg76fCwAAVkJACgAAAOAypu1+8vA//b+zE8dqOTt6VNVtmKu7rv0l2ukBACgeASkAAACAJZ3+3s6vTo4NdxKU2s/MGa3ZuKWT3ekBACgNASkAAACAZZn5pDMnDw1MvjV8Gxs52WfVde2Hahtv7mLOKAAA5SEgBQAAAFCUQlA6dezHv0dFabpMK31t5pO/JBgFAKByBKQAAAAASkbrfToKM0ZppQcAIDoEpAAAAADKZjZzmn77X77Mrvfxmt+Vvql9oHrdh/+SYBQAgGgRkAIAAACo2MTLj26bOfGLr0z95uUW5pRGZ36+6MYt2frbHutz5T0BAGAbAlIAAAAAkTLt9zMnf3nn1NEfZjizpavZtOVs7dW3PF+z4SM9VIsCABA/AlIAAAAAsZjf1OnUr/umj+//7MyJQ2s5y0szLfS1V3/itZqG65+o39b7jK3HCQCAiwhIAQAAAMTOtODPTuT+48x7b7Yzr/QCUylas/GGNwlFAQBIFwEpAAAAgESZytLZM2//xczpY+0z777Z5MtO+GYH+trGj71dveHaV6rrM/+t/taH91lwWAAAeI+AFAAAAECqJvb13jN7Nv/52VO/2joz/lajK4GpCURrGprHaxqaR6vXXT3IRksAANiJgBQAAACAVUw7/tzkqTvnzr336ZnxIy0z40caNOyMX3vVx09Wr7/mSPXaD/2kqq7hBdrmAQDQgYAUAAAAgPVMW/7c5Km7Z8+Pt81NnmqePX20eW76zOqkN38ymylVr2s8XbX2yner6zb82lSGBrVrf0y7PAAAehGQAgAAAFCtEJ6a9zA3febmucnTNxTez+yZ4zfOTZ1ZU+z7M+3wH/yH1SeqVzeMzP87ISgAAG4KguD/AHF5VCE9kdVYAAAAAElFTkSuQmCC;fontFamily=Helvetica;" parent="LNALhKh-zvmf5X7zv8Wf-23" vertex="1">
          <mxGeometry x="152.88" y="51.74999999999994" width="127.58968888888899" height="23.306666666666683" as="geometry" />
        </mxCell>
        <mxCell id="LNALhKh-zvmf5X7zv8Wf-32" value="" style="group" parent="LNALhKh-zvmf5X7zv8Wf-23" vertex="1" connectable="0">
          <mxGeometry x="622.2222222222222" width="97.77777777777777" height="62.18518518518514" as="geometry" />
        </mxCell>
        <mxCell id="LNALhKh-zvmf5X7zv8Wf-33" value="" style="group;fontSize=13;" parent="LNALhKh-zvmf5X7zv8Wf-32" vertex="1" connectable="0">
          <mxGeometry x="31.111111111111107" width="35.55555555555556" height="36.62962962962966" as="geometry" />
        </mxCell>
        <mxCell id="LNALhKh-zvmf5X7zv8Wf-34" value="" style="shape=note;whiteSpace=wrap;html=1;backgroundOutline=1;darkOpacity=0.05;size=13;fontSize=13;" parent="LNALhKh-zvmf5X7zv8Wf-33" vertex="1">
          <mxGeometry width="35.55555555555556" height="36.62962962962966" as="geometry" />
        </mxCell>
        <mxCell id="LNALhKh-zvmf5X7zv8Wf-35" value="" style="endArrow=none;html=1;rounded=0;fontSize=13;" parent="LNALhKh-zvmf5X7zv8Wf-33" edge="1">
          <mxGeometry width="50" height="50" relative="1" as="geometry">
            <mxPoint x="2.9629629629629632" y="15.593756613756636" as="sourcePoint" />
            <mxPoint x="32.592592592592595" y="15.593756613756636" as="targetPoint" />
          </mxGeometry>
        </mxCell>
        <mxCell id="LNALhKh-zvmf5X7zv8Wf-36" value="" style="endArrow=none;html=1;rounded=0;fontSize=13;" parent="LNALhKh-zvmf5X7zv8Wf-33" edge="1">
          <mxGeometry width="50" height="50" relative="1" as="geometry">
            <mxPoint x="2.9629629629629632" y="20.93121693121695" as="sourcePoint" />
            <mxPoint x="32.592592592592595" y="20.93121693121695" as="targetPoint" />
          </mxGeometry>
        </mxCell>
        <mxCell id="LNALhKh-zvmf5X7zv8Wf-37" value="" style="endArrow=none;html=1;rounded=0;fontStyle=0;fontSize=13;" parent="LNALhKh-zvmf5X7zv8Wf-33" edge="1">
          <mxGeometry width="50" height="50" relative="1" as="geometry">
            <mxPoint x="2.9629629629629632" y="26.164021164021186" as="sourcePoint" />
            <mxPoint x="32.592592592592595" y="26.164021164021186" as="targetPoint" />
          </mxGeometry>
        </mxCell>
        <mxCell id="LNALhKh-zvmf5X7zv8Wf-38" value="" style="endArrow=none;html=1;rounded=0;fontSize=13;" parent="LNALhKh-zvmf5X7zv8Wf-33" edge="1">
          <mxGeometry width="50" height="50" relative="1" as="geometry">
            <mxPoint x="2.9629629629629632" y="31.39682539682543" as="sourcePoint" />
            <mxPoint x="32.592592592592595" y="31.39682539682543" as="targetPoint" />
          </mxGeometry>
        </mxCell>
        <mxCell id="LNALhKh-zvmf5X7zv8Wf-39" value="yaml descriptor" style="text;html=1;align=center;verticalAlign=middle;resizable=0;points=[];autosize=1;strokeColor=none;fillColor=none;fontSize=13;" parent="LNALhKh-zvmf5X7zv8Wf-32" vertex="1">
          <mxGeometry y="36.62962962962956" width="110" height="30" as="geometry" />
        </mxCell>
        <mxCell id="LNALhKh-zvmf5X7zv8Wf-40" style="rounded=1;orthogonalLoop=1;jettySize=auto;html=1;entryX=0;entryY=0.5;entryDx=0;entryDy=0;exitX=1;exitY=0.5;exitDx=0;exitDy=0;" parent="1" source="LNALhKh-zvmf5X7zv8Wf-30" target="LNALhKh-zvmf5X7zv8Wf-3" edge="1">
          <mxGeometry relative="1" as="geometry">
            <mxPoint x="467.7777777777778" y="0.23148148148106884" as="sourcePoint" />
            <mxPoint x="196.66666666666652" y="232.14814814814804" as="targetPoint" />
          </mxGeometry>
        </mxCell>
        <mxCell id="LNALhKh-zvmf5X7zv8Wf-41" value="Provisioning request" style="edgeLabel;html=1;align=center;verticalAlign=middle;resizable=0;points=[];" parent="LNALhKh-zvmf5X7zv8Wf-40" vertex="1" connectable="0">
          <mxGeometry x="-0.8469" y="2" relative="1" as="geometry">
            <mxPoint x="66" y="17" as="offset" />
          </mxGeometry>
        </mxCell>
        <mxCell id="LNALhKh-zvmf5X7zv8Wf-56" value="" style="group" parent="1" vertex="1" connectable="0">
          <mxGeometry x="-60" y="109.99999999999989" width="506" height="525.3600000000001" as="geometry" />
        </mxCell>
        <mxCell id="LNALhKh-zvmf5X7zv8Wf-1" value="" style="group" parent="LNALhKh-zvmf5X7zv8Wf-56" vertex="1" connectable="0">
          <mxGeometry y="65.36000000000013" width="450" height="460" as="geometry" />
        </mxCell>
        <mxCell id="LNALhKh-zvmf5X7zv8Wf-2" value="Confluent Kafka Tech adapter" style="rounded=0;whiteSpace=wrap;html=1;fontStyle=1;strokeWidth=2;fontSize=13;verticalAlign=top;fillColor=#dae8fc;strokeColor=#6c8ebf;container=0;" parent="LNALhKh-zvmf5X7zv8Wf-1" vertex="1">
          <mxGeometry y="35" width="450" height="405" as="geometry" />
        </mxCell>
        <mxCell id="LNALhKh-zvmf5X7zv8Wf-3" value="A&lt;br style=&quot;font-size: 13px;&quot;&gt;P&lt;br style=&quot;font-size: 13px;&quot;&gt;I" style="rounded=0;whiteSpace=wrap;html=1;fontStyle=1;strokeWidth=2;fontSize=13;fillColor=#dae8fc;strokeColor=#6c8ebf;container=0;" parent="LNALhKh-zvmf5X7zv8Wf-1" vertex="1">
          <mxGeometry y="20" width="29.61" height="440" as="geometry" />
        </mxCell>
        <mxCell id="LNALhKh-zvmf5X7zv8Wf-4" value="6 - Report outcome" style="shape=process;whiteSpace=wrap;html=1;backgroundOutline=1;align=left;fontSize=14;spacingLeft=6;container=0;" parent="LNALhKh-zvmf5X7zv8Wf-1" vertex="1">
          <mxGeometry x="47.36842105263159" y="360.64" width="379" height="40" as="geometry" />
        </mxCell>
        <mxCell id="LNALhKh-zvmf5X7zv8Wf-7" value="4 - Assign Read+Write permissions for topic and Read permission for all groups to owner&lt;br&gt;(requires a mapping between Witboost identities and Kafka principals)" style="shape=process;whiteSpace=wrap;html=1;backgroundOutline=1;align=left;fontSize=14;spacingLeft=6;container=0;" parent="LNALhKh-zvmf5X7zv8Wf-1" vertex="1">
          <mxGeometry x="49" y="229.64" width="377.37" height="72.36" as="geometry" />
        </mxCell>
        <mxCell id="LNALhKh-zvmf5X7zv8Wf-8" value="3 - Create topic" style="shape=process;whiteSpace=wrap;html=1;backgroundOutline=1;align=left;fontSize=14;spacingLeft=6;container=0;" parent="LNALhKh-zvmf5X7zv8Wf-1" vertex="1">
          <mxGeometry x="48.370000000000005" y="181.64" width="379" height="40" as="geometry" />
        </mxCell>
        <mxCell id="LNALhKh-zvmf5X7zv8Wf-12" value="1 - Validate provisioning request" style="shape=process;whiteSpace=wrap;html=1;backgroundOutline=1;align=left;fontSize=14;spacingLeft=6;container=0;" parent="LNALhKh-zvmf5X7zv8Wf-1" vertex="1">
          <mxGeometry x="47.36842105263159" y="84.63999999999999" width="379" height="40" as="geometry" />
        </mxCell>
        <mxCell id="LNALhKh-zvmf5X7zv8Wf-13" value="2 - Extract descriptor metadata" style="shape=process;whiteSpace=wrap;html=1;backgroundOutline=1;align=left;fontSize=14;spacingLeft=6;container=0;" parent="LNALhKh-zvmf5X7zv8Wf-1" vertex="1">
          <mxGeometry x="47.36842105263159" y="133.64" width="379" height="40" as="geometry" />
        </mxCell>
        <mxCell id="r0F_0Ut6h9pmI_h5i2o5-1" value="5 - Register schema (if defined) to schema registry" style="shape=process;whiteSpace=wrap;html=1;backgroundOutline=1;align=left;fontSize=14;spacingLeft=6;container=0;" parent="LNALhKh-zvmf5X7zv8Wf-1" vertex="1">
          <mxGeometry x="49" y="308.64" width="377.37" height="45" as="geometry" />
        </mxCell>
        <mxCell id="LNALhKh-zvmf5X7zv8Wf-9" value="Idempotent, i.e. does not fail if something it provisions already exists" style="shape=callout;whiteSpace=wrap;html=1;perimeter=calloutPerimeter;flipH=1;spacing=4;flipV=1;fontSize=14;position2=0.64;base=25;size=30;position=0.56;direction=west;" parent="LNALhKh-zvmf5X7zv8Wf-56" vertex="1">
          <mxGeometry x="256" width="250" height="100" as="geometry" />
        </mxCell>
        <mxCell id="r0F_0Ut6h9pmI_h5i2o5-3" value="ZooKeeper&lt;div&gt;ensemble&lt;/div&gt;" style="rounded=1;whiteSpace=wrap;html=1;" parent="1" vertex="1">
          <mxGeometry x="730" y="156" width="120" height="60" as="geometry" />
        </mxCell>
        <mxCell id="r0F_0Ut6h9pmI_h5i2o5-8" value="" style="group;labelPosition=center;verticalLabelPosition=bottom;align=center;verticalAlign=top;" parent="1" vertex="1" connectable="0">
          <mxGeometry x="582.5" y="236" width="415" height="220" as="geometry" />
        </mxCell>
        <mxCell id="r0F_0Ut6h9pmI_h5i2o5-5" value="Kafka Cluster" style="rounded=0;whiteSpace=wrap;html=1;labelPosition=center;verticalLabelPosition=bottom;align=center;verticalAlign=top;" parent="r0F_0Ut6h9pmI_h5i2o5-8" vertex="1">
          <mxGeometry width="415" height="219.99999999999997" as="geometry" />
        </mxCell>
        <mxCell id="r0F_0Ut6h9pmI_h5i2o5-4" value="Broker" style="rounded=1;whiteSpace=wrap;html=1;labelPosition=center;verticalLabelPosition=top;align=center;verticalAlign=bottom;" parent="r0F_0Ut6h9pmI_h5i2o5-8" vertex="1">
          <mxGeometry x="17.5" y="33.930348258706466" width="120" height="152.13930348258705" as="geometry" />
        </mxCell>
        <mxCell id="r0F_0Ut6h9pmI_h5i2o5-6" value="Broker" style="rounded=1;whiteSpace=wrap;html=1;labelPosition=center;verticalLabelPosition=top;align=center;verticalAlign=bottom;" parent="r0F_0Ut6h9pmI_h5i2o5-8" vertex="1">
          <mxGeometry x="147.5" y="33.930348258706466" width="120" height="152.13930348258705" as="geometry" />
        </mxCell>
        <mxCell id="r0F_0Ut6h9pmI_h5i2o5-7" value="Broker" style="rounded=1;whiteSpace=wrap;html=1;labelPosition=center;verticalLabelPosition=top;align=center;verticalAlign=bottom;" parent="r0F_0Ut6h9pmI_h5i2o5-8" vertex="1">
          <mxGeometry x="277.5" y="33.930348258706466" width="120" height="152.13930348258705" as="geometry" />
        </mxCell>
        <mxCell id="r0F_0Ut6h9pmI_h5i2o5-10" value="Partition" style="rounded=0;whiteSpace=wrap;html=1;" parent="r0F_0Ut6h9pmI_h5i2o5-8" vertex="1">
          <mxGeometry x="47.5" y="55.82089552238806" width="60" height="32.83582089552239" as="geometry" />
        </mxCell>
        <mxCell id="r0F_0Ut6h9pmI_h5i2o5-11" value="Partition" style="rounded=0;whiteSpace=wrap;html=1;" parent="r0F_0Ut6h9pmI_h5i2o5-8" vertex="1">
          <mxGeometry x="47.5" y="99.60199004975124" width="60" height="32.83582089552239" as="geometry" />
        </mxCell>
        <mxCell id="r0F_0Ut6h9pmI_h5i2o5-12" value="Partition" style="rounded=0;whiteSpace=wrap;html=1;" parent="r0F_0Ut6h9pmI_h5i2o5-8" vertex="1">
          <mxGeometry x="177.5" y="55.82089552238806" width="60" height="32.83582089552239" as="geometry" />
        </mxCell>
        <mxCell id="r0F_0Ut6h9pmI_h5i2o5-13" value="Partition" style="rounded=0;whiteSpace=wrap;html=1;" parent="r0F_0Ut6h9pmI_h5i2o5-8" vertex="1">
          <mxGeometry x="177.5" y="99.60199004975124" width="60" height="32.83582089552239" as="geometry" />
        </mxCell>
        <mxCell id="r0F_0Ut6h9pmI_h5i2o5-14" value="Partition" style="rounded=0;whiteSpace=wrap;html=1;" parent="r0F_0Ut6h9pmI_h5i2o5-8" vertex="1">
          <mxGeometry x="307.5" y="55.82089552238806" width="60" height="32.83582089552239" as="geometry" />
        </mxCell>
        <mxCell id="r0F_0Ut6h9pmI_h5i2o5-9" style="edgeStyle=orthogonalEdgeStyle;rounded=0;orthogonalLoop=1;jettySize=auto;html=1;exitX=0.5;exitY=0;exitDx=0;exitDy=0;entryX=0.5;entryY=1;entryDx=0;entryDy=0;dashed=1;endArrow=none;endFill=0;" parent="1" source="r0F_0Ut6h9pmI_h5i2o5-5" target="r0F_0Ut6h9pmI_h5i2o5-3" edge="1">
          <mxGeometry relative="1" as="geometry" />
        </mxCell>
        <mxCell id="r0F_0Ut6h9pmI_h5i2o5-15" value="Schema Registry" style="rounded=1;whiteSpace=wrap;html=1;" parent="1" vertex="1">
          <mxGeometry x="730" y="506" width="120" height="60" as="geometry" />
        </mxCell>
        <mxCell id="r0F_0Ut6h9pmI_h5i2o5-16" style="edgeStyle=orthogonalEdgeStyle;rounded=0;orthogonalLoop=1;jettySize=auto;html=1;exitX=1;exitY=0.5;exitDx=0;exitDy=0;entryX=0;entryY=0.5;entryDx=0;entryDy=0;curved=1;" parent="1" source="LNALhKh-zvmf5X7zv8Wf-8" target="r0F_0Ut6h9pmI_h5i2o5-4" edge="1">
          <mxGeometry relative="1" as="geometry" />
        </mxCell>
        <mxCell id="r0F_0Ut6h9pmI_h5i2o5-17" style="edgeStyle=orthogonalEdgeStyle;rounded=0;orthogonalLoop=1;jettySize=auto;html=1;exitX=1;exitY=0.5;exitDx=0;exitDy=0;entryX=0;entryY=0.5;entryDx=0;entryDy=0;curved=1;" parent="1" source="LNALhKh-zvmf5X7zv8Wf-7" target="r0F_0Ut6h9pmI_h5i2o5-4" edge="1">
          <mxGeometry relative="1" as="geometry" />
        </mxCell>
        <mxCell id="r0F_0Ut6h9pmI_h5i2o5-18" style="edgeStyle=orthogonalEdgeStyle;rounded=0;orthogonalLoop=1;jettySize=auto;html=1;exitX=1;exitY=0.5;exitDx=0;exitDy=0;entryX=0;entryY=0.5;entryDx=0;entryDy=0;curved=1;" parent="1" source="r0F_0Ut6h9pmI_h5i2o5-1" target="r0F_0Ut6h9pmI_h5i2o5-15" edge="1">
          <mxGeometry relative="1" as="geometry" />
        </mxCell>
        <mxCell id="r0F_0Ut6h9pmI_h5i2o5-19" value="Kafka" style="shape=image;verticalLabelPosition=middle;labelBackgroundColor=default;verticalAlign=middle;aspect=fixed;imageAspect=0;image=data:image/png,iVBORw0KGgoAAAANSUhEUgAAAJoAAAD6CAYAAABZC15NAAAABGdBTUEAALGPC/xhBQAAACBjSFJNAAB6JgAAgIQAAPoAAACA6AAAdTAAAOpgAAA6mAAAF3CculE8AAAABmJLR0QA/wD/AP+gvaeTAAAAB3RJTUUH6AwIDRcC1dKASAAAJ59JREFUeNrtnXlgHWXV/7/nmXvTpEmbrdDS3tyZu7QpBFkMuyxhe0FkUfYdFEUWFX6K4PYq+lNEXHADBF9AWxAELJuyWwqUnVpEim16l5mbtKWUZmvTLPfOc94/kvpWSdok88zMvWHOPy00eeY5z3zmPOc8yzmEIpFIJFJXHgodAuYmBuYTUyMTZgCoBlAJIAygB0APCD3E1CqZWwXoHY3ki6ssK4tAilbIz4fHYrE9hZTnAHQUgD0BCAfNmQQsZvADact6CoAdvN4PMWhNOzVV9VX2fpYYnwawh0uPWQfQH6TAr7LZrBW85g8RaNFotDYE8UUifAlAvUePzYNxN4fEDzOZTGvwuic3aJSIxs4D8U8A7OSPmlwA0c0UCv13KpXqCV77JANtrq7vKkG3AziwSPRdQ5IuS7VlHwle/SQBLRmNncckbwaoqgi1vq28svKLK1asGAwQKFHQWoBQm67fDNDnilpxxmsFgZNM03w3wKDEQEsmk1M4X/gDgJNLQXkGsrDFMZn2zOoAhRIBrWmnpqr+qZsfB+jgEhuD9ZDaUem29NsBDu6JUNFIc3NzuL+i94EShAwAZkLYTxqGYQQ4FDdoomvDxoUgHFPC4zBbYzwxb/a8GQESRQpa0jCuAeGMSTAWjXZ48I8AtAAL9aI5hOwAZiyYRC8nVldTPdjZ3f1CgEaRBAONjY3TCn0DK0BomFxDwgVBdPBq03w1wKMIpk67b+B7kw8yAKCQZNwcTKFFMHXGYrE9Cfw/AAl3u8cFgHIApQFaR0Pn0aZi6Gyam7JLXU3ths7urtcCRHycOhO68TiAY13q0T8Y+ANs8UzF9Iq3RtgmongkniTBLQw+lQhHumR9NpZvqTRWbFixOcDEB9AS0WgzSLzhQl+eFYKuXZ3NPj9O69ooJF8H4FNQvqVGV6et7I8DTPwATTf+BKVbTLyZWFyaymXvchQB6/qBzPR7EOYqHJ93B+xCvL29vS9AxcNgoLGhYTaAkxRC1g7mFqeQAUDKsl7OQ+4P8DMKx2dWmaZ9KsDEY9AKInSOQn/oHYRCzelcbpkqZXK5XGeDZX2cQHcrM/lM5weYeL28QXyeKkebpH1iOp1+T7VCS4ACwtpFAF5S5Fwcpev6LgEqHoFmGIYBxkcUPNMG+LRUW1vaLaVSqdSAFHQywO0KmtPCwHEBKh6BJpiPUBR9LEhb1rNuK5bNZtcD+JKKtiTQEqDi3dR5uILn9XNI+45XyqUt60GAXnT+cdCRASpeWTTQPgrM2W3pdLrNSwVJ4gYFzeySnJOMBLi4DFoLEGIgoeBhd3qtYKQt+xgAx0GH1AYbA1xcBi0Xj8fheH+R21eb5pteK7gEKAD8pPOREvMCXFwGjQusK5jElvqlJEE877wNGAEuLoNGJKc7fRAz/umXksy282dLTA9wcR00mqYgclvnm0Vjdnx3U8UYBKDt+EVNVTD1+LYxbYdCjo/6MLgywMVl0AAMKHCUyv1SskzKqQqa6Q9wcTsYIOp1/ii5s19KSiLHz2aoGIMAtB15092OXxSRb+tQUip5dneAi/s+mvOsicwH+aYlScc36IlhBri4DFq/lFkA7PBVJePx+DxfdGRyfL+BQUEyZrdBGz7K7Niqkc0XeK1gQtdbVFwLJEkrA1zcjzoB4BXnj+MvJhIJj4MC+paCfr+fbk+nA1w8AI1ZBWiYRnn7614pl4zGToCK401ELzl3HQLQxiQa8VMqHsiEy2Kx2J5uK9bY2DiNhxI0Kwhb6ZkAFY9AW21Z/yRAhZ9SJiQ/7PIUKgoDA3cBUBF8MMLioQAV73w0MGiRoufqKMhFs2fPnuqGUgldvx6ME9W4eHjD68OaH3rQNLZvByDVPJo/NjVc9lIsFtNVKZNMJqckdeMOgL6qbIQk/TbARMX3Ol5rETWeUJzd8V1meW4ml/urk0bmRaNxm8RdUFvToKuyvy/y1vr1JbH91NTUVDa4eXNCAvMJ2EUyTQNQLQQEMw8yU68g2mgzLGhozWazOa+CnHGDFovGjhaKAoP/6MpfIMXXxpu0eN7seTPsssFvgXEpgDLFo3ND2jSvKVaw4vF4tZCyhYEjMHRLbT5AoXE0sQXA68xYDIjF0VzmlSVAoShAA4CEYTwPxiEu9McG6Ali3FsQ/MxoNQD2mDmzsrei4hBinMbAqYArhxJ7woV8fOWaNRuLCa7m5uZw94aOY1nweWCcACg9FbOeGPeAeEHKspb7DlqsIXaIEPwc3K4lxWgDIQNgIwg2ATXM0AHE4HKONGZcm8mZ3y0WwGbPnj21IlT2WQBXeZQA8SUGX5exrMdUTK8TBiURNX4HwgWYlMKpAdveo0iyCGmJaOwyEH8LgB9HrZYT4csp01ziC2jzZs+bYYcH/gnQZEuZzszyaKfBiQqZaxj7S8YtAPb2fUzAd0uir060pNGEU4O2rm19n4ELMNm2Zgi/KgLItKRhXCsZLxYBZABABDpXY7wd1/VPTEghJ0/v7O5eXVtTU03FUybR6Yf7BoXDZ3V0dPhWJlvX9V1m1NQ+DOBCKKpso1CmEuisuprqqj27u581x7Gm6jjXWTyZWNzf27cfCMkSp2ydTXRsJpPxLco0DGN+CPQchurLF6/NBx3UU1PbXFE59aFNmzblXfXRtpXGxsZphf6B54rEzE9oKYPALapD+nF9sA3xfUjIx+BbleYJEMd4TRTKPtG6tvV9T0ADgEQisTMV7Ke4uL/GESGTko7PtmV9q5Yy1zD2kowlAKpL0d0o31J1+I6ylytdB4tEInVTQqEnwNi3REZpI0vx8Uxb5nW/OpBsaEiw0JYCmFWy8RPh6SmVlcdvr6Kz0vz8PT09fRVTp94dDmnzADQVd3CJlTbhmGwu+5Zv02U8Xg3geYCiJe7fJuzBfKSju+thT0ADgE2bNuU7u7oeqK+tGQD4MPerq0zE2uNhKgt9IpPJrPGzG7XTp99FpVnjdCTZu662xurs6nrT9alzJAdXCLmQgflF5PR/OWVZd8Dn9b+krl/GoJswiYSBXsFyv1Qu947rFm1b6ezpXDt1WtUdIaH1M7A/qT5dMZ4xIDzAmvhU2uFWiqLAqQFSPgRQ2WQCjYAykNirs7vrTk9BG/bbCp3dXc/vNK3q90yiEoTdAYQ81H8Jgc9JW9aNnZ2dRXHbvG569Z0A7YnJKdHaEaZQ8roXhmHMEhJfIsKFANzK3z8A4EGW4qeZtswbxfQW3DvP939uMoGfA/CyBFYR0CmF2Ew2TSch5xCwKw8d8drfRUOzgcKhZCqV6vENtG2tacIwjibG6QwcA2C2w/b6iLAUzH8cZF6Uy+U6izI80/UX4EIAQIzXWODGgULh4bGcOtF1fZcw0YVgXMVAnXJfhfD1jGleXwyg/btzbBjHMOOJCfzqOoDPsYleNk2zqFNLJQ3jMB5amFUpORCuSJvmQxOa56LR2rAQXwPjS1B7iPK9vvxgbO3atVuAItq0lQWRmWjMkbasZ4sdsqHPnK9S3OLiAbuw90QhA4bqZ6VN8xqW4lAAaxX2befysrJ/nVcUCMQb3ywWm8kqi+kybq2ZUX9se3t7h4rmMm2Z10PS3hfgNxT2MQDNc4dUynPGeXFke+sI96dz5qXLli3Lq+zjqra2tQO2fQzAKUXLHfsbhjE/AM1L1wB0uiqnf6BQcO3AaXt7ewcxfxJD9eudf2BMpwWgeSTxeLyagH0UNNVva3S623cZUrncCgb/P0Xz55EBaB6JyPNhULJmxb/KZrOWF33OWNbvGHhTQVMH7jFzZmUAmhfBppAq1s26Bmz7ek9ne7CC3HIo6y0v3y8AzRMhBUemeKGqCHMcVu0vAFoVBAW7BqB5Y9Ocp89i/qMvPWf8yXEbRI0BaC5Lc3NzGKCYw1e1uWannV7zxRYTO09CyJgXgOaydHd31zgNBBi0QvWa2VhlwLadBwSE+gA0l0XL56sU+Di+pZ4f9gu7HPWfMS0AzWUZFMJ5VTz2vWpLt7PuB6B54uYEQxAs2HrgTFOfAlT9vu9Z4/BL2xSA5rLYtr3JMWeMuF/9nz9nTj0cXmxmCkBzXSzLWg/AUcQoCU1DyyQ++JiatpcCH3Nj8Rx8DMkJLgFwmVtp5FWpBsDR/VECKjs3dO7vj28ljlIw9beG/Br9aDRaWwbtKEl8IAEHgPHRCWqRrAiHu5O6sYLBrxPwCgrhJ1NrUu1FBNs7AAxnvp59BoClXruYTDjNeSO8ytOIyDCMWSHmkxn4FECHwb08tAzwMkA8TGwvGulCq5cSjxrXEcFpDayuAbuQ8HK/Mx6NH08kH3UeEOFwT0BLRKPNILoCoDPhcpLjUVRdBsZttuAFftwtSEZjJzDxI86/HvpZxsp+xaNuawldfxOg3R22MzBgF2rdBI2S0dgpLPjbYHykSKawdwH66YCdv8nLRMjJZHI65/MbFRzlHgiBd11lWa7vFCT12GcZrKJqzJK0ZR7uSjCQNIxjEnrsdSa+v4ggA4BZAP94ihZanYjGLvYqkpP5/MEADSpoakoBuC8SiVS4OgM1JHZn8M8U2Zu/Dgc06mReJDLHFqGbQDipRFYf3iHCRSnTfMWNxmfPnj11arjsJwxconis701b5tlw4d7AULb1wVcBJWt3zLZozLRnVqu6Ek9JXb9cCm0RqKQyPu4E4DN1tTV1DVOmvLC+t1fZCYl4Q3yfcEg8iaErdqpdlN3ramt2iScST65bt04qNRQh/AXqctu9mmnL3qDEokUikbopWngBwJ9ASQunpBCnZLOOE/NpCV3/GkDf8SDwWaLly04bSw7ZHclwTYMHoTAfChMuzZjmbxyDNpzg936na0RFJFsY/LmMZf1hIr/cqOuxAsRCgD/mYZ/XEug7KSt7JwB7gobiGwB/AcAUhf1a35cfjG9NiTBh0OK6fjKB7obafA1FIvTTtJX96nh8oIRhXAjGLwFM86nT7zD4uv58/sGtL3eH06SmXQjQVwDUqp8gcE06Z97wrxGdUFQSjV0M4pvhQX41/2ZS/D6dMy/akZWYP2dOfSFUdiuDTymObqOXgOcAepkYqyTsDk2IzbYU0yBkAzHvSkyHMWEfuHd6571Q+ZTkqlWrNk0YtHjUuIYI1+NDIAT605SqqWePlm16OAPSHXCecmuyDdyFadP8/b//r/FAZhiXEuPmD9mwLUpb5mnYphxNJBKpmKJpPwLoCwgONv4nZC+kTfOw/3Q7xjz1JQzjTGLc/iEc2F3raqrrOru7HweApK7vrQntCYCODyD7wMS92SY6saur6/0P8jcWyHT9IICehX/Jjv0fQsbXAIAI3/swj8N2jRnT+alcduHIhm4HYhjGLI2xLPBDAtnBp/g/acv63Gj/ut2oowUICYk/BpC5uywBhwcji0CeqJkx47Lt/cB2QWvTY18nwqEBCy6tRBBuq+zv249tcTjUpvX00vl/vXxL5Wk7uuA86tSZjEZ3YxJ/g9rV4kCGZB0RPp0yzSf/Y7yfhT910yf6rSzNM584lgzoo4EmErqxFL5UFuYCiJaD+e+AaAVjPZPsFUQFyVxJLOpBci6AXQEcAFBViUG2SMuXfX6k/cnhSnePANitBCzZIwOFwpljPdc3Imhxw/g0DS1EeiUDBPozQ95N4fBfty2EsD1pbm4Od7zXcYAQ8nSAzgJQX8SvZhODr8wM1aEaVeLxeDXZ8h4AHy9SPSQzfpTJmf+Nceyt0ghRZrnGWAXAi9J+PcS4mcPajel0+j0nDSWTySmyUPg0GFcTECuyl/OSxvK81lxurCnutXjUuIoI16K49pI3gHB+2jTHXQ/iA8GAxny5J5AR7peC5qVy5tedQgYAqVRqIGOav6mdUd/IjCsB3lwEPkyBCD+qmVHfMg7IAMDO5MwfEctmYrxWBIAxwAsR0nafCGQfsGjD1iwHd+t6b2QWF2ZymT+7OTLxeHyesOV9PpbebmUpzlVQ3VgkorFzQfxd+HEci/A6S/HlTC7j6Krfv1k0DTjTVcgI/0BI29ttyAAgk8m0FggHALjH86+f8ZvK/r6PKiqhLdO57ILyqspGgL6oqgbAWCJKIhybNs39nEL2AYuW0I1lwEQv8u7YT8mzPN6HYmAioes/H3pJrst6ZvFZlz8kikejR5AQF4NxAgCVF1XWMegeFliQzWb/rtbGbHWmDeMAZrzsjiHD36UmDstkMn7l+aK4HvstgS9y7fsnPEqa9lkV/uZYJRKJVJSHQodC4lhJaKGhJZ9xrHvyZoBeG9rHlovTlvUqJnBKd1ygJQzj52Bc4cIz1hXAzZZlrfPTm20BQu2G8RgzjnZhslydzpnz4L9o8Ug8TiHZBEk7A1wDoulEHAIwwEybCbJDsmZRmFal0+k271y94T8TumG6EG1KZnFMJpd5pgheAhKJxM4o2Mvhwt5tCBz34mJvqYoYnjb3d2VJg/DrYoEMANLp9HsgXO5G2wWmEwKcdhx1HutC2++yEN8uNoWHalvSX9R/VByAtiPQmNVfD2PCj3x0/rc/nwt8E8pvedNBLUAoQGp00DSAFCd54/er+vp+W6xKZ7PZvxNYtVWb2q7rewRIjQJaLBbbHarvIhLd/db69b1FrbkUbnwIBwZIjQKaYN5VvbvCC4pd8eqd6x4H+H2Vbfq43VUCUydzQnGb76Usa3mxKz50IpQUR8QiHiA1ysgQSPXgLIZLZZiVC9NixQ0mAqRGAY1VnwhgLC8d9e2/KW6wIYg8R406SWlVDmJaWSrKhyoqWhVbX800jKoAqxFBY6U5+pnskrk6NpyEROlan6Zp0wKsRgwGoPQL5FBoU2kNgdqTuLZtVwZYjQQaqb3eL6UcLLExUJoOnoiCdAmjBANbVDYYkrLEvmhSOtVphUJvgNUIoBFB6dTBDkvueU0ZgOkqGyxoWgDaKD5ar9o3p5XMouW8SGQ21B6FRmVv5eYAq5EsmuJtGAn1W1puSUGI+Yqtee+KDSsCizaij0aUUdkgEQ4qIfUPVjwPp1EquyKeT50SacVtHlDk9TO3lSMUt5cJkBrVoim/Jziloqys6E+b6rq+CxEUH/jk1QFSo4AWlvJN5a0yzi92xcPAWVCcvp5YvB4gNQpoq9ra1jKg+vbOsclotKlYlW5ubg7LoYzaagdT5l8KkBrNRxsyQS8qn5KFuLpYle7auPEcFzIOWa3t7WsCpLYDGrF4wYXp89x4Q3zfYlO4sbFxGhjfV90uDZ3DC2R7oBWG6mZL1W2T4Fu8Kr46VrH7Br4HYI7yhiU9FOC0A9Asy1oHwovqm+fmro0bv18syiZ0/eNM+JILem7u5/zTAU6jy/+dBpV4AIRDXJhCv5qMxl5P5bIP+KloPBKfC8iFcKPQFtE/29vbfT+1Mn/OnPpCOLy7BHYlpp0AOR1E05l5KhFtIaCTmXoZMgOprRJTROtY07gqcC2GJBaLzRSSLbiThXsA4OPSluWLH6Pr+i4a6EV3U47yUpvoPNM0TS/1ChEdA4ljQWgBMHMCzbzDw9mEwuXlT29bkc4V0IanlgUAnefSuGxhFmd4kYRvWxnOdP0kAC8ujvQQ0+WpXPYutx5gGEa5YD6FiD4PxsFQW49qCwEPMWFh2jSfUum3/1sn4w3xfUlIF3OmcgFMX0nnzF/Bgz3BpGG0MOPeCX7pTuRem3CpaZpdCgGr0ZiuAvgSeJN9vBWEH9bU19+9o2IV4wZt2Kq9ANDBLivxoE24zDTNd10BLJmcgkLhG8z4JvwrXpsjwvkp03zOSSOzZ8+eWh4q+6IgXM1AnQ96WMR0dSqXvU8paLGG2CFC8PMeKNAFxneoLHRrKpUaUOb06/pxBLoRQDEkxpPEuGHKtMrvjFZcdnsy/C7u9Gja3/5cxHgKUnwh055ZrQQ0AEjq+qM8VI/SC1kD8I0UDi9IpVIbJuq3aMBJYL4KoH2KL7inZTbxuaZprhyrPoJxHQFXwL1y1BPy4UC4PG2av1MCWqIhsTtEYTlAXl6GzQN4GownWYpna2fWrtyebxCLxXTNxqEs+CgwTkTxHyHfwoSvZEzzN2OIkB8kYP+i1YSwoG9w8NK1a9ducQTasCN9PTOu8VGdPIY2+9cBtBnMBRBVgXhnZsQJKMlrbUx4VIRCF41kvZO6vjcDjwAUKQFVxpVlnbY7HTHeBNCIQFTLuwB/Jm1Zj2/zYR/AjKegOoWYu7JCswvHjOUwwXbXYOLR+MFEcomPkdtkFgb4pgHbvnqKELuBxDMorRtkWwFaKfJlh4xUrW/MoA1/aV9nxnUBF67JOwTM8mnpQtUX82pVf9+R20u+uENL1dHV9WJdTc0eGCqW8GGWQZcs+05QfOXPB6sWyYfCu3V2d4261jaW0JkpHLoQQ7W/P6yyicAHgunzDATX6UaWT8YN44oJT51bZV4kMsfWQkvhR4U1ny2ZZDo+m8s+DQxVzSPbvrs41+v8HyuW4uCRiq2NeTGwtb19DWzt6KGI6UMjNoM/vRUyYKhqXs2MGQcBdB1cqptUwlIGIW9rGSEZ4bh3/pPRaBMTPVEiaz2Ovk5iOjeVy94/2g8MbxEtBKAHjG3jazGuzOTMXzgCbXj6iJItn5jEAcIWEE4ZS7XdeDxeLWx5MwNnF0kI2EaEpwF6mQRa2bbfF0B/XtOmCeZdiHk3ZjoUxEcC5FZ2yp5wIR9fuWbNRkegAUOnOfOh0EMenPTwWtYQ4dSUab4yro9P188m0M0Aqn3BC/QYIH+WtqwlGMM5sj1mzqzcXF5+BoG+7Y5F5v+ftqxvOwYNGLof2fV+xw8B/jLUHsDzS55FSDtzojU3Y7GYTjYvIMKhHjL2NpgvSedyE7rzMbQDRF8A+FuKP5Iu1oSxtUyTEjiShnESGHeU7qIjFwBxQ9rKfluBg68lDeNqZnwXgKs3wBj8QH8+f8F4Nre385E0CsmPQOHxKiJ8OWWaN0KlFTIMY5Ym8XMQziglxAj4O7O8KJ3LLVPZbrwhvg8JeRdc2yvm7w9PTcpOKkej0dowafcDfKSqsU1Z5l5KQdvGVzkOoF+7exFEiWxiwnW19fU/VXFUeTQ/qLei4mdgXKzWktFNGSv7BTf63LRTU1X/1N4XASgpoCYF7ZnNZt9SvqXS2d29enZkzi35fH4dAXtBcepOBdIH0C+1fNlpqbb0U+vWrZNuPWh9b2++s6vrz/XTa5eD8CkoKXbBz0Qt8zxT/YVvAMCGLRsGq2trnhDAOVBwFIuYOjq7uxa76sAbhlGuSVw8XPXX16PVBHQw+A7Ntn/udY6MSCRSN0ULbYDj07K8WQqRzGaz693uczIaO42J71PQ1MtpyzzIq0iR4tH4kUTyUgDHA/AqRToDeBWEW23gXtM0+/2APK7rJxPoT46VYVybyZnf9eyd6cbLzk/6ciFUXl7n1VFtHq6t/kwymZyOQftYJv4kgI9D/RmsQSI8B+aHUAg/klqTai+CgOMABc28V9FX+VMvQ3FB+BoznnWofWiwb/AAv9e+RDIa3VUS7T/0MugcAONPS8p4mASeY+ZXbaK/+WW5RrVoUeNJIvyXw/f+47RleZ4KLKEbbwNwluuOcYXfldhkKpdbAWAFgDsSUaMFhLnjbcQWuNLLVAQTsGiOt+pYavf70Xdm3E/kDDQmahQIxFVpAUIgzHbYTHemLfM3f0BzXtNUEM8NQHNZ1kYiM+H8ZO4K+HQkicL0lnNYuTYAzWXJh8OOT0gQ4JtbkMlkugnocKjBtAA0lyXEXOHcIsDX0pQMOM2hNj0AzWWxC8L5lCd8PhnDTqd+tgPQ3A6rQ1KFNarxOWx2+HzaFIDmspTn885BY/Itm1AikdgZDm/PEyMAzW2ZtWZNN4byiDghrckwjHJ/5n77o86/E9oQgOayLAEKw1XvHBlGIeXH/Og/Mx3t3MXj1gA0L14WodWxm0R0pg9dF8R8muO+M60MQPOGtLedWwU6S9f1XTz1zwzjNBAaFPT9nQA0L4I2cp6qlYDKENG1XvW5qampDMwqipFsEWXi9QA0D2RqX99SDCWJceowfcarqoEDvb2XA5R0/pHhxVQqNRCA5oEMp3N6WYFtDIHEA/F43NW7o8NJAX+oKJh4GiiuRLyTPSC4V0k7wHwU5H0tSu4ffFAaGxpmM+MBqKmgwzbx/QFoHkpByj8CUJLmngj/1aYbf9xj5kyleXxjsVhjQWjPQl31v+e2nhMMQPNIcrlcJwgPK2zy5M3lFUvj8XhUUYR5rJD8ClReIiL8butfA9C8jD6Zr4fCC78E7EW2vSJpGNc3NjZOaJsoOScZSRjGrWD8GSr3VBlt5ZWV92z9z6JIgtyo67HamrpTQTgJE0izKcCb66qrezq7u9fDgxpTE5WO7u5362pqDgCQVIhvGYCDZcE+v762hqtra7NdXV07zEoZi8X2qK+p+QaE/D2GbjqpNTpE31q1uvXlbT4Kf2Qo14M8B8BZKsLoYdkI8CIhxF2rs9mlcOmSrYKI7iUXx94GeDmAV8CilYD1kqQNoJyY5gDYDYTD4G7mzpxNaNz2kpDXoIlkNPYJCb7Kg4w7aQLfuCWfv1NFEhSlsOnG7Qx8ZtJG2OBTMpa16D+meW8kruufINCP4PTq1vjVfp+JflBbX3+TWzk2xivzZs+bIcODq0o55ft25PG0ZR43gj/pMmCR+FwI+Wvn9xodSysIV4wli6MXkjCMM8Bq1taKJtgBOqQm9s5kMrn//Dc3gwFKRGMXk5CLiKgYUpDWAzi3rqY6sfOsWc9s3LjR1xronV1dK+qqa3YBYbJk92YQzslks6+OAqELViweryZb/gHAcUU6Jili/uTw5WXfZLje1osAPlrymBFuSJvmNduxdsohm0e2fATFX6xsE0k6N9WWfcRn2GZpjKUoguKvDuTetGWes70oX+naSSwW25Ns+QJKoyLeNBa8KGEYF/jZCdM03yVpH4OSrd/Az5RXVV6AHSwlKfPR4g3xfQT4rwBmlNAoCQAn1lXXvtvZ3bXMr0509PR01tbXPUrMJ6CEKtwx4dH+fP7UTCbTP5aBdh6uR6NxEvLPAGpL8JMUIL4lGY2d6mcnMplMq004kIE3S8QnW1BbX3/KWNcoHftow/UGXlG4uu+X9IPlURNNo65KksnkdB4s3FbESacHmXBNxjR/gXFs9zkFTSR049HijS7HLWsR0vaeaJ0BpUGVYVxCjBsBlBfL4DCQZUFnZrPZ1ybiozgZjKsnEWQAMBt5ewGK4FRLxjR/A1v7CIDHi2Bc8iDcUNXf95GJQObIoiWj0d2YxHJ4l4/WS//jkrRp3los3RnOgft9eF97iwF6jNi+OpXLveNsSCf4ewldf34S1oHaKl02YVfTNItpyUEko7FTJPE3htPquykSwEME/n7Kspar+XYn9oWdQ6C73PYHAF4miNJSohMAhMBUBgwwPgJgTzenOALuTFlmUZ6wGKrKYp8P0JkYKpWtSlYwY6GwQ3erTjI9btBagFCbrv/TpShzLUC3aGz/oTWXy2zvByORSF25Fj6ZgUsAbnYB9QJrWlMmk2lFkUoLEFpjGM0MHCElWoiw9zjAkwxYBLwKpsWQ4tl0ezrl4oc7bmv2GQLdrrgfPQDf0JfP3ziBs2OUMIzTwfgBFG/jEOjulJU9t5Tm/EgkUlceCs2DpAZJchoxVTFQAYEeIWkzC94kiTLM3Opl9vIJgGYsV+sj0Is28alO/aGmpqayvs1bfkbgy1VGWzYhWmS+WknKuLagkrp+IEDfVPj8ewbswqm5XK7LaUMbNmywO7u7Hqurrl0HwrFQs72mCVBPZ3fX8wEqDiOZcXktRBeqc/bp9rRlnt3e3t6nUqF0LnsbEy6AsksqfEGAibegCTBOVPTyloqwdrlbSmVM8x6AfqiouUQsFtsjQMUj0BLR6IEAZimA7H0Kh09OpVIDbiqWtrL/PVTEXoEXafMnA1S8smhELUpsGdEPUqnUBg90k1zQLoOCLD5EaAlQ8WzqFAcqeJ4pQqFbvFJuaF2If+/cn8R+LS4lVQlA++Bw76sgArjR7Snzg3Yt9EvHFg2otGKx3QJcXAZtOB/Xzk5fOZWF7vFawXRb+m0AjusZkZRzA1xcBk3YtoIVd1rukW82kil9yrlVE/EAF7enTikizt81v+GXksTiNeetyIYAF5dBk0JWKXjbq30DTSh4NtO0ABeXQSMWlc7fE3X4paQtRIeCkZoa4OIyaCzYcWgvJBX8UlJKqSAjNsIBLm4HA5I2O37Zgqt8U1KI6QoCis0BLu5bNOcV2iT8c6YLcJznlSF6AlzcjjqZuxU8aXf/tJSOn01AV4CL26CFQo6P+BLjEPiUM5ek871KJk4HuLgMWjqdblfgo9TEo/HDvVawaaemKiYc5XigmFcGuLht0Ybu9zm/pEH2571WsL9iy9kEOF6e6bftVQEu7oMGBjmuZUSgU+IN8X29Uq65uTkM4qsV+Gcr29vbOwJcPAANkM+qcJdA8ideKdf1fseVUHAzSoIWB6h4BFpZobAECvL2E+HQpK5f7rZiSV3/KMDXqmlNBqB5BdrKNWs2Alii4qEM/DwejR7pllKGYcxipocA59tGDPRWbKl6MkDFs6kTAGGhogWHkCBx31zD2F+1QolEYmeN+VEVJZqHUXtwxYYVwa6Al6CFpkz5EwO9Sl4fUCcZS5LRmLKb4HMNYy8U7NcBUpZSXQixMMDEuYxrAXXjxo2DdTXVswBSZYlCIJxcV1M9p6au7rWxFMsa0R9LJqfUTZt2hQQtJKVJT/jttGlejSIuZDYpQQOAuhkz3obky6F0lZ+aifmS+traKVOrqt7q6ekZ06XipqamsuqKqrNZyj8BdAYpztXGRFd2dnX9I8BExXLDRPwgXf8tQJ91qU+DBH6KmZ4G8RtSiHRdXV3HsmXL8vPnzKkvhEJRsNidwUcQ4UQX6ym1pi1zNwB2gIlPoMVisZlC8kqUUKry8fuQfHzGsv4SIOLT1AkAXV1dvXU1tb2YXPlrt5VFGcv6foCHX8sb20jayt4C4OVJOCadCGlXBmgUCWgAbIS0MwBsnFQzJviidDrdFqBRPKAhnU63kaTPTJbwnxi/SFvWgwEWReKjbSsdPV2r6qpr+kA4usQx+0tDzrzILMI67AFoW52a7q4X62pqpwE4qEQt2WuVA30nvNrbOxAgUcSgDcP2dG1N7QwC9isxp+zVAVk4bvW6dcHlk1IAbRi2x2qra/pJwdFpjzB7Jlxefnw2m+0OUCgh0P41jdbWWACOAYr30i2DbqqdUX/+P/7xj74AAw/cE7canqvru0rgPoB2LzKdN4Fwcdo07w1efwlbtH9Fo93d7zeUly8YDIUrCLwvQKII9H1cY3liyrJeCF79JLFo20osFttDMP8aQ3c7/RCLwV/OWNai4JVPYtC2SjwaP1iQfQ2DjvfokSYzfi4FbvWyHE0gPoO2VZKGcQADnwbjdKg/AZJnwhNC0oJILvvQEqAQvOYPKWhbxTCMco354wxxlAAfwcD8CTa1HsBiAi1GWHvYvxSmgRQlaCOAN0tI2SSIGploHiRmgagK4CoAYWZsJoFuSHSAKE0SqyTTPzPtmdXBqyxu+V+5cdASDI15DgAAACV0RVh0ZGF0ZTpjcmVhdGUAMjAyNC0xMi0wOFQxMzoyMzowMiswMDowMDb8yVkAAAAldEVYdGRhdGU6bW9kaWZ5ADIwMjQtMTItMDhUMTM6MjM6MDIrMDA6MDBHoXHlAAAAAElFTkSuQmCC;labelPosition=right;align=left;fontStyle=1" parent="1" vertex="1">
          <mxGeometry x="546" y="136" width="36.96" height="60" as="geometry" />
        </mxCell>
        <mxCell id="Me14uupGzfhTIvTDeluP-1" style="edgeStyle=orthogonalEdgeStyle;rounded=0;orthogonalLoop=1;jettySize=auto;html=1;exitX=0;exitY=0.5;exitDx=0;exitDy=0;" parent="1" edge="1">
          <mxGeometry relative="1" as="geometry">
            <mxPoint x="450" y="437" as="targetPoint" />
            <mxPoint x="540" y="717" as="sourcePoint" />
          </mxGeometry>
        </mxCell>
        <mxCell id="Me14uupGzfhTIvTDeluP-2" value="&lt;h1 style=&quot;margin-top: 0px;&quot;&gt;&lt;font style=&quot;font-size: 14px;&quot;&gt;NOTES&lt;/font&gt;&lt;/h1&gt;&lt;p&gt;READ permission for TOPIC is required if the owner wants to read it.&amp;nbsp;&lt;span style=&quot;background-color: transparent; color: light-dark(rgb(0, 0, 0), rgb(255, 255, 255));&quot;&gt;READ permission for GROUPS is required to allow the owner to join a consumer group.&lt;/span&gt;&lt;/p&gt;&lt;p&gt;WRITE permission for TOPIC is required if the owner wants to produce data in the topic.&lt;/p&gt;&lt;p&gt;Certain operations provide additional implicit operation access to users.&amp;nbsp;&lt;span style=&quot;background-color: transparent; color: light-dark(rgb(0, 0, 0), rgb(255, 255, 255));&quot;&gt;When granted READ, WRITE, or DELETE, users implicitly derive the DESCRIBE operation.&lt;/span&gt;&lt;/p&gt;&lt;p&gt;&lt;span style=&quot;background-color: transparent; color: light-dark(rgb(0, 0, 0), rgb(255, 255, 255));&quot;&gt;Permissions are defined in the descriptor for each environment to allow enforcement through policies.&lt;/span&gt;&lt;/p&gt;" style="text;html=1;whiteSpace=wrap;overflow=hidden;rounded=0;fillColor=none;strokeColor=default;spacing=3;" parent="1" vertex="1">
          <mxGeometry x="540" y="604" width="500" height="206" as="geometry" />
        </mxCell>
      </root>
    </mxGraphModel>
  </diagram>
  <diagram name="Unprovisioning" id="MOjZiPJZKdtpfGDtbNdb">
    <mxGraphModel dx="2678" dy="924" grid="1" gridSize="10" guides="1" tooltips="1" connect="1" arrows="1" fold="1" page="1" pageScale="1" pageWidth="1169" pageHeight="827" background="#ffffff" math="0" shadow="0">
      <root>
        <mxCell id="2ke4UV2yGzbmpDm_LMHO-0" />
        <mxCell id="2ke4UV2yGzbmpDm_LMHO-1" parent="2ke4UV2yGzbmpDm_LMHO-0" />
        <mxCell id="2ke4UV2yGzbmpDm_LMHO-2" value="" style="rounded=0;whiteSpace=wrap;html=1;verticalAlign=top;align=center;strokeWidth=2;" vertex="1" parent="2ke4UV2yGzbmpDm_LMHO-1">
          <mxGeometry x="540" y="186" width="500" height="456" as="geometry" />
        </mxCell>
        <mxCell id="2ke4UV2yGzbmpDm_LMHO-3" value="" style="group" vertex="1" connectable="0" parent="2ke4UV2yGzbmpDm_LMHO-1">
          <mxGeometry x="-830" y="354" width="720" height="115" as="geometry" />
        </mxCell>
        <mxCell id="2ke4UV2yGzbmpDm_LMHO-4" value="" style="group" vertex="1" connectable="0" parent="2ke4UV2yGzbmpDm_LMHO-3">
          <mxGeometry width="720" height="115" as="geometry" />
        </mxCell>
        <mxCell id="2ke4UV2yGzbmpDm_LMHO-5" style="edgeStyle=orthogonalEdgeStyle;shape=connector;curved=1;rounded=0;hachureGap=4;orthogonalLoop=1;jettySize=auto;html=1;entryX=0;entryY=0.5;entryDx=0;entryDy=0;labelBackgroundColor=default;strokeColor=default;fontFamily=Helvetica;fontSize=16;fontColor=default;endArrow=classic;" edge="1" parent="2ke4UV2yGzbmpDm_LMHO-4" source="2ke4UV2yGzbmpDm_LMHO-7" target="2ke4UV2yGzbmpDm_LMHO-10">
          <mxGeometry relative="1" as="geometry" />
        </mxCell>
        <mxCell id="2ke4UV2yGzbmpDm_LMHO-6" value="Deploy,&lt;br style=&quot;font-size: 14px;&quot;&gt;update DP" style="edgeLabel;html=1;align=center;verticalAlign=middle;resizable=0;points=[];fontSize=14;fontFamily=Helvetica;fontColor=default;labelBackgroundColor=none;" vertex="1" connectable="0" parent="2ke4UV2yGzbmpDm_LMHO-5">
          <mxGeometry x="-0.0027" y="-2" relative="1" as="geometry">
            <mxPoint x="2" y="-26" as="offset" />
          </mxGeometry>
        </mxCell>
        <mxCell id="2ke4UV2yGzbmpDm_LMHO-7" value="DP team" style="shape=umlActor;verticalLabelPosition=bottom;verticalAlign=top;html=1;outlineConnect=0;hachureGap=4;fontFamily=Helvetica;fontSize=16;fontColor=default;" vertex="1" parent="2ke4UV2yGzbmpDm_LMHO-4">
          <mxGeometry y="30.768888888888725" width="35.55555555555556" height="66.23148148148154" as="geometry" />
        </mxCell>
        <mxCell id="2ke4UV2yGzbmpDm_LMHO-8" value="" style="edgeStyle=orthogonalEdgeStyle;shape=connector;curved=1;rounded=0;hachureGap=4;orthogonalLoop=1;jettySize=auto;html=1;labelBackgroundColor=default;strokeColor=default;fontFamily=Helvetica;fontSize=16;fontColor=default;endArrow=classic;" edge="1" parent="2ke4UV2yGzbmpDm_LMHO-4" source="2ke4UV2yGzbmpDm_LMHO-10" target="2ke4UV2yGzbmpDm_LMHO-11">
          <mxGeometry relative="1" as="geometry" />
        </mxCell>
        <mxCell id="2ke4UV2yGzbmpDm_LMHO-9" value="Deploy&lt;div&gt;&lt;br&gt;&lt;/div&gt;" style="edgeLabel;html=1;align=center;verticalAlign=middle;resizable=0;points=[];fontSize=14;fontFamily=Helvetica;fontColor=default;labelBorderColor=none;labelBackgroundColor=none;" vertex="1" connectable="0" parent="2ke4UV2yGzbmpDm_LMHO-8">
          <mxGeometry x="0.3239" relative="1" as="geometry">
            <mxPoint x="-24" y="-6" as="offset" />
          </mxGeometry>
        </mxCell>
        <mxCell id="2ke4UV2yGzbmpDm_LMHO-10" value="" style="rounded=0;whiteSpace=wrap;html=1;hachureGap=4;fontFamily=Helvetica;fontSize=20;verticalAlign=middle;fillColor=#fff2cc;strokeColor=#d6b656;glass=0;" vertex="1" parent="2ke4UV2yGzbmpDm_LMHO-4">
          <mxGeometry x="133.33333333333331" y="12.777777777777692" width="177.77777777777777" height="102.2222222222223" as="geometry" />
        </mxCell>
        <mxCell id="2ke4UV2yGzbmpDm_LMHO-11" value="Provisioning Coordinator" style="whiteSpace=wrap;html=1;fontSize=20;fontFamily=Helvetica;fillColor=#fff2cc;strokeColor=#d6b656;rounded=0;hachureGap=4;glass=0;" vertex="1" parent="2ke4UV2yGzbmpDm_LMHO-4">
          <mxGeometry x="417.7777777777777" y="12.777777777777692" width="177.77777777777777" height="101.15740740740749" as="geometry" />
        </mxCell>
        <mxCell id="2ke4UV2yGzbmpDm_LMHO-12" value="" style="shape=image;verticalLabelPosition=bottom;labelBackgroundColor=default;verticalAlign=top;aspect=fixed;imageAspect=0;image=data:image/png,iVBORw0KGgoAAAANSUhEUgAABUgAAAD3CAYAAADPJr6lAAAACXBIWXMAAC4jAAAuIwF4pT92AAAgAElEQVR4nO3dDWyd5Z3n/dsvcV6c4KQYesIWbCbMUCpaG3V2mzIRNh0x7fOwTMxoZmiXleyUjlQ98gpn9lkRFkYxGlhAOzsx6pGekaZVbGn7UGZmi720O2VQi82klHbbSVwQlDZpYtomh3AgMYnz4tfV5fxPuOP45bzcL9f/ur4fKYLOtDn3uX18n/v63f///6qam5sLAACISz6bsfmLZqSxO9duwXGkLp/NNAdB0KXw0Icbu3PDFhwHAAAAAKVq+cEBAIAgCExAulvpiSAgBQAAgLfy2UyX5cUO/Y3duX4LjmNJBKQAAAAAAACAXqbYoc3io7e+oKHagmMAAAAAAAAAgFQQkAIAAAAAAADwFgEpAAAAAAAAAG8RkAIAAAAAAADwFgEpAAAAAAAAAG8RkAIAAAAAAADwFgEpAAAAAAAAAG8RkAIAAAAAAADwFgEpAAAAAAAAAG8RkAIAAAAAAADwFgEpAAAAAAAAAG8RkAIAAAAAAADwFgEpAAAAAAAAAG8RkAIAAAAAAADwFgEpAAAAAAAAAG8RkAIAAAAAAADwVi0/egAAAABanXnliaa5yVN3m8OfPT/eFsyc3zT/72eO3zg3dWbNwrc1N31m9cyJQ2vNv1evv2a2eu2V7y/21msamkcL/1697urB+X+pXfvj+lsf3seHBQAAtxCQAgAAALDexEsP9cxNn7l5bvL0DTPjR1rCQWe5Zk8frZ49fXTjYv/z6XdebQv9x4v/fvZfskF1/ebp6nWNp6vXX3Okqm7DkerVDSNVdRueXbd11xifJAAA9CEgBQAAAGAVE4aaatDZU7/aOns231BpEBq12YljtbMTxzYG77zaGgSB+dMRBMGesz/92lxNQ/O4qT41VaeEpgAA6EBACgAAACBV84HomeMdpjJ0+p1XF63o1GBu8lSVOX6pPjV/9pw/9NzZ6g3XHq1Zv3m4et2H/5LAFAAA+xCQAgAAAEjUxL7ee2bP5j8/896b7ZoD0WKY6teZE4e2TAXBliAI7jOBac3GG96s2fCRgfrbHuuz/x0AAOA+AlIAAAAAsTOh6Mz44V3Tx396s2lR9/WMS2A635p/7md/99e1mU/+suaKpr9f3/7kgxYcHgAAXiIgBQAAABALQtHlmZb8qbeGTXXprvM//+YDhKUAAKSDmxQAAAAAkTnzyhNNM6d+3Td9fP9nbdtcyWYLw9JV/+rW0ZpNv/0f6m99eJ/v5wYAgLgRkAIAAAComNloafrkoW4T8nE2K2PC0snDz7cGh5//56lfjZysverm/7H+M3u+pPk9AQBgMwJSAAAAAGUx1aKzZ97+i8mx4U5a6OMhu+Lfd/7gt75Yd137S9VXND1MVSkAANHiJgYAAABASebb6E8eGph8a/g2U+3I2YufOc/nDz7XFgTBP0/nXztU23hzF0EpAADRICAFAAAAUJSJlx/dNnPiF1+Z+s3LLQSj6ZmfVfrW8D/PvPvGr2oamv+6/rbH+nw9FwAARIGAFAAAAMCyTMXo1PED32W+qF0mx757bRAEe6aO/Wj3qn/1e1+u39b7jO/nBACAchCQAgAAAFgUrfQ6yJzSb0y/97PHaL0HAKB0BKQAAAAALnPqhe5nJw8/v51gVI+LrfcnfnGg9sqbOtZt3TXm+zkBAKAYBKQAAAAALpp46aGe84f+139lV3q9Jg8/3zr1m5cPz5z69dCGO7J3+34+AABYCTc9AAAAAOY3YJrO/e+/nzr6wwxnQ7/5Xe/f/IeO6eP7z9Rd2/6f2cgJAIClEZACAAAAnjv1nT8bZs6om2ZOHFp79sShPdMnD3Wvurr192m7BwDgcgSkAAAAgKcm9vXeMzn2wl4TovEZcJuZTzqd+8nh2XMnnlzf/uSDvp8PAADCCEgBAAAAD5mq0fMHn2vjZ+8PUyF87rWBXTPv/axr1TWf3ko1KQAAFxCQAgAAAB6hahRmzux0/nWqSQEAEASkAAAAgCdOvdD97OTh57czaxSFatLZidznaq+8qcOHatJ8NrMxCILWBf/n9iX+6yeDIDiw4P92oLE7dzKmwwPKls9mCp/jxT7jxRou/Pcau3PD/DTgGwJSAOrks5nmIAi6FB76MDcbAIA0nHnliaapoz94hR3qsdDk4edbZ04efGNu+tyO+m29z2g+QaEAtFWCokJoFNkoiXx2/ldoXMLTQoh6xPzhPg9xymczhc92s3y2zWe8JcKX3F34F/mcG2OFz7f8MZ/xk43duYUPDwD1CEgBaNQc/gJXhhtnAECiTEv9+V8M/ffZiWPc+2NRZtzCuYnjT89Njt+x/jN7vqThLEkY2i6BUeGfDQm9fEModN0eOqZAAqUD8meYqlOUI/T5Lny205oX3SR/Cq8/vwaTz/pI+LPe2J07wg8bmtVKKfZSbQU2M180g3z6PiAX0R5bjqcUjd25Xj1Hm4x8NtMjTwW16efL0Q75bKZLwmQsrTmfzdh8/aHqWIEFLZuVtLgVqjOCUGXSEa6pqMTp7+386vmD3/oiLfVYyXzL/etP3zd79r1PXnHnwC22nbAFgVF7xJVzUSoESttDYdKohKXDrGGxFKkQ7bL88x3WFg5u89nMWOFzTmAKjWrl5ltjJZb55ePL5VIdWqvq8tkMoVqI3ADuseaAijdO2G2VrhSfNmvRpOC6SUBqEXmwHG5xi/J3bNG/S6o0RiU8LVRqHOB7EysZ/5+fPzj11vAWThRKYVruT3z9986s3nLXTWnPJZWxSh1yT6MhMFpKi/y5X67pQ/L9Psi13G9yX9Eln/OkKqDjYu6rO+VP4cHAoHzOacmH9WrNB1WS/iZlP64m84XJF8olOiw6llKZY+/Tdcix0vqz5KEFAGfIwjzcvpnm4rywuA63co6FWjiHWXygwMwbnRz77oHpd17V2IkCC8y33L/xzMG56XP/Pum5pHLt7ZH7YW1r1GJtlz97JETqJyz1R2g/hS6HP+NB6N5lt9yz9Ln6Oc9nM3MWHIbtzOfA5sKU2wtziEyocX/KB1MOQjUhFYfbi/ov26mLn+UltAakVLoBUE0qOTqUtLeF2zjNsY/LPV2hKomZdx4y80Ynx17YawIu388FKmNm1p57/etPz02fbV3f/uSDcZ5OWct0SDCquVK0HC3SOWbC0pFQWMo13DFyj9GjfN1erqbQ53xIxrJRXAOrFALSYaUBKaHaBzRXjxotVARfoDzs5ksOgDr5bKZDvke1t7c1hFrb9lKV5B8Tjs4HWswbRUTm55K+NrArmJ28Ko7Nm2TmYk+hJRcXZzr25bMZc1/dy/VbP9kXoNfxatFSzFdQh6pK+3kgABtUBxc2yDEX33GFP5EWKU+Hzo22FtIe8kZF63kY4osNgBamisPMv85nM+a69awszrXP/lqoUJV0OJ/NDJsFmjyEg4NODz/wOOEo4mI2bzr1nT+LrFNIrkfm79tPOLqowgOvwvXbhbWed+RzbgLuvYSjiypUlR4xm6Zyj4K0VYdeX2vlF6HaBS6cB774L9B6HqgeBWA1c+Odz2Z6ZLHyoqOh6FLaZIF2RILhUnfYh8XMTvWmyo9wFHE6f/C5NrPxVyUvsSAwYiPJ4pjz9KI5b1KJCMvJQ9gDBKNFa5BNUwlKkSoXAlLvQzVpDXRhgbedi+E8NmgCgAiZbhMTCgZBcEIqFXxerBSqkvYXqkotOCZUYD4cff3p+ziHSMLUW8NbyglJqaSLRJOMTyEotZTcbwzKQ1jfZulGoRCUHuAzjjRcDEgVD8glVHOritbrimDFYfcI7fUAbCMVHKaF8zAtnItqCy+2uZ/Sh3AUaSglJCUYjUU4KPW+WMgWpvLRBHuebsAUtcJnfJiRikhS9YLXGlJ69n1vsycgdQfVowBQoVAw+iItnEVpCrXf09qmBOEo0rRSSEqLcSKapPV+mLEp6THnXj7ruz0a25OUNpnD2+vH20XaFgakzCFVRp4aunQh9v2JGwEpAJSJYLRi4RlgtLZZjHAUNlgsJKXFOBVtMjalnwdcyTJzzYMgGOazHrvdJoSmmhRxcyUg9TlUcy4cljZz7ygOu0cbu3NHLDgOAJ4KzRglGI1GQ6h90/fODusQjsIm4ZCUFuPUdfKAKxmy6WO/zDWnajQZLcwmRdwuCUhlhqDKNnuPb+BdfN/8LHXpV3rcANzQwYzR2Jj2zWeZAWYPwlHYyISk7+39xE9pMbZCA7Mb4yXndZj7jlQUPt99Hr53JGBhBWlAm70eMmvGxZk+BKS6DCs9bgBuoK0tfhdngNG+mZ7Tww88TjgK21TXb55e+4n7ds5OHL/NdBXxA7JGm1Tb9fh+IqIk6+8D3Huk7n55CMA9CSK1WECqNezwMVRztby8wbeKYMVh91hjd+6ABccBAIjfbllws2tywib29d5z/ufffMCrNw3r1V3/2QNrbrrnhvrbHuuTTkSzNhnnJ2cNU223hyApGtLavZ8qaWuYhwBUSiNSlwWkMktQ49M/70K1IAhcXqD49rPUGnazORMA+KWwa3IfC+5kTLz86LZzr3/96bnJU1U+vF/Yr6puw9yamzufuOLOgVvWbd01VjhgeWjeTkhqnTaZTcrDrTJJOLpX5cG7rTCXtNX3E4FoLFZBGiieKehNqCZPSlwu7fftC1zr+2X+KAD46X4WJfE788oTTZOH//GfCEdhi5pNW86uubnztvXtTz642CFJSEpbt30a5OFWr+8nolSEo9ZrkEpS7kdQsaUCUq1VYT6Faq6HwU2+XOQUh9201wOA30w16X4W3PGZOvqDV2ZOHFrr6vuDLquuaz+06d7vr6u/9eF9yx14Y3fOPEB/hB+vlXbTcl88wlE1CEkRiUUDUsVt9t6Eag7PHw3z4T0GbM4EAFCOBXcM3v925/6poz/MOPfGoNKaj33haw1/+I0bij32xu6ceXAywE/bSm10AKyMcFQdQlJUbKkK0kBx+OF8qOZBe32BLyMTmD8KANCOBXeETn9v51cnDz/PuUTqzLzRta1f/vz6z+z5UhnH0sPO9tZqkjDJx42OVyTfZX2WHyYuZ0LSfh7YolzLBaTMIbWXL6MEnK8IVhx2jzd25whIAQBhhZZ7XzpAYjG/Y/3Bb33RwbcGZebnjX7s3i/Ub+t9ppwjl53tO9i0yVomTHqWa/alZH02zG71arVI+E9IipItGZDKbMExhafUhzZ7n570uR4Ga31/hKMAgKXsNbvcc3ZKN78p09gLe9mUCWkz4ejqLXfdVG44WiCj2wjg7MY1W0ioNkg4ql4LFcAox3IVpAGbNdlHLtrbXX1/i3D9hkpr2E1ACgBYzv35bIY2txJNHT/wXTZlQtpWXfOpnAlH123dFUmxjHQdPcUP1mrz12zfT4KEaj6MsvNBZz6b6fH9JKA0rgakLodqvs2JaZE2B+doDrtprwcAFKGTNrfinR5+4PGpt4a3aDleuMnsVN/wR0ObowpHCxq7c8wjtV+nzyGpzGPttOBQEJ09zEZHKZYNSBu7c8NKZ8Y4G6p5GJAGDr9nre9ryIJjAADowCywIky8/Oi28z//5gPWHyicNh+OlrBTfRm6mEdqPS9DUskOqKB1E90sKNpKFaSB4ipSV0M1n9rrCwhI7UL1KACgFISkK5j61chzzB1FmhIIRwt7XPTyg7aejyFpP3NHndXCdQfFIiBVRMr+fdTm6KJKa9hNQAoAKBUh6RJOvdD97PQ7r3JekJokwtGCxu6cmfE4wk/bet6EpLLGbrPgUBAfM2PX9c2fEYEVA1KZNaixFcLFUM3XgDRw7b0rDruHGrtzJy04DgCAPoSkC5jW+snDz/vYHQRLmN3qkwpHQ2i118H5kFS+j2it9wO72mNFxVSQBlSRWoOA1B1a38+wBccAANCLkDSE1nqkyYSjZrf6pA+hsTt3hJZXNUxI6vIGyD201nvD7FPDdQfLKjYg1RqKOBOqScWhzxfv7Y4tppg/CgDwFSGp2bX+ezu/Sms90lJdv3nahKNR71ZfLFrtVdnrYkgqGzP1WHAoSE6P7/ceWJ7rFaQuhWrMzHAk8FYcdo/KE38AACrldUh65pUnms4f/NYXLTgUeKiqbsPc6t/e/u/TCkdDCKf06MtnM62Ovadeqke900D1OpZTVEAqMweHlJ5JV6pIfW6vL3AlJNb6PpjPAwCIUouvM8Gmjh/4Lq31SMvq3/mjJ+u39T6T9g9AdrV/JO3jQFEaXHqoJdWjnRYcCpJ3v/z8gcsUW0EaKK4iVR+qydO6JgsOJW2E3emivR4AEDUz386rkHTipYd6pt4a3mLBocBDq2/848H17U8+aNE7N7//aVeyojgNDu1H4PJcVayMKlIsyoeA1IVQjQv4BQ2Kd3+fpzjspr0eABCX+x3fBOQSU8d+tNuiw4FHVl3zqdyGO7J32/SOpVORsEKPFu0720sVLOMd/NZJFSkWU3RAKl9eowrPovpQjfb6S2g/F1oXgOxeDwCI014H59tdho2ZkBazKdOqaz691cYfQGN3rp8Nm1TRvrO975sf4wKK0HCZ2hJPifny2qPwNHZorYCVJxu013+AsDsdzB8FAMRt0ISk8lDeSZNjw8y8Qyos2ZRpOaaK9MUEXmc8CAIz+/Sk/LNgYTGAeZARfmhTGNvWlsAxamA2bTogc2S18b161FwHjsjn2+eg2Oxo3+fyPQdKV2pAOqg4INWK6tFLNcjiSd2XseKwe0zpzQ8AQJcmudd0ZVPGS5x6ofvZ2Yljpd57AxUzc0dt2JRpOY3dObMB0EjEAeS4BJ8HCv8sMQxZtMBGWrRb5VpV+KdvQVODFFCoqvyX9ViLBYcSt7HQZ//ASp996eBolp9nhyfnqEHeK4VAuKikmzQzgzCfzYwq/IVRG6pR+r2oLqVP/ticCQCA5bXls5nexu6cUzMJz7zyRNPk4ee3W3Ao8EztVR8/advc0WWYe/zDFf4dI3LvOhzX2k+CpuFw1akETO3yHnwIlwKZR6rteu1y8dGYhH39pe4dIb8rB+R3p1ceAnTI59nlqukeAlKElbJJU4HWsERd0OjRE65Saf1i0xp2E5ACAJK027V5pDMnDw3MTZ6qsuBQ4JGqug1zq65tu0vLO5ZQZ6CM/6kp4NkRBMGmxu5ce2N3ri/pwhjzevK65tp1fRAEO5Xu31EqbddrF4uPTDC6o7E712zC6ig21jUPAcxsYPP7JJ/ncn4vNWhhsyaE+RSQagzVaK9fXJO2hZPisHvctDxZcBwAAL8MSgWLevPVo28N38bnF0mru/6zQ/W3PrxP2YkvthrRtM8/ZcIbE0pKmGPFLEETUIXC0lskXBq34NDioqICz8HiI/OZ2inBaGw/A/k8dzkclPo+kxYhJQek8jTO5gHfS1EXqhGQLkvbuaG9HgCA4jWVEJRYjepRpEFZa/1FRVSRmnXoI2ZeYmN3rieKark4SWVpl8x3fMTRoHS+1d6C41iJS/OtTXWyeTDQl9QLhoLS25XmQUshc8FF5VSQBlSRxk+qJtglcWkEpMkgIAUApOX+fDajfkFL9SiSpq21fhGLhW0mWHwk1EasaudpaVnudTgo3a2gVdmVgNSEo+1pPRyQ7sJWh6pJNRbSISbl7qRpSrjvV/hD6VBUjcCTjOXNzwux/alxoDvsNu31BKS69Yc3EEjAboVna8zy1jBGXMB3/bLRpqowpOD093Z+lepRJK3uuvaXFLbWXyQbA4d3tDeBYp/W60CYvAezCU6frEs1rqmX0m95COlCQFoIR1P9XZDX78pnM+Y+dW+axxKRDtmkCp4rKyA1rQL5bGZM2p80UROqEZAWxZyjxNoKKjxOjQhmlItzHtFi8tmMxoD0iGu7ZcMq46Eb7pOL3HybioXCnM1mhfdVSWiS+WAqf08nx4Y7LTgMeKS6fvP0hs/9rfogqPqKa/+/2dO5NcHs1OeVrN1KIgFTTz6b6Zf1jAudg235bKbDxgILKVjR/h07ZkM4GmbWGvls5qSE4w22HFcZoiikG0nweDcqnadrPsM2X89PlltBGkh4ovGmz/pQTS7g2y04FNt1EZDGiupRACjeiASg83/K3UFZ2ryaJTxtl39qXnREwbRuDia9K3WlTg8/8PjsxLFK7rWBktVd/wd/pf2szVdenzv5xbqmz4xeceeAc+FomFzX2vPZTOFBkPbrfZ+lawgXWqg7bKyiNoG4jMMZVvz5NYV0Gys5v7LjfyLkfL+Y1OtFqN/2wpRKbtoGlQakGkI1lwZIx8n6imDlYTcBKQAsbUyuk8NRVsvIYvlA+BosoWmH/HFpB95S9Gm7P5p++1++bMFhwCNmY6b17U8+qPUdn3nliaapoz94ZeroDzPmP0/95uUW839bt3WXSxvCLMpstiPtyv3Kr/NmnmOvhSGI9vX1UzY/JJQO4x7l7fbtrH9R7iZNgSwGNA6XblEwQJr2+uLZ/mWn9ct4yIU5TwAQsXHZlOB22SikJ4lWQtkF2Sw4TVB6vVkoObaDbDHmWzftP8wLJl5+dNv0O69uLOa/C0Rl1eZ/84jWkzmxr/eec288c7AQjhpmfu/smbf/It0jS45c61vlGq9ZjxSJ2MT29f9KrB8zI6O9dlpwKOWiSA3lB6RCa8Ju+4efgLR4tp8r2usBQL8xuek3oWiX7OCaCtM1IcGsWeztSHjmVdo0jNWZN3PiF1+x4DDgkVXXfCpXf9tjan5HwkxL/bnXv/70YiMppo796N+lenApMNd4ub5r3em+QWZH20RzQDqgpXDFVEKbQhsLDqUcBKTwNiC1NrSS6gjfZ42VYruFTyjDCEgBQC8TjO6QalHrdlA21Roy8+p2T4LS+dZNC45jRaY12PJDhGNqM//6TzS+o/e/3bn/3OtP32eqRRf7/8+cOLTWVJcmf2Tpkmq8dsUhqW1VpJor+rWty7q0dhpbcAxIWaUBqdZdrm0O1ageLZ2V50xx2D1Kez0Az5kbe9Oq2iqLVKuZilYJSnd40HpvY+vmJeY3mFki7AHisOq69kP1tz68T9vJHf+fnz84efj5FTfPmX7vZ48lc0R2KWzgZO7NFR6+bVWkWsOv8SRG+URJ1pEqHmYuJJsfwWMVBaTy4ddaQm1rEElAWjp+ltGyPgwAgBiNSDDaq+1hkYS5LsyvW46NrZuXmDn5yzstOhx4oPZDH31I27s04ejUW8NbivnvTud+8lvxH5GdlIek1j/QUsDajZmWI632Gh/YrvjABm6rtII0oM0+OrJLLe31pbP1SY/WJ1C01wPwkaka3WkqMc2cT63v34S6Mr/udoerSa1ddF/YhfuDTWaAuJmd6+u39T6j6USXEo4GslnT6eEHHo/3qOwlD+s0hqTWP9BSQGvHbqC0ilT7Zl6okM8BqY3hVZcFx6BRg20720rY3WTBoZRqVHMwAABlMovOdql4cIJsJNWquNNnOdYuumdOHPQ2xEE6tO1cX2o4WjDz3s+8XicpDklZ3/pLY05EBannKg5I5WKtcWMA60I12usrYtu503ozQPUoAN+MSDiqso1tOVJN2iHzVF1jZUA6/d4b3MshMdX1m6c17VxfbjhqmMpsU6Ed/VHpEQpJNW2AYzbXIyT1kNJxjFSQeq42ordvQpU2haeyw5ZASHHFoS0Iu6NBQArAJwON3TnnF25mnmo+mzHdAXstOJyomAfdXTZtojXx8qPbzI7bFhwKPFHX1D6g5Z2eeqH72XLD0YLZM2//RRAEX4r0wJQxoZNsJDOsaDRbD3sc+Eke0gJqRNFiHzCHNBJcPCrTYMuuc4rD7jEXK6gAYAlehKMFEiTusONoImPVfLPZidx/tOAw4Imqug1z1es+/Jca3q2ZH3r+zX+oeK3DBmgXyP26pu+vFlkfoXRscgUkKJKAVGYWatxZz5pQjYA0EracQ6pHAcBuXoWjBQ6GpE0W3ccFs6d+tdWCw4AnajOf/OW6rbus34htYl/vPed//s0Hovi7pvOvfziKv8cFjd25QWXjU9isqTxaN/0FVIqqgjRQXDafepiVz2bMrIuWtI/DAQSklaH1BYAPvAxHCxwMSa1YdLN7PZJW+6GPPqThpE+OvbDX7EIfxd/l+272C5nxKYr2AqEYqDwtkhUASECUASlt9rqPwQVNabdvKA67x2mvB+CBIZ/D0QIJSXfacTQV227D4nH23Ikvp30M8Mf85kzbep+x/Q2//+3O/VHP5Z2dyH0uyr/PAR1KNm1qYLOmsqnZiA3QLrKAVNrsrW/zWETqoZriHc9tlPa5pL0eAOw0yvftBxq7c2bBpWaDlxWk/t078/7Yn6R9DPDHqo/83rdsf7MTLz3UM3n4+cjXWNPHf3pz1H+nZrJTuJbvtjSv1RrHARZsJ1wGkhFlBWmgOGRJ7YKTz2Y20l4fqbQXSVq/vAhIAbjMVNd0yUISQqppNS8aC1Jvs595902NmzNCqer6zH+z+cjNyInzh/7Xf43j756dOFY78fKj2+L4u7WSeaRDCg5/u6x906D9+7+Pja6A+EUdkDKHVNdru6gprVY7xWH3uNxYAYCrehgjsiQt7ZnLSbUbyIQ1JrRJ6/Xhl5pNW87W3/rwPpvf9MzJQwNx/k7MnXuXarrLdSm5lqe19tUekDYEQTCcz2bIDoAYRRqQyuJDa5t9WvOruMhFL61zSns9ANhnSGZuYhEyIqnXgXOTWmBCWIMk1V59y/M2n3DzwOD8wefa4nyNmdPH2Nl7AemQ0HAtT2u95MJDUhOSPpvPZlz4zgasFHUFacBmTcWTisPtSb+uB9JaqBCQAoBdxpk7ujKZR6plJ+SlpPYdTFiDJFWvbfyGzSd8Ove//z7u12CkxeLkWm57sVJa10uXukh257OZA/lshu8eIGJxBKTDSn9IaSygqB6NR0vSFcHKw26tv7MAsJJe5o4WTXuQnFqbPWENkmL77vVmY6apoz/MxP06zCFdVuozmVfQkFKwdySF14yTGev2Yj6b6U+xExZwTuQBqcwy1DjLKvv3PE0AACAASURBVPFQjYA0VkmfW60/yyHCAwCOGpVqGhRBWu0fUX6uEg95zWY0zB9FUmquvNHq6sCpYz/andRrzU2eujOp19JE1uK2dwQkvm5yeA55ZxAEhyUopaIUqFAcFaQBbfZF4yIWn6TPrdafJe31AFxlexWNjfqUb9iU+Hfx3OSpu5N+Tfir5oqm2NvXy2WqR6ffeTWxHcpnJ3KfS+q1FLL94WBa6ybto2SW0ykVpab1vku6GwGUiID0UoldrGUHuoakXs9D2xP+YmD+KADYY6SxO8f4kBJJR4HmqtvEu4FmzxynGwiJqV6z6W9sPdvT+dceSPL1Zk8fpa14CVJFanO1cUtKAZ4P9wWm9X6vGSkgVaV8RwEliCUgVdxmn2SoxsUqfomcY8Vh9wjt9QAcxQ6v5aOKtASzZ47fmOTrwV81m7acXbd1l5Whl5kHmsTs0bAkq1WVsv17MI0qUp8KQxqkqtTsen+SsBQoTlwVpIHiJzRJXTi4QMWPn+XyqB4F4KJRqkfL50AVaaKL7pnxtxqTfD34q2bjDW/a+uZnTvziK2m8Lhs1Lcv2gqXEN9WTOaSaHwCWKxyWzuWzmUFpw6cKG1ggzoCUOaRLkAHKtNfHL6mKYAJSALAHGzNVrl/xsSdbQcoGTUhI9doP/cTWcz31m5db0nhdNmpamjzssvleP605pKx/gmC7tOEflpmlfWzwBFxAQHq57Qm8BtWjyYn1Yq847B6VHYsBwCXjjd05zeGeFeT7YUjp4TclVRVjNqVJ4nUAo6qu4QUbT8Tp4Qcen5s8VZXGa8+de+/TabyuIjY/MGxL6XW5R7iUebhxv2zwdJLqUvgutoBUnlqpvLlOYD4HAWly+FkujpsDAC7i2hYdqkhXMDd95uYkXgcw6rf1PmPjiZh5f+xP0nptZgAvT1rKrd2sKZ/NpNFmP2z5BlZpalhQXXpEqks72BUfvoizgjSgzf5y8kXQFNffHyOtXyQEpItjPh8AFxGQRkTxhptBUrPt5iZP35DE6wC1V33c2k01p3M/+a20Xntu6syatF5bEZvX42lVKTKKpzhNUl36bBAEJ/LZzHA+m+lJI9gGkhJ3QMpGTZfrivHvjpP5ch1VeNwNcVUEaw675YkyALiEa1v0tD7oTmTxRvUaklK9/horxyKl2V4fsJN9sWx+cJhW0Nbv6WZNlTJjEfYEQbA/tDN+F9WlcEmsAanMsCJUu5TWAcj9iitz4vpZag67AcA1XNuip/WcJjLbjuo1JKWqboOVAensRO5zFhwGlmH5zu2pBKQyCpCOk8oUdsbfu6C6lNmlUC3uCtKAUO0DcsFIZZfHChWqcrQulOIKpTWH3QDgGkaHREza7FVKogVwZvyIxk0aoVD16oYRG4965uTB1Kuo2SytKLZ+P6YZpvVSRRqpQnVpeHYprfhQJ4mAlFDtA1rnVc7/DBVXBDdFfYF2IOwGAKdoDvMsZ2UwU4TYF95pthbDM7Vrf2zbGz7zyhNNMycOrbXgULAyWwPS1NZSUkXKLNJ4FGaX7icshTaxB6SEapfQ2pI9vMS/axL1uVcddgOAY7SGeBpo/d6PdTE28fKj2+L8+4Gw+lsf3mfbCZmbPHW3BYcRzJ4fT2SkhnLWXsdTnl/ZRxVp7BYLS2nDh7WSqCANFN9cRxaqKa44HF9QlcPIhAtcCLsBwBVc2+Kj9dzGuwCbPvu7sf79gKiu3zxt47mYPXPcjmKBmfObLDgKq1nePZZaZaFUkWpd02lUCEtNG/4BNniCjZIKSAnVHKk4lC/YsfQOp2yRVQQ7FHYDgCsYHRKTxu4cASmQoup1jadtPP+zZ46nPn8UJaHTYhGyNhqy7sDc1yIbPB2R3fBpwYcVEglICdXmad3QZ7FAzfe5srTXA4BdCEjjpfEeLtaAlLZe+G72bN6KTcpmxo9oLFpIwxFLj8uGNXIXrfapKeyGv79QVerpeYAlkqogDXwO1aR0fHs0h5OsJSoOtVYER3XBdSnsBgD1ZN454qMxgG6K9W+nrRcJqWlotnIvBzZoUofvySVIq73WAhiXzFeVyqzSXtrvkYYkA1KfQzWtF9xF2w2kIljjU7aWSodCOxh2A4B2tA3GT2WFLosrIB5mB3tOrToEpMuQcTKPWHuAfjHXl93Sfk9QikQlFpD6HKo52pKtNWyr9GfhVNgNAA44yQ8xdloX1sw0A2Jgyw72KImt13FrrtON3bneIAgGLDgUXNBAUIqkJVlBGngcqqmsOHQ0IK20Ipj5owBgF+aPxo/KIwBWmhk/YsUsVJTNqtCrsTtn1opWjrXwWDgoZUYpYkVAWpyyQ7F8NqO24lDmsSxK2rW1VgRX8kXsYtgNAABKwMYwSEr1uqutu4ebm53+sAWHMW9u8lSVBYdhPWkhR3HaCUmt1CAzSs1mTlr3BIHlEg1IFYdqbRWEaloD0mK+RL0KvF0NuwEAWI7ihTUt9kAM5s6992nOK1wl6yZCUnuZB5Qv5rOZPtruEbWkK0gDD6tIXW7J1rpg8u1nyRNjAICPWDgBAEoWCknZCNJe90vbvdY1OiyURkDqTagmv6wa5+KMNnbnipk3pjXs3l7m0ybmjwIAAACA40xI2tida2fjJquZrOVZqkkRFSpIi1dOqKZ1NkZ/Mf8lebKmdXf0ksJOD8JuAAAAAECIbNy0k3NiNVNNOpzPZhitg4okHpD6FKp5UnGoNfAuNbx2OuwGAAAAAFyusTvXFwTB7Ur3U/FFi4SktNyjbGlUkAY+hGry9KIp3sOJRakVh77MlKW9HgAAAAA8JBsWNjOX1GqFlvte308EykNAWppSQrIuGw64DCXNiJWKYI07/DUU+3TJo7AbAAAUoWrVunOcJ/iqas2HfsAPHz4KzSXdSTWp1Xbnsxk6KVGyVAJSH0I1xRWH5VxItF58iv0ZeRF2AwCA4lSvu/pNThWSMHvmuHVriqrq2rctOIx5VXUb5iw4DOvlsxmt48KsJC33rVSTWq2TkBSlSquCNHA5VFNccTjW2J07UMb/zvWKYJ/CbgAAAECFmoZmqvh0U9vtZjr1pJr0brOOtuCQcDlCUpQkzYDU5VBN6xO6sn4m0sattSJ42Z3uPAy7AQAAgCVV1W14lrOjTrOlB6x+HFhjd25Qqkkfoe3eSoSkKFpqAanLoZriluxKQmutF52VflZehd0AADjkJD9MaDc3M9lg21tYt3UX1XL62BqQOkFmk/bKeR7w/XxYiJAURUmzgjRwMVTLZzPmotiS7OFEYlx25iuX1nmXK1UE+xh2AwBwUREPhm0VWydFVd36g3xCkITZ00etDLZqr/o4DyB0sfU67tTnSIJSs368nqDUOiYk1bq2R0LSDkhdDNW0zqusKFCTdm6NT5Obllr4eRx2AwAQtpGzcamq2nWv2XQ8QNKqVq07Z8NJr2lo1tiRmAZbK0idHAkm80lNGLeJ1nur7GXDMiwn1YDUxVDN14A0wr8jDUs9SfL5ZwkAWmitbtSE1kwgJTPjR6xrsTeq1139pgWHgeJpLPpQb0Hr/Q42c7LCYD6b4cEvFpV2BWmgOMy5LFSTX7S2dA6nIuMyXLpSWkcmLPUUiYAUAOzHTW78tAak8VUm1a79cWx/NxAyN3mqysbzUb3uajvuN2tWn7DgKKxmecWcF5vKSlDa39idM9+nt9N+n6oGxbkFYmZDQOpSqOZ1oKa4IrhF2ukvIuwGADU0Xqu1UVmlaxakcf3d9bc+vC+uvxtYaGJf7z22nZT62x7rs+AwgurVDSMWHIbtrL2Gx3mdtpUZhRZqv9+hdONq7bYzjxSLST0gdSlUUxyQRjmv0pW5svwsAUCJRb6PES2N5zf2e8uqug1zcb8GMG92arONJ6Jm05azFhwGVmZrBanX4XaoqrRVNnXaSQt+ovpotcdCNlSQBi6EavLLtT3dwylblBWHroxMoL0eAPRgDmm8NM6uOxL3C9Q0NLPpBhIxe+a4lfelNRtvSH0OqS2VrJazNSD1rnp0KbKpU5+04N8SBMFTVJbGzrTac/3AJWwJSF0I1bTuhjYUZWuDtHdrXDBcrAgm7AYAdQhIY6J4t9fYA1JbdvGG+2YnT33ExjdZs+Ejqc5RpIp7ZXINt3KjL1/mj5bKdNg2dud6FlSWEpbGo5MuJIRZEZC6EKpRcRj735mEwiKQsBsAdNF63daAgHQJ7OKNpMydffdKG0+2qd5MM6SkirsoNq9RCUhXEKosbQ3NLB1Qmp3Yig2bcJEtFaSB4sq3wsKBgDTevzMJhZ8hP0sA0IWNmuKjNSCNfeFdVbf+YNyvARjT77xq7Zy82swnf5nWa1etvfLdtF5bEQJSR4RmlnY1duc2Siv+I1SXVqwtn83QiYR5BKSV68hnMx0Wty4sZzSmikOtM2W3S3s9ASkAKKO4Fdx2WsPn+Fvsa9e9FvdrAAU27mRv1G7ckk3rtavrNvw6rdfWQL4Xmyw91HFTHWnBcaglrfi9oerSu6W6lI2eStej7YARD5sCUrWh2iIb/GgRSzm5hK5Dis8JYTcA6KP14Za15AGwSmbhGPdxszkMkjQ3OX6HjSfc/B5U12+eTuO1q9ddTXHA8mxeo1I9GiGpLh2U6tJmmV26Q9bktOOvjFmkmGdNQKo8VGNDn2T/7jhp/VkyOwWA7whIo6f1nI4k9UJpBUPwz8zpY9ZWya/a/LvfT+WFa9f+OJXXVUBBV5zW4igVZHapacfvCLXj70zy+1EhrUVviJBNFaQBLcKJGo25rYGfZbI43wB818QMqchpDUgTq0yqabgun9RrwW8z775pa6t0UH1F08NJv6bZHKr+1of3Jf26inRZ3hVHQJogacc3mz21N3bnqqQd/yna8S9BQAoCUo/Feq6VVwRrE3fYDQBacHMbEcXz1YMkA1J2skdSZieO1U68/Og2G0+4CSpXXdd+KMnXZAf7Fdk+U5EW+xRJO35PqB1/J2t3HrTDsoCUUC1RSYTRPBlMBg8WAOACAtLoaB5ZkNj9BzMQkaS5c+9ae42rbbw50WOraWhm5+4l5LOZLos3ZwrYO8Eu0o5vqks7Fmz25ONDCO4jPWdbBWlAqJaIsSQ2LyC4SwznGQAuaJCFISogGxV0Kj2Hie6MXFW34dmkXguweQ5p0lWkVWs+9IOkXkuhXssPmbWLpRZs9rQxFJb6gnn2nrMxIOWCGb9EzrEsUHi6G6+kwm4A0IKAtHKaz2GiD9rXbd01VrNpy9kkXxP+snkOaZBwFensRO7ppF5LEwXVowEFUXoUwlKpLN3hwdq+id3s/WZdQEqologkdzxnd/V48UABAC7Vls9mrK2ysp3sfGz77LrlJP69WL3uw8wBRyLm55Du673H1rOdVBVpdf3m6SvuHPhp3K+jjVy/ba8eNVX+BKTKSGWp2RXfzOi83fHd8LmH9JiNFaQBoVqskq44JMCLF78rAHA52xeINutRvDlTkEZlUk1D08tJvyb8NTN+eJfNb95UkZod5uN8jZorb2Tn7cX1KKgeZW2onAm4zW74QRDc4mhQSkDqMVsDUi6c8Ul04SAVwdzExGOc9noAWBRVpGVwoHp0LMn5owVVa67kYSUSM3Py4I02n21TRVp3XftLcb5GzfrNVCAuIG3BGq7frPMdYdahEpTe7th6n53sPWZlQEqoFqs0vpT4IowH5xWoHHOG3EUVaem0V4+m8r1oAiHmkCIpMycOrZ14+dFtNp/wDZ/72/Y4fyd4KLGofgXXb1PcwfrFMTIyodWhzZxaLDgGpMTWCtKA8CcWaX0pcRMTD35HgMrZ3oqG8rWxo33xpPpot5bjXUJq9xs1G294M63Xhn9mTvziK7a/6bqmO3bE8fea4NU8lIjj79Yqn82Yh1ttCg6ftYujZEZpl2zkpB5dSP6yOSAlVIteKl9K0gZORXC0eAILACvrk7ZxrEz7fVfSM9YvUV2f+U5arw3/TB//6c22v+n6bb3PrL7hrsjnE/Iw4lLycEtLxwRrF8eZjZwcCUm5d4yH9cGztQEpoVos0vxS4gsxWpxPICL5bIZZQ+5q4IHryhRVHy0n1e/F9e1PPpjm68Mv87vZv/SQ9fMmTat97VUfPxnl31mz4SOutPFGZVDJaBSKOzwhIelTyt8tawNP2VxBGhACRS7NgeYMU48WvxtAdJhD6rbt+Wymw/eTsBRl1UfLST0IX3XNp3JpHwP8MX3yULeGN1vX9PutUe1qb/6e+tse64vi73JBPpvpVzQvkYeVHmnszvVQ7IZFWF+Za3tASqgWnSEzGyStF5cnhuNpvb6D+N0AosNTYvf1SxCIy2mpPlpOqu31BTUbf+vbaR8D/DH11vCWM688Yf0c7XVbd42t+di9X4ji76rNfPKXUfw9LpAZ252K3grBtn80P3xlBmk8rH+gY3VASqgWKRsqDql6jEaqYTewDK3Xa26C3GcCwEHmkV5KWfXRcqyoTKpe9+G/tOAw4JGZU79WETqZeaRrPvaFr1X699Rc0fT30RyRbjIaaK+iNzHS2J07YsFxIFms/XEZ20eb1VpwDCsZVPZ0zFa2BKT8LCvHlw1sdUDpHEPtsxdRnBapYGFne53VR8uxIiA1lXJTR3+Qmzr6w4wFhwMPTP36+/9Wy7tc/5k9X5qbPH3D+YPPlfWda9rrmfV7MVzQ1kmWaJAvHSOHk3zNCOxs7M45VWVrCnry2cwI99lYoFXWjFayvcU+IAyKxIgNFYdUBEeG3wkgYsyo9EanVE16TcJRTdVHyxmyqTKJNnskyWzWdHr4gce1nHSzadOq69oPlfO/pb3+knBU01iUsaQ3Z1JarerquCetlcO2j2WyNmAsgtWde9YHpIRqkbApUGN2ZmWsCLuBJWj+bBKQ+sPrkDSfzbQ7FI4Gtm38QZs9kjb99r98WdNJb/jDb9xQTkjqe3u90nA0SHEOpbb8wNVxT1oDUqvnOyvPA6xec2moIA0I1SpmU0BK9WNlOH+wmeanmZ3Mp/SKlyGpVI669D2SeGXSSkybfbkVckA5pt95dePESw/1aDp5pYak1fWbp31ur1ccjo6n+J2j7Z60ydHNJNkIFQs12Ny5pyUgJRQq36hlbQb8LCvD+QPio2qBiYp5FZKG2uq171gfZuUOub5XuiF5U8d+tFvbaTchad31ny0qxKq9+hOvxX9EdlIcjhp9KVa6aaxcdLGbieKD+IwqPnYC0goRCpXPqsWffEkOWXAoGtkWdgMLaa/276GK1DsmJHV+d/t8NtPrWFt9kHJl0rJMpZupeLPx2OAmjVWkxhV3DtxSzO72NZt++z8kc0R2kSorreHoeNKbMy2gcc3k4iaSbNAUH81t9p22VkyrCEgJ1Spi4+KBwLs83m8sAutpn4/bkPLNPNKx3SxApUrHKSb4NQFwEATqqsuKkGZl0opWbf7d79t6bHCTxirSQHa3X/uJ+3aaXeoX+//XXvXxk/W3Prwv+SNLlzzYelZx1X/a12iNY59aXLoXUf5eNMyw1TzaLLC1C0hLBWlAqFaWMUsrDpkpWx5+B2C1xu6c9i/qQJ5oujooH0trkZDUmTEL8jk+IAGwa9KuTFpR9RVNDzt31mE1rVWkRv1tj/WtubnztppNW84u/P/VXnXz/0jnqNLhyIMtG67RWu9JXRr3pLkiVsPnR3thSqeNIbqmgJRQrXRWBmoS2mqemZEGW8NuYCEXfredb7nGokyVzp58NjOseaMEWVybhemLtu/CWgGrq0cNU/HGZk1I2uSvhv+L1pNufmc23fv9deG5pPObM31mz5fSPbLkOPRgqyfta7Ssm7TtZB/Y3HpcBhdHBtjEhXzMuofdagJSQrWy2NySTbt4aagehRYuBPkNUk1ISOonMy/rgLQ3qiLz6szi+n6Hf3LWV48W1G7ckrXjSOCLmROH1p7+3s6van67Zi6pabk34agvoyoce7BlijpsWedprSJVv06WjSFd2hTSRtorSI022+63NVWQBoRqJRmzvN2VwK80fPahhQtt9oG0XDOP1F/mpn53Pps5Ijf5VjNVR6byVebVuVo1WmB99WiBaRterGUYiNP5g9/64plXnlB9HTC/O0Ew9/+c/+U/Xu362JtQ1agrD7Zs+s7UWmHXJg88VZICA3UPmRew/rPjyGizQO63rfm8awtICdWKZ/W5oiK4JLaH3UCYS+NQTJvTASpJvWZChr2FoNS2z4K5oZRg9EVPdoo134eqFl2rNv+b/9+Cw4BH5iZPVU2/+4b6NdPsRO7eYHb6JnN9y2cz/Q61Hc8z70dmjbo0DmWosTtn032g5vWT5s98rwOfaS3VmSMWHEMU+m2ZR6oqICVUK4mGkIK5ssXhwQDUsOzGOAotru5wjpLMB6VmhIQs1FP7PMiiuteEtlIx6kMwWqCuIsXMTzStwhYcCjwyefj51ol9vfdofcdSVRm+tnUGQXBYrn2qH1rKNdx0hh12bBO9cQs3GNJ8T9qgcSa+VAK6UA2tJVx3pYiqwZb1lrYK0oBQrSjjjd05DaEabePF4TMPbVx7kGVC0v0aZ1Iicg2yUN8vVaV9SbR/mhtGs8O+qWiWRfVuD1rpFxqxaK5dSeqa2gcUHS4cMTn2wl7F72Sp79vdoQdVqqrrFgSjnRYcUtR6bdtQVsaxaL4nVTXuScItV9b3WvZUcKnLtEHur1Md01E1NzeX5uuXTH7x9qs66OQNNHbnVOwaJxUwvi3ySmHCbtp7F5BA4kWrDqo4j2hrDy2HbDTg6iYxY7IIcO4Bj+LfK1uMyAMtc7N6pNzRKLLoN3/Mz6NV/slGB0Fwi+ZxM+/tvWVqduJYrQWHAo+svvGPBzfckb1b0zsu8btoSOYSW1tMIBV1XY5Viy5kHmBZOStWHm7vtuBQKmH92l4ymmFH7lfUrL/lnvGwBYcSNXNt70pj5ry6GzVzc5zPZsYI1ZalqSV70PHdditFez00cvn3ujCTslee6g9GXTEhN5kbHRxX4Lq2cEtoPpsJJFAvfD4OLDHTqrCo3CjVIrjcU9pncZsq0nOvP32fBYcCj0wefn67abWv39b7jKJ3XcqDZBM6bpe1obn36LfhWiHf4ybQ6vBkzWpba33YoAMBaae02qcSGK3EsXA00NS9adYgjmZj26VbwBSlJFpFra6CNHC/Oqlijd25Ki3HSkXwiu5WMi4hUVSQ2i+fzZz0qOptVG7A56sHy7l5lc90qywymtL4rFBBCkuZG/9WLTvXL4cqUqShZtOWs5vu/f46DSc/ou+hQlg6nNQ9tIRX7fLHl1C0YGfSAUapHOpYHJWQ1JoHhtIO3efYPb/1n+kwGd3h4tiOgjEZ3dAXx71gYc5v4e/WepPWT0C6pCFLj2tRUhE8Tvvg4ghHodiw4+1kYS3yZ75CQZ7kHpFqwaVuYgtVg810RADLsrJiphxUkSINMycOrT31nT8b3vC5v7WyBXqBKB4MNsk68X6p5B+R7+LC+JOKq8MkyG0OjUHxtfp/REmQNOxIgFTYODTxqrqFJFTqd/ReX1sH16DjAWmTrLF257OZodADsIo6+OQ6Xqj07yj83FUGpIRqy9IYqLn+S10uVWE3sMCgRwHpQk2h0NPXcwBE4SmXRk2YHe0nx4Y7qSJF0s4ffK6t+qWHeupve8zaMEtmdbYV8V8t1UrjT1a6xmyUIDSQf7L+vGBcQgUNXKqwM5+/PfL70pvGd6SjVaMF4wpH+vg0kmt7YW0VKkgpvP/lzkNhvn/her7ktVzzDRqh2uIISN1B9Sg0M59fzTvoAkjXWETVZFZZveX//k9nf/q1PXy2kLRzP/u7v66q2/Dsuq27xiw9+UmGt+EHmXGEsj7o0FLdb0JEB+c0ms/ti/lsZiSJoFQqRjvke9nlzid162/zeyiVlb4VZRSu44VreCSzhquj+EtSQnh0uSGNbWjSRj5uwaHYhs841JJrEVXQAMrlTGt9mKngq73q4869L9hvbvJU1eTYd62sjMpnMz2Mm1HlEYXV/f0WHEMcCkHp/IY2sr9HZEylqsy4PCKFD67/nmpdf5MbRERtBakJ1Wizv4zmXwyqSC+lMuwGFnB1NhGAeGlcfBdt1bVtd02/8+o/KzlcOGT6nVc3vv/tzv1X3Dlwiy3vSirTvNjA0hEjSjcc7XdgN/vlhOc0jhU2Di38KWZdmc9mCm3I7aH5uj5lLeOK9/+gcy8i2mcgEapdSvNiwpXh2VHhKRDUkwdZrrU0AYiX1sV30epvfXjf7PtjI2YupJJDhkMmDz/fevp7O79qZuJa8q5cnWXoolFFc0cvYTZ08agNuUnW1RfX1ovM3g1jtu4FatffHrfZR05zi33g2UDalYxWupNXyggEL8VnG65wtaUJQPQ0bfpRkZqNWzqr6zdPK34LUOzc60/fN7Gv956034HsIkyBhA7jDow+0bDjfpyaQpuWhf8Qjl6g/fPBmisC2gNSQrUPqP6FYF7hJbSH3UAYX9YAitXuy3gZs1FO3fV/8FcWHAo8de71rz9tQUjqe2ClSYfC3b0vIaNbRi06JNhjxIHP96BUCaMCqgNSQrVLuBAWE3hfQKAEZ0jYP8BPFMAKdmhfnJRqffuTD6665lM5XUcNV5hNm87/Yui/n3nliVTG4JgNZYIgaOEDpcIOh+ZCE8pjMa58LsgRKqS9gjQgVJvnSsUhP8sLOA9wDZsvAFjOQGN3zsub+lXXfHprVd2GOQsOBR6anThWe/7Qc28kHZLKTtsub5jjkh0uXZ/lvVBlh7AxxZszLdQn4zBQJgJSNzjxRE8qgkcsOJQ00V4P51BFCmAZQ43duS5fT5BptV/9O3/0pAWHAk/NnDi0NoWQlConHZ5y9OGVt985WJQzhRySp5CPVUB9QCofAt9nibj0xeX7LzSbM8FVVJECWGiUhSqt9khfkiEprfVqmMr+HhffmIwL8L0oBxeMOvgQgDVXBVyoIA08fwo55tjMLt8DUp6ow0lUkQJYYNSnTK25wAAADqJJREFUTZlWQqs90pZESEprvRoDHlT2Oxn+omTOfQ5Yc1XGlYDU51DNqfcuv9C+VgS7FnYDC/UyFweAzH8jHA0xrfZrPvqnf27NAcFLcYak+WxmI4UQKvgQjgay5nrKgkNBeoYc2nxsoR7WXOVxIiD1PFRz8UbD1ypKbhrhNLlWs3so4Ddzw95BOHq5+tse66u7/rM8KEWqYgxJzfd/Kjvmo2g7PZsJ3cuGTd4ad7mKWO6xWHOVwZUK0sDTUG3c0acevs7hJCCF8xq7c73MjQa8NS6Vo4SAS7jizoFbajZtOWvlwcEbhZB04uVHt0XxnvPZjAndOvkEWc3sVu9VoCIhEq32fur1YGPkPh4AlM6lgNTHUM3JQE0WTr79MrsadgOL4WYU8M8Y4Whx6q7/v/6AeaRImwlJz7028NLEvt57KjkUmTtKJZO9xiUc9bKDr7E7N0irvXdGfHgYwAOA8jgTkHoaqrlccehbNSXVo/CGPAzgZhTwh6kabyUcLU79rQ/vYx4pbDA3earq3Otff/r093Z+tZzDCc0dbeAHaqVCVb/vm8TS3eQP85n3ZoyEPAAYsuBQ1HCpgjTwLGQalw+8q3z7oiYghVcau3M93IwCXmC3+jKYeaSrb/xj7g2Qugsh6dP3nfrOn5XT6TTI3FFrmWtzMw+uLlbadbGpjRe6PGitX4jPdglcC0h9CtWcvmn2rCLY9bAbWApf2IDbhghHy7fhjuzdq65rP6T1+OGW8wefaxv/5vZjxW7elM9mzLqsjY+BlQa4Nl9K1p60I7vtER/X3KEHACiCUwGpZ6GaD/MqfZnJSTgKL3EzCjhtoLE7x271FWr4w2/cwKZNsMXU0R9mzr3xzMGV5pKyKZPVzLzRLq7Nl5NRA4/YdlyIxJBsFOslCYYH+CitzLUK0oBQzSm+BIdszgRvyc0o80gBt8wvwPmZRmP1lrtuIiSFLWYnjtWePfA33zj1Qvezix1SPpvpCIJgLz8w65iW+luYN7o8CdEIktwySgXlPMabFcHFgNSHUG3Ih6d+8qTDh/ZbKkjhNZlHys0ooN84C/Dordu6a6yu6Y4d7GwPm5x/8x86Tj5zx4lwy73sWM/vv32ekpZ67+eNFkMe8HFf6gbmoAs5Bx2MN1uecwGpJ6GaT4Ga6+/Vi7AbKAJPNQHdRtjwIz7123qfWfOxe79ASAqbTL/z6sazP/3a4dPDDzwu4egwO9ZbxayJ7zYPollvlIz7Uv0IRxeQDararTooy7hYQRp4EKoRkLqD6lHgg6ea7dyMAiqZjQ9YhMRsPiT96J/+udNvEurM73L/2sCu6vrM3xGOWmVAHlqx1ihD6L50SN3BIyAcXZo8yN5h6/GljYBUn1GfftE9+FLnpgUQhKSAOmZjzNt93vggafW3Pda35mNf+Jpf7xq2W3Vd+6EP7TjwO6ZakfbN1BWuy2zEVCFz/sxmg7Tbq0M4ugIZhURIuggnA1LHQzUf5/q4+uTOq7AbKAYhKaCG+W5ubezOsdFgwtZ/Zs+XCElhCxOONvzhN24IPliDNbP5YirGpZq/metytJhJqgrhaJEISRfnagVp4HCo5mPFoavvmSH2wCIISQGrjclMuw4WIOkhJIUNwuFogVTdmfmN18tsYsRvQB5YUc0fEwlJCZPsNtDYnWvl3qR4hKSXczkgdTFUG5XBur5xNSClvR5YgiywWnliD1jlKVmE8/1lAUJSpGmxcDTMrFnMbGLT7k1QGhtzXm+Rdnof14iJkjDpFsZIWGmnhNgoESHppQhIdfFyQSJPgVyrCPY17AZKIjc7OzlrWAaVxvErLMLZCdkyhKRIw0rhaJhp9w4FpVyvozEic0bbZcMVJETOdzOhvzXG5Xehz/cTUYlQSOp9+O9sQOpoqOZzxYZrs3SovgGKJDc9t/OljSUM0soZG9NOv4NFuN1MSLr2E/ftrKrbMOf7uUD8Vt/4x4PFhqNhEpS2UlFakXAwypzRlEiXU7s8wOfeND0m62HmbkQkJG33/TPtcgVp4FioNub54sS1QJGAFCiB3PzwxB6LopUzcuHNPpiXrcCF3e3v/QIhKeJkqpU33JG9u5KXWFBRyhid4pjzdD3BqF3kAX4r9x2JG5eWemahR4wKafcDUpdCKK8DNWlHd6Utx/ewGygLT+yxkgULbxYspZsPRqUig80+lKnf1vuMCUlrNm056/u5QLRM8L7m5s4nTLVyVH+xXK+7pAPgEalYxwfG5H5nEzNG7RV6QEt7cjKGZBY6LfUxCa23HnHyDa7A6YDUsVCNCg53zgHVo0AFQk/sXRujgogQlJZsLByMUpGhlwlJV2+56yZCUkRlPhz92L1fWN/+5INxnFQJmMx1x1Qt3e35d/u4VIveLhX8fVyPdZBui2ZfQ6UEjMnvRQcPC5IhD8pv8e3hlesVpIEjoRoVhxe4EiwSdgMVkgVVhwRgVJ1gUaGg9BZaORc1KjNGCUYdsm7rrrFN935/ndlIx/dzgcqYoH3tJ+673gTvSZzKxu7coHy3b5KKPF/C0iF5v81SLUobvUJSedcrVdHcc0Sj0E7PrNEUSAbV6lPw70NA6kKoxsXgg4pg7UEIYTcQIQnAmmVhQVCKRZnrLq2clyhUKLUyY9RdZiMds6GO7+cB5TEBu6lGNoF70qdQgqb+BWHpgEMtzGPyfu5u7M5VSVVcPw+p3CAP8bsISisSHvlDO32KFgT/zndl1VpwDLEyF6h8NmO+hJoUvw1ubj9gzsX9thxMGQi7gRhIyNOfz2bMDWmv8ms+YiIP2sznozefzZiFd+FPgwfn3FSLmkXGIItwf5gNdapXN/Sc+9nf/fXc5Kkq388HimOC9Uo3Y4qKXK/6Cx1Y+WymVa7b7VLZpOH6PS5rgPk/FEv4Qe45uvLZTE8QBOZPF/enKxqT33XGS1hGPs/t+WymXe4nW1x8n84HpEJzqDZu2k0sOA5b9CsPSPlZAjEKBaXtcjO6nfONxch362A+m9kYCkpd+7yMyvfmIDO7/GV2uA9q1/548vA//tPMiUNrfT8fWNr8vNGP/umfz39mLCXh4sWAUQLT8J82C458RI5x/g+BqN8k6Cs8nO1y9H6jUuZ3pp+uFvvJqINW+Sz3uBaUVs3NzVlwGPGSL879Sg9/QEr0IfLZzBGlT99M2L3RguNQT8KvFxW+j0fYGTpZ+WymWW5EexRdN8zT88RnkPF7dUGosrRd4XdNoUppUKqUCEVxife/3bl/8vDzrZwVLFR71cdP1jX9fmsaLfVRk+/+ZrmOB6F/RlVxOh4Kac0196T85yNcd1GM0P1pl6uVeEUYL1SH8xBBL0eKUm4vrLu8qCA1v3CK2+ypOLyc1opgfpZAwmShYiph+kJteR0W3oyOyTWCm8SUFSpLgw8WMO2hP7bdRxQW6YW2Tca4YFlX3Dlwy+nhBx4///NvPkDLPQpW33DXyIbP/W27KydEvvuPLDfaSu4JSilcIPxEZBbcnzaHHsy6Xlk6LvdYg3TJukHuPYflc9yldJTExXEOXlSQBh9UhGh8Ys78jQVCv3zaDBJ8REPxZ4AAwxKhtupWuSFNOjAdXRBspb7oooJ0ZfK5aQ3NvmtO8LMzFlrwF9o2WayjLGdeeaJp6ugPXpk6+sMMZ9BfZpf6uqY7diS1Sz2AlUlu0Z7S/WkcRgvdLayD/CAPoArjJGwNS0dDFcz+BaQAACxHAsJC6FWoLInixnREgq2L4RYPvtwSaucs/AlCn6Gwhe2di+0GWlg8FFo2T/JwDXE59UL3s5OHn99ONal/6q7/7IHaK2/qcKGlHnCZ3J+m8WC2XCMLigC45/WYhKXhbqy0NtYrqjiFgBQAgBXIzWlYOAgLQgFoAaEWABUmXn5029SvRp6bfudV5qR7YL5q9Nr2/2zzRkwAlif3pc0LHupHNWO3WKPyMHdY7oHZkAwrWmRjvTg+t+ERVAdKCeoJSAEAAADPMZvUfa7NGgVwudA4oCAUnIYtfMi/mJOhjciCBYUAdEIhcqFilHAH1mKf34KFn9H5DqxKxzgQkAIAAACYn006/e4bg+x07xazQ/2qa9vuqr/14X2+nwsAAJZCQAoAAADgool9vfdM/eb7f0PbvW7V9Zun667/g79a3/7kg76fCwAAVkJACgAAAOAypu1+8vA//b+zE8dqOTt6VNVtmKu7rv0l2ukBACgeASkAAACAJZ3+3s6vTo4NdxKU2s/MGa3ZuKWT3ekBACgNASkAAACAZZn5pDMnDw1MvjV8Gxs52WfVde2Hahtv7mLOKAAA5SEgBQAAAFCUQlA6dezHv0dFabpMK31t5pO/JBgFAKByBKQAAAAASkbrfToKM0ZppQcAIDoEpAAAAADKZjZzmn77X77Mrvfxmt+Vvql9oHrdh/+SYBQAgGgRkAIAAACo2MTLj26bOfGLr0z95uUW5pRGZ36+6MYt2frbHutz5T0BAGAbAlIAAAAAkTLt9zMnf3nn1NEfZjizpavZtOVs7dW3PF+z4SM9VIsCABA/AlIAAAAAsZjf1OnUr/umj+//7MyJQ2s5y0szLfS1V3/itZqG65+o39b7jK3HCQCAiwhIAQAAAMTOtODPTuT+48x7b7Yzr/QCUylas/GGNwlFAQBIFwEpAAAAgESZytLZM2//xczpY+0z777Z5MtO+GYH+trGj71dveHaV6rrM/+t/taH91lwWAAAeI+AFAAAAECqJvb13jN7Nv/52VO/2joz/lajK4GpCURrGprHaxqaR6vXXT3IRksAANiJgBQAAACAVUw7/tzkqTvnzr336ZnxIy0z40caNOyMX3vVx09Wr7/mSPXaD/2kqq7hBdrmAQDQgYAUAAAAgPVMW/7c5Km7Z8+Pt81NnmqePX20eW76zOqkN38ymylVr2s8XbX2yner6zb82lSGBrVrf0y7PAAAehGQAgAAAFCtEJ6a9zA3febmucnTNxTez+yZ4zfOTZ1ZU+z7M+3wH/yH1SeqVzeMzP87ISgAAG4KguD/AHF5VCE9kdVYAAAAAElFTkSuQmCC;fontFamily=Helvetica;" vertex="1" parent="2ke4UV2yGzbmpDm_LMHO-4">
          <mxGeometry x="152.88" y="51.74999999999994" width="127.58968888888899" height="23.306666666666683" as="geometry" />
        </mxCell>
        <mxCell id="2ke4UV2yGzbmpDm_LMHO-13" value="" style="group" vertex="1" connectable="0" parent="2ke4UV2yGzbmpDm_LMHO-4">
          <mxGeometry x="622.2222222222222" width="97.77777777777777" height="62.18518518518514" as="geometry" />
        </mxCell>
        <mxCell id="2ke4UV2yGzbmpDm_LMHO-14" value="" style="group;fontSize=13;" vertex="1" connectable="0" parent="2ke4UV2yGzbmpDm_LMHO-13">
          <mxGeometry x="31.111111111111107" width="35.55555555555556" height="36.62962962962966" as="geometry" />
        </mxCell>
        <mxCell id="2ke4UV2yGzbmpDm_LMHO-15" value="" style="shape=note;whiteSpace=wrap;html=1;backgroundOutline=1;darkOpacity=0.05;size=13;fontSize=13;" vertex="1" parent="2ke4UV2yGzbmpDm_LMHO-14">
          <mxGeometry width="35.55555555555556" height="36.62962962962966" as="geometry" />
        </mxCell>
        <mxCell id="2ke4UV2yGzbmpDm_LMHO-16" value="" style="endArrow=none;html=1;rounded=0;fontSize=13;" edge="1" parent="2ke4UV2yGzbmpDm_LMHO-14">
          <mxGeometry width="50" height="50" relative="1" as="geometry">
            <mxPoint x="2.9629629629629632" y="15.593756613756636" as="sourcePoint" />
            <mxPoint x="32.592592592592595" y="15.593756613756636" as="targetPoint" />
          </mxGeometry>
        </mxCell>
        <mxCell id="2ke4UV2yGzbmpDm_LMHO-17" value="" style="endArrow=none;html=1;rounded=0;fontSize=13;" edge="1" parent="2ke4UV2yGzbmpDm_LMHO-14">
          <mxGeometry width="50" height="50" relative="1" as="geometry">
            <mxPoint x="2.9629629629629632" y="20.93121693121695" as="sourcePoint" />
            <mxPoint x="32.592592592592595" y="20.93121693121695" as="targetPoint" />
          </mxGeometry>
        </mxCell>
        <mxCell id="2ke4UV2yGzbmpDm_LMHO-18" value="" style="endArrow=none;html=1;rounded=0;fontStyle=0;fontSize=13;" edge="1" parent="2ke4UV2yGzbmpDm_LMHO-14">
          <mxGeometry width="50" height="50" relative="1" as="geometry">
            <mxPoint x="2.9629629629629632" y="26.164021164021186" as="sourcePoint" />
            <mxPoint x="32.592592592592595" y="26.164021164021186" as="targetPoint" />
          </mxGeometry>
        </mxCell>
        <mxCell id="2ke4UV2yGzbmpDm_LMHO-19" value="" style="endArrow=none;html=1;rounded=0;fontSize=13;" edge="1" parent="2ke4UV2yGzbmpDm_LMHO-14">
          <mxGeometry width="50" height="50" relative="1" as="geometry">
            <mxPoint x="2.9629629629629632" y="31.39682539682543" as="sourcePoint" />
            <mxPoint x="32.592592592592595" y="31.39682539682543" as="targetPoint" />
          </mxGeometry>
        </mxCell>
        <mxCell id="2ke4UV2yGzbmpDm_LMHO-20" value="yaml descriptor" style="text;html=1;align=center;verticalAlign=middle;resizable=0;points=[];autosize=1;strokeColor=none;fillColor=none;fontSize=13;" vertex="1" parent="2ke4UV2yGzbmpDm_LMHO-13">
          <mxGeometry y="36.62962962962956" width="110" height="30" as="geometry" />
        </mxCell>
        <mxCell id="2ke4UV2yGzbmpDm_LMHO-21" style="rounded=1;orthogonalLoop=1;jettySize=auto;html=1;entryX=0;entryY=0.5;entryDx=0;entryDy=0;exitX=1;exitY=0.5;exitDx=0;exitDy=0;" edge="1" parent="2ke4UV2yGzbmpDm_LMHO-1" source="2ke4UV2yGzbmpDm_LMHO-11" target="2ke4UV2yGzbmpDm_LMHO-26">
          <mxGeometry relative="1" as="geometry">
            <mxPoint x="467.7777777777778" y="0.23148148148106884" as="sourcePoint" />
            <mxPoint x="196.66666666666652" y="232.14814814814804" as="targetPoint" />
          </mxGeometry>
        </mxCell>
        <mxCell id="2ke4UV2yGzbmpDm_LMHO-22" value="Unprovisioning request" style="edgeLabel;html=1;align=center;verticalAlign=middle;resizable=0;points=[];" vertex="1" connectable="0" parent="2ke4UV2yGzbmpDm_LMHO-21">
          <mxGeometry x="-0.8469" y="2" relative="1" as="geometry">
            <mxPoint x="66" y="17" as="offset" />
          </mxGeometry>
        </mxCell>
        <mxCell id="2ke4UV2yGzbmpDm_LMHO-23" value="" style="group" vertex="1" connectable="0" parent="2ke4UV2yGzbmpDm_LMHO-1">
          <mxGeometry x="-60" y="109.99999999999989" width="506" height="525.3600000000001" as="geometry" />
        </mxCell>
        <mxCell id="2ke4UV2yGzbmpDm_LMHO-24" value="" style="group" vertex="1" connectable="0" parent="2ke4UV2yGzbmpDm_LMHO-23">
          <mxGeometry y="65.36000000000013" width="450" height="460" as="geometry" />
        </mxCell>
        <mxCell id="2ke4UV2yGzbmpDm_LMHO-25" value="Confluent Kafka Tech adapter" style="rounded=0;whiteSpace=wrap;html=1;fontStyle=1;strokeWidth=2;fontSize=13;verticalAlign=top;fillColor=#dae8fc;strokeColor=#6c8ebf;container=0;" vertex="1" parent="2ke4UV2yGzbmpDm_LMHO-24">
          <mxGeometry y="35" width="450" height="405" as="geometry" />
        </mxCell>
        <mxCell id="2ke4UV2yGzbmpDm_LMHO-26" value="A&lt;br style=&quot;font-size: 13px;&quot;&gt;P&lt;br style=&quot;font-size: 13px;&quot;&gt;I" style="rounded=0;whiteSpace=wrap;html=1;fontStyle=1;strokeWidth=2;fontSize=13;fillColor=#dae8fc;strokeColor=#6c8ebf;container=0;" vertex="1" parent="2ke4UV2yGzbmpDm_LMHO-24">
          <mxGeometry y="20" width="29.61" height="440" as="geometry" />
        </mxCell>
        <mxCell id="2ke4UV2yGzbmpDm_LMHO-27" value="5 - Report outcome" style="shape=process;whiteSpace=wrap;html=1;backgroundOutline=1;align=left;fontSize=14;spacingLeft=6;container=0;" vertex="1" parent="2ke4UV2yGzbmpDm_LMHO-24">
          <mxGeometry x="47.36842105263159" y="360.64" width="379" height="40" as="geometry" />
        </mxCell>
        <mxCell id="2ke4UV2yGzbmpDm_LMHO-29" value="3 - Delete topic only if removeData = TRUE" style="shape=process;whiteSpace=wrap;html=1;backgroundOutline=1;align=left;fontSize=14;spacingLeft=6;container=0;" vertex="1" parent="2ke4UV2yGzbmpDm_LMHO-24">
          <mxGeometry x="48.370000000000005" y="221.64" width="379" height="40" as="geometry" />
        </mxCell>
        <mxCell id="2ke4UV2yGzbmpDm_LMHO-30" value="1 - Validate provisioning request" style="shape=process;whiteSpace=wrap;html=1;backgroundOutline=1;align=left;fontSize=14;spacingLeft=6;container=0;" vertex="1" parent="2ke4UV2yGzbmpDm_LMHO-24">
          <mxGeometry x="47.36842105263159" y="84.63999999999999" width="379" height="40" as="geometry" />
        </mxCell>
        <mxCell id="2ke4UV2yGzbmpDm_LMHO-31" value="2 - Extract descriptor metadata" style="shape=process;whiteSpace=wrap;html=1;backgroundOutline=1;align=left;fontSize=14;spacingLeft=6;container=0;" vertex="1" parent="2ke4UV2yGzbmpDm_LMHO-24">
          <mxGeometry x="47.36842105263159" y="153.64" width="379" height="40" as="geometry" />
        </mxCell>
        <mxCell id="2ke4UV2yGzbmpDm_LMHO-32" value="4 - Delete subject from schema registry only if removeData = TRUE" style="shape=process;whiteSpace=wrap;html=1;backgroundOutline=1;align=left;fontSize=14;spacingLeft=6;container=0;" vertex="1" parent="2ke4UV2yGzbmpDm_LMHO-24">
          <mxGeometry x="49" y="288.64" width="377.37" height="45" as="geometry" />
        </mxCell>
        <mxCell id="2ke4UV2yGzbmpDm_LMHO-33" value="Idempotent, i.e. does not fail if something it provisions already exists" style="shape=callout;whiteSpace=wrap;html=1;perimeter=calloutPerimeter;flipH=1;spacing=4;flipV=1;fontSize=14;position2=0.64;base=25;size=30;position=0.56;direction=west;" vertex="1" parent="2ke4UV2yGzbmpDm_LMHO-23">
          <mxGeometry x="256" width="250" height="100" as="geometry" />
        </mxCell>
        <mxCell id="2ke4UV2yGzbmpDm_LMHO-34" value="ZooKeeper&lt;div&gt;ensemble&lt;/div&gt;" style="rounded=1;whiteSpace=wrap;html=1;" vertex="1" parent="2ke4UV2yGzbmpDm_LMHO-1">
          <mxGeometry x="730" y="212" width="120" height="60" as="geometry" />
        </mxCell>
        <mxCell id="2ke4UV2yGzbmpDm_LMHO-35" value="" style="group;labelPosition=center;verticalLabelPosition=bottom;align=center;verticalAlign=top;" vertex="1" connectable="0" parent="2ke4UV2yGzbmpDm_LMHO-1">
          <mxGeometry x="582.5" y="292" width="415" height="220" as="geometry" />
        </mxCell>
        <mxCell id="2ke4UV2yGzbmpDm_LMHO-36" value="Kafka Cluster" style="rounded=0;whiteSpace=wrap;html=1;labelPosition=center;verticalLabelPosition=bottom;align=center;verticalAlign=top;" vertex="1" parent="2ke4UV2yGzbmpDm_LMHO-35">
          <mxGeometry width="415" height="219.99999999999997" as="geometry" />
        </mxCell>
        <mxCell id="2ke4UV2yGzbmpDm_LMHO-37" value="Broker" style="rounded=1;whiteSpace=wrap;html=1;labelPosition=center;verticalLabelPosition=top;align=center;verticalAlign=bottom;" vertex="1" parent="2ke4UV2yGzbmpDm_LMHO-35">
          <mxGeometry x="17.5" y="33.930348258706466" width="120" height="152.13930348258705" as="geometry" />
        </mxCell>
        <mxCell id="2ke4UV2yGzbmpDm_LMHO-38" value="Broker" style="rounded=1;whiteSpace=wrap;html=1;labelPosition=center;verticalLabelPosition=top;align=center;verticalAlign=bottom;" vertex="1" parent="2ke4UV2yGzbmpDm_LMHO-35">
          <mxGeometry x="147.5" y="33.930348258706466" width="120" height="152.13930348258705" as="geometry" />
        </mxCell>
        <mxCell id="2ke4UV2yGzbmpDm_LMHO-39" value="Broker" style="rounded=1;whiteSpace=wrap;html=1;labelPosition=center;verticalLabelPosition=top;align=center;verticalAlign=bottom;" vertex="1" parent="2ke4UV2yGzbmpDm_LMHO-35">
          <mxGeometry x="277.5" y="33.930348258706466" width="120" height="152.13930348258705" as="geometry" />
        </mxCell>
        <mxCell id="2ke4UV2yGzbmpDm_LMHO-40" value="Partition" style="rounded=0;whiteSpace=wrap;html=1;" vertex="1" parent="2ke4UV2yGzbmpDm_LMHO-35">
          <mxGeometry x="47.5" y="55.82089552238806" width="60" height="32.83582089552239" as="geometry" />
        </mxCell>
        <mxCell id="2ke4UV2yGzbmpDm_LMHO-41" value="Partition" style="rounded=0;whiteSpace=wrap;html=1;" vertex="1" parent="2ke4UV2yGzbmpDm_LMHO-35">
          <mxGeometry x="47.5" y="99.60199004975124" width="60" height="32.83582089552239" as="geometry" />
        </mxCell>
        <mxCell id="2ke4UV2yGzbmpDm_LMHO-42" value="Partition" style="rounded=0;whiteSpace=wrap;html=1;" vertex="1" parent="2ke4UV2yGzbmpDm_LMHO-35">
          <mxGeometry x="177.5" y="55.82089552238806" width="60" height="32.83582089552239" as="geometry" />
        </mxCell>
        <mxCell id="2ke4UV2yGzbmpDm_LMHO-43" value="Partition" style="rounded=0;whiteSpace=wrap;html=1;" vertex="1" parent="2ke4UV2yGzbmpDm_LMHO-35">
          <mxGeometry x="177.5" y="99.60199004975124" width="60" height="32.83582089552239" as="geometry" />
        </mxCell>
        <mxCell id="2ke4UV2yGzbmpDm_LMHO-44" value="Partition" style="rounded=0;whiteSpace=wrap;html=1;" vertex="1" parent="2ke4UV2yGzbmpDm_LMHO-35">
          <mxGeometry x="307.5" y="55.82089552238806" width="60" height="32.83582089552239" as="geometry" />
        </mxCell>
        <mxCell id="2ke4UV2yGzbmpDm_LMHO-45" style="edgeStyle=orthogonalEdgeStyle;rounded=0;orthogonalLoop=1;jettySize=auto;html=1;exitX=0.5;exitY=0;exitDx=0;exitDy=0;entryX=0.5;entryY=1;entryDx=0;entryDy=0;dashed=1;endArrow=none;endFill=0;" edge="1" parent="2ke4UV2yGzbmpDm_LMHO-1" source="2ke4UV2yGzbmpDm_LMHO-36" target="2ke4UV2yGzbmpDm_LMHO-34">
          <mxGeometry relative="1" as="geometry" />
        </mxCell>
        <mxCell id="2ke4UV2yGzbmpDm_LMHO-46" value="Schema Registry" style="rounded=1;whiteSpace=wrap;html=1;" vertex="1" parent="2ke4UV2yGzbmpDm_LMHO-1">
          <mxGeometry x="730" y="562" width="120" height="60" as="geometry" />
        </mxCell>
        <mxCell id="2ke4UV2yGzbmpDm_LMHO-47" style="edgeStyle=orthogonalEdgeStyle;rounded=0;orthogonalLoop=1;jettySize=auto;html=1;exitX=1;exitY=0.5;exitDx=0;exitDy=0;entryX=0;entryY=0.5;entryDx=0;entryDy=0;curved=1;" edge="1" parent="2ke4UV2yGzbmpDm_LMHO-1" source="2ke4UV2yGzbmpDm_LMHO-29" target="2ke4UV2yGzbmpDm_LMHO-37">
          <mxGeometry relative="1" as="geometry" />
        </mxCell>
        <mxCell id="2ke4UV2yGzbmpDm_LMHO-49" style="edgeStyle=orthogonalEdgeStyle;rounded=0;orthogonalLoop=1;jettySize=auto;html=1;exitX=1;exitY=0.5;exitDx=0;exitDy=0;entryX=0;entryY=0.5;entryDx=0;entryDy=0;curved=1;" edge="1" parent="2ke4UV2yGzbmpDm_LMHO-1" source="2ke4UV2yGzbmpDm_LMHO-32" target="2ke4UV2yGzbmpDm_LMHO-46">
          <mxGeometry relative="1" as="geometry" />
        </mxCell>
        <mxCell id="2ke4UV2yGzbmpDm_LMHO-50" value="Kafka" style="shape=image;verticalLabelPosition=middle;labelBackgroundColor=default;verticalAlign=middle;aspect=fixed;imageAspect=0;image=data:image/png,iVBORw0KGgoAAAANSUhEUgAAAJoAAAD6CAYAAABZC15NAAAABGdBTUEAALGPC/xhBQAAACBjSFJNAAB6JgAAgIQAAPoAAACA6AAAdTAAAOpgAAA6mAAAF3CculE8AAAABmJLR0QA/wD/AP+gvaeTAAAAB3RJTUUH6AwIDRcC1dKASAAAJ59JREFUeNrtnXlgHWXV/7/nmXvTpEmbrdDS3tyZu7QpBFkMuyxhe0FkUfYdFEUWFX6K4PYq+lNEXHADBF9AWxAELJuyWwqUnVpEim16l5mbtKWUZmvTLPfOc94/kvpWSdok88zMvWHOPy00eeY5z3zmPOc8yzmEIpFIJFJXHgodAuYmBuYTUyMTZgCoBlAJIAygB0APCD3E1CqZWwXoHY3ki6ssK4tAilbIz4fHYrE9hZTnAHQUgD0BCAfNmQQsZvADact6CoAdvN4PMWhNOzVV9VX2fpYYnwawh0uPWQfQH6TAr7LZrBW85g8RaNFotDYE8UUifAlAvUePzYNxN4fEDzOZTGvwuic3aJSIxs4D8U8A7OSPmlwA0c0UCv13KpXqCV77JANtrq7vKkG3AziwSPRdQ5IuS7VlHwle/SQBLRmNncckbwaoqgi1vq28svKLK1asGAwQKFHQWoBQm67fDNDnilpxxmsFgZNM03w3wKDEQEsmk1M4X/gDgJNLQXkGsrDFMZn2zOoAhRIBrWmnpqr+qZsfB+jgEhuD9ZDaUem29NsBDu6JUNFIc3NzuL+i94EShAwAZkLYTxqGYQQ4FDdoomvDxoUgHFPC4zBbYzwxb/a8GQESRQpa0jCuAeGMSTAWjXZ48I8AtAAL9aI5hOwAZiyYRC8nVldTPdjZ3f1CgEaRBAONjY3TCn0DK0BomFxDwgVBdPBq03w1wKMIpk67b+B7kw8yAKCQZNwcTKFFMHXGYrE9Cfw/AAl3u8cFgHIApQFaR0Pn0aZi6Gyam7JLXU3ths7urtcCRHycOhO68TiAY13q0T8Y+ANs8UzF9Iq3RtgmongkniTBLQw+lQhHumR9NpZvqTRWbFixOcDEB9AS0WgzSLzhQl+eFYKuXZ3NPj9O69ooJF8H4FNQvqVGV6et7I8DTPwATTf+BKVbTLyZWFyaymXvchQB6/qBzPR7EOYqHJ93B+xCvL29vS9AxcNgoLGhYTaAkxRC1g7mFqeQAUDKsl7OQ+4P8DMKx2dWmaZ9KsDEY9AKInSOQn/oHYRCzelcbpkqZXK5XGeDZX2cQHcrM/lM5weYeL28QXyeKkebpH1iOp1+T7VCS4ACwtpFAF5S5Fwcpev6LgEqHoFmGIYBxkcUPNMG+LRUW1vaLaVSqdSAFHQywO0KmtPCwHEBKh6BJpiPUBR9LEhb1rNuK5bNZtcD+JKKtiTQEqDi3dR5uILn9XNI+45XyqUt60GAXnT+cdCRASpeWTTQPgrM2W3pdLrNSwVJ4gYFzeySnJOMBLi4DFoLEGIgoeBhd3qtYKQt+xgAx0GH1AYbA1xcBi0Xj8fheH+R21eb5pteK7gEKAD8pPOREvMCXFwGjQusK5jElvqlJEE877wNGAEuLoNGJKc7fRAz/umXksy282dLTA9wcR00mqYgclvnm0Vjdnx3U8UYBKDt+EVNVTD1+LYxbYdCjo/6MLgywMVl0AAMKHCUyv1SskzKqQqa6Q9wcTsYIOp1/ii5s19KSiLHz2aoGIMAtB15092OXxSRb+tQUip5dneAi/s+mvOsicwH+aYlScc36IlhBri4DFq/lFkA7PBVJePx+DxfdGRyfL+BQUEyZrdBGz7K7Niqkc0XeK1gQtdbVFwLJEkrA1zcjzoB4BXnj+MvJhIJj4MC+paCfr+fbk+nA1w8AI1ZBWiYRnn7614pl4zGToCK401ELzl3HQLQxiQa8VMqHsiEy2Kx2J5uK9bY2DiNhxI0Kwhb6ZkAFY9AW21Z/yRAhZ9SJiQ/7PIUKgoDA3cBUBF8MMLioQAV73w0MGiRoufqKMhFs2fPnuqGUgldvx6ME9W4eHjD68OaH3rQNLZvByDVPJo/NjVc9lIsFtNVKZNMJqckdeMOgL6qbIQk/TbARMX3Ol5rETWeUJzd8V1meW4ml/urk0bmRaNxm8RdUFvToKuyvy/y1vr1JbH91NTUVDa4eXNCAvMJ2EUyTQNQLQQEMw8yU68g2mgzLGhozWazOa+CnHGDFovGjhaKAoP/6MpfIMXXxpu0eN7seTPsssFvgXEpgDLFo3ND2jSvKVaw4vF4tZCyhYEjMHRLbT5AoXE0sQXA68xYDIjF0VzmlSVAoShAA4CEYTwPxiEu9McG6Ali3FsQ/MxoNQD2mDmzsrei4hBinMbAqYArhxJ7woV8fOWaNRuLCa7m5uZw94aOY1nweWCcACg9FbOeGPeAeEHKspb7DlqsIXaIEPwc3K4lxWgDIQNgIwg2ATXM0AHE4HKONGZcm8mZ3y0WwGbPnj21IlT2WQBXeZQA8SUGX5exrMdUTK8TBiURNX4HwgWYlMKpAdveo0iyCGmJaOwyEH8LgB9HrZYT4csp01ziC2jzZs+bYYcH/gnQZEuZzszyaKfBiQqZaxj7S8YtAPb2fUzAd0uir060pNGEU4O2rm19n4ELMNm2Zgi/KgLItKRhXCsZLxYBZABABDpXY7wd1/VPTEghJ0/v7O5eXVtTU03FUybR6Yf7BoXDZ3V0dPhWJlvX9V1m1NQ+DOBCKKpso1CmEuisuprqqj27u581x7Gm6jjXWTyZWNzf27cfCMkSp2ydTXRsJpPxLco0DGN+CPQchurLF6/NBx3UU1PbXFE59aFNmzblXfXRtpXGxsZphf6B54rEzE9oKYPALapD+nF9sA3xfUjIx+BbleYJEMd4TRTKPtG6tvV9T0ADgEQisTMV7Ke4uL/GESGTko7PtmV9q5Yy1zD2kowlAKpL0d0o31J1+I6ylytdB4tEInVTQqEnwNi3REZpI0vx8Uxb5nW/OpBsaEiw0JYCmFWy8RPh6SmVlcdvr6Kz0vz8PT09fRVTp94dDmnzADQVd3CJlTbhmGwu+5Zv02U8Xg3geYCiJe7fJuzBfKSju+thT0ADgE2bNuU7u7oeqK+tGQD4MPerq0zE2uNhKgt9IpPJrPGzG7XTp99FpVnjdCTZu662xurs6nrT9alzJAdXCLmQgflF5PR/OWVZd8Dn9b+krl/GoJswiYSBXsFyv1Qu947rFm1b6ezpXDt1WtUdIaH1M7A/qT5dMZ4xIDzAmvhU2uFWiqLAqQFSPgRQ2WQCjYAykNirs7vrTk9BG/bbCp3dXc/vNK3q90yiEoTdAYQ81H8Jgc9JW9aNnZ2dRXHbvG569Z0A7YnJKdHaEaZQ8roXhmHMEhJfIsKFANzK3z8A4EGW4qeZtswbxfQW3DvP939uMoGfA/CyBFYR0CmF2Ew2TSch5xCwKw8d8drfRUOzgcKhZCqV6vENtG2tacIwjibG6QwcA2C2w/b6iLAUzH8cZF6Uy+U6izI80/UX4EIAQIzXWODGgULh4bGcOtF1fZcw0YVgXMVAnXJfhfD1jGleXwyg/btzbBjHMOOJCfzqOoDPsYleNk2zqFNLJQ3jMB5amFUpORCuSJvmQxOa56LR2rAQXwPjS1B7iPK9vvxgbO3atVuAItq0lQWRmWjMkbasZ4sdsqHPnK9S3OLiAbuw90QhA4bqZ6VN8xqW4lAAaxX2befysrJ/nVcUCMQb3ywWm8kqi+kybq2ZUX9se3t7h4rmMm2Z10PS3hfgNxT2MQDNc4dUynPGeXFke+sI96dz5qXLli3Lq+zjqra2tQO2fQzAKUXLHfsbhjE/AM1L1wB0uiqnf6BQcO3AaXt7ewcxfxJD9eudf2BMpwWgeSTxeLyagH0UNNVva3S623cZUrncCgb/P0Xz55EBaB6JyPNhULJmxb/KZrOWF33OWNbvGHhTQVMH7jFzZmUAmhfBppAq1s26Bmz7ek9ne7CC3HIo6y0v3y8AzRMhBUemeKGqCHMcVu0vAFoVBAW7BqB5Y9Ocp89i/qMvPWf8yXEbRI0BaC5Lc3NzGKCYw1e1uWannV7zxRYTO09CyJgXgOaydHd31zgNBBi0QvWa2VhlwLadBwSE+gA0l0XL56sU+Di+pZ4f9gu7HPWfMS0AzWUZFMJ5VTz2vWpLt7PuB6B54uYEQxAs2HrgTFOfAlT9vu9Z4/BL2xSA5rLYtr3JMWeMuF/9nz9nTj0cXmxmCkBzXSzLWg/AUcQoCU1DyyQ++JiatpcCH3Nj8Rx8DMkJLgFwmVtp5FWpBsDR/VECKjs3dO7vj28ljlIw9beG/Br9aDRaWwbtKEl8IAEHgPHRCWqRrAiHu5O6sYLBrxPwCgrhJ1NrUu1FBNs7AAxnvp59BoClXruYTDjNeSO8ytOIyDCMWSHmkxn4FECHwb08tAzwMkA8TGwvGulCq5cSjxrXEcFpDayuAbuQ8HK/Mx6NH08kH3UeEOFwT0BLRKPNILoCoDPhcpLjUVRdBsZttuAFftwtSEZjJzDxI86/HvpZxsp+xaNuawldfxOg3R22MzBgF2rdBI2S0dgpLPjbYHykSKawdwH66YCdv8nLRMjJZHI65/MbFRzlHgiBd11lWa7vFCT12GcZrKJqzJK0ZR7uSjCQNIxjEnrsdSa+v4ggA4BZAP94ihZanYjGLvYqkpP5/MEADSpoakoBuC8SiVS4OgM1JHZn8M8U2Zu/Dgc06mReJDLHFqGbQDipRFYf3iHCRSnTfMWNxmfPnj11arjsJwxconis701b5tlw4d7AULb1wVcBJWt3zLZozLRnVqu6Ek9JXb9cCm0RqKQyPu4E4DN1tTV1DVOmvLC+t1fZCYl4Q3yfcEg8iaErdqpdlN3ramt2iScST65bt04qNRQh/AXqctu9mmnL3qDEokUikbopWngBwJ9ASQunpBCnZLOOE/NpCV3/GkDf8SDwWaLly04bSw7ZHclwTYMHoTAfChMuzZjmbxyDNpzg936na0RFJFsY/LmMZf1hIr/cqOuxAsRCgD/mYZ/XEug7KSt7JwB7gobiGwB/AcAUhf1a35cfjG9NiTBh0OK6fjKB7obafA1FIvTTtJX96nh8oIRhXAjGLwFM86nT7zD4uv58/sGtL3eH06SmXQjQVwDUqp8gcE06Z97wrxGdUFQSjV0M4pvhQX41/2ZS/D6dMy/akZWYP2dOfSFUdiuDTymObqOXgOcAepkYqyTsDk2IzbYU0yBkAzHvSkyHMWEfuHd6571Q+ZTkqlWrNk0YtHjUuIYI1+NDIAT605SqqWePlm16OAPSHXCecmuyDdyFadP8/b//r/FAZhiXEuPmD9mwLUpb5mnYphxNJBKpmKJpPwLoCwgONv4nZC+kTfOw/3Q7xjz1JQzjTGLc/iEc2F3raqrrOru7HweApK7vrQntCYCODyD7wMS92SY6saur6/0P8jcWyHT9IICehX/Jjv0fQsbXAIAI3/swj8N2jRnT+alcduHIhm4HYhjGLI2xLPBDAtnBp/g/acv63Gj/ut2oowUICYk/BpC5uywBhwcji0CeqJkx47Lt/cB2QWvTY18nwqEBCy6tRBBuq+zv249tcTjUpvX00vl/vXxL5Wk7uuA86tSZjEZ3YxJ/g9rV4kCGZB0RPp0yzSf/Y7yfhT910yf6rSzNM584lgzoo4EmErqxFL5UFuYCiJaD+e+AaAVjPZPsFUQFyVxJLOpBci6AXQEcAFBViUG2SMuXfX6k/cnhSnePANitBCzZIwOFwpljPdc3Imhxw/g0DS1EeiUDBPozQ95N4fBfty2EsD1pbm4Od7zXcYAQ8nSAzgJQX8SvZhODr8wM1aEaVeLxeDXZ8h4AHy9SPSQzfpTJmf+Nceyt0ghRZrnGWAXAi9J+PcS4mcPajel0+j0nDSWTySmyUPg0GFcTECuyl/OSxvK81lxurCnutXjUuIoI16K49pI3gHB+2jTHXQ/iA8GAxny5J5AR7peC5qVy5tedQgYAqVRqIGOav6mdUd/IjCsB3lwEPkyBCD+qmVHfMg7IAMDO5MwfEctmYrxWBIAxwAsR0nafCGQfsGjD1iwHd+t6b2QWF2ZymT+7OTLxeHyesOV9PpbebmUpzlVQ3VgkorFzQfxd+HEci/A6S/HlTC7j6Krfv1k0DTjTVcgI/0BI29ttyAAgk8m0FggHALjH86+f8ZvK/r6PKiqhLdO57ILyqspGgL6oqgbAWCJKIhybNs39nEL2AYuW0I1lwEQv8u7YT8mzPN6HYmAioes/H3pJrst6ZvFZlz8kikejR5AQF4NxAgCVF1XWMegeFliQzWb/rtbGbHWmDeMAZrzsjiHD36UmDstkMn7l+aK4HvstgS9y7fsnPEqa9lkV/uZYJRKJVJSHQodC4lhJaKGhJZ9xrHvyZoBeG9rHlovTlvUqJnBKd1ygJQzj52Bc4cIz1hXAzZZlrfPTm20BQu2G8RgzjnZhslydzpnz4L9o8Ug8TiHZBEk7A1wDoulEHAIwwEybCbJDsmZRmFal0+k271y94T8TumG6EG1KZnFMJpd5pgheAhKJxM4o2Mvhwt5tCBz34mJvqYoYnjb3d2VJg/DrYoEMANLp9HsgXO5G2wWmEwKcdhx1HutC2++yEN8uNoWHalvSX9R/VByAtiPQmNVfD2PCj3x0/rc/nwt8E8pvedNBLUAoQGp00DSAFCd54/er+vp+W6xKZ7PZvxNYtVWb2q7rewRIjQJaLBbbHarvIhLd/db69b1FrbkUbnwIBwZIjQKaYN5VvbvCC4pd8eqd6x4H+H2Vbfq43VUCUydzQnGb76Usa3mxKz50IpQUR8QiHiA1ysgQSPXgLIZLZZiVC9NixQ0mAqRGAY1VnwhgLC8d9e2/KW6wIYg8R406SWlVDmJaWSrKhyoqWhVbX800jKoAqxFBY6U5+pnskrk6NpyEROlan6Zp0wKsRgwGoPQL5FBoU2kNgdqTuLZtVwZYjQQaqb3eL6UcLLExUJoOnoiCdAmjBANbVDYYkrLEvmhSOtVphUJvgNUIoBFB6dTBDkvueU0ZgOkqGyxoWgDaKD5ar9o3p5XMouW8SGQ21B6FRmVv5eYAq5EsmuJtGAn1W1puSUGI+Yqtee+KDSsCizaij0aUUdkgEQ4qIfUPVjwPp1EquyKeT50SacVtHlDk9TO3lSMUt5cJkBrVoim/Jziloqys6E+b6rq+CxEUH/jk1QFSo4AWlvJN5a0yzi92xcPAWVCcvp5YvB4gNQpoq9ra1jKg+vbOsclotKlYlW5ubg7LoYzaagdT5l8KkBrNRxsyQS8qn5KFuLpYle7auPEcFzIOWa3t7WsCpLYDGrF4wYXp89x4Q3zfYlO4sbFxGhjfV90uDZ3DC2R7oBWG6mZL1W2T4Fu8Kr46VrH7Br4HYI7yhiU9FOC0A9Asy1oHwovqm+fmro0bv18syiZ0/eNM+JILem7u5/zTAU6jy/+dBpV4AIRDXJhCv5qMxl5P5bIP+KloPBKfC8iFcKPQFtE/29vbfT+1Mn/OnPpCOLy7BHYlpp0AOR1E05l5KhFtIaCTmXoZMgOprRJTROtY07gqcC2GJBaLzRSSLbiThXsA4OPSluWLH6Pr+i4a6EV3U47yUpvoPNM0TS/1ChEdA4ljQWgBMHMCzbzDw9mEwuXlT29bkc4V0IanlgUAnefSuGxhFmd4kYRvWxnOdP0kAC8ujvQQ0+WpXPYutx5gGEa5YD6FiD4PxsFQW49qCwEPMWFh2jSfUum3/1sn4w3xfUlIF3OmcgFMX0nnzF/Bgz3BpGG0MOPeCX7pTuRem3CpaZpdCgGr0ZiuAvgSeJN9vBWEH9bU19+9o2IV4wZt2Kq9ANDBLivxoE24zDTNd10BLJmcgkLhG8z4JvwrXpsjwvkp03zOSSOzZ8+eWh4q+6IgXM1AnQ96WMR0dSqXvU8paLGG2CFC8PMeKNAFxneoLHRrKpUaUOb06/pxBLoRQDEkxpPEuGHKtMrvjFZcdnsy/C7u9Gja3/5cxHgKUnwh055ZrQQ0AEjq+qM8VI/SC1kD8I0UDi9IpVIbJuq3aMBJYL4KoH2KL7inZTbxuaZprhyrPoJxHQFXwL1y1BPy4UC4PG2av1MCWqIhsTtEYTlAXl6GzQN4GownWYpna2fWrtyebxCLxXTNxqEs+CgwTkTxHyHfwoSvZEzzN2OIkB8kYP+i1YSwoG9w8NK1a9ducQTasCN9PTOu8VGdPIY2+9cBtBnMBRBVgXhnZsQJKMlrbUx4VIRCF41kvZO6vjcDjwAUKQFVxpVlnbY7HTHeBNCIQFTLuwB/Jm1Zj2/zYR/AjKegOoWYu7JCswvHjOUwwXbXYOLR+MFEcomPkdtkFgb4pgHbvnqKELuBxDMorRtkWwFaKfJlh4xUrW/MoA1/aV9nxnUBF67JOwTM8mnpQtUX82pVf9+R20u+uENL1dHV9WJdTc0eGCqW8GGWQZcs+05QfOXPB6sWyYfCu3V2d4261jaW0JkpHLoQQ7W/P6yyicAHgunzDATX6UaWT8YN44oJT51bZV4kMsfWQkvhR4U1ny2ZZDo+m8s+DQxVzSPbvrs41+v8HyuW4uCRiq2NeTGwtb19DWzt6KGI6UMjNoM/vRUyYKhqXs2MGQcBdB1cqptUwlIGIW9rGSEZ4bh3/pPRaBMTPVEiaz2Ovk5iOjeVy94/2g8MbxEtBKAHjG3jazGuzOTMXzgCbXj6iJItn5jEAcIWEE4ZS7XdeDxeLWx5MwNnF0kI2EaEpwF6mQRa2bbfF0B/XtOmCeZdiHk3ZjoUxEcC5FZ2yp5wIR9fuWbNRkegAUOnOfOh0EMenPTwWtYQ4dSUab4yro9P188m0M0Aqn3BC/QYIH+WtqwlGMM5sj1mzqzcXF5+BoG+7Y5F5v+ftqxvOwYNGLof2fV+xw8B/jLUHsDzS55FSDtzojU3Y7GYTjYvIMKhHjL2NpgvSedyE7rzMbQDRF8A+FuKP5Iu1oSxtUyTEjiShnESGHeU7qIjFwBxQ9rKfluBg68lDeNqZnwXgKs3wBj8QH8+f8F4Nre385E0CsmPQOHxKiJ8OWWaN0KlFTIMY5Ym8XMQziglxAj4O7O8KJ3LLVPZbrwhvg8JeRdc2yvm7w9PTcpOKkej0dowafcDfKSqsU1Z5l5KQdvGVzkOoF+7exFEiWxiwnW19fU/VXFUeTQ/qLei4mdgXKzWktFNGSv7BTf63LRTU1X/1N4XASgpoCYF7ZnNZt9SvqXS2d29enZkzi35fH4dAXtBcepOBdIH0C+1fNlpqbb0U+vWrZNuPWh9b2++s6vrz/XTa5eD8CkoKXbBz0Qt8zxT/YVvAMCGLRsGq2trnhDAOVBwFIuYOjq7uxa76sAbhlGuSVw8XPXX16PVBHQw+A7Ntn/udY6MSCRSN0ULbYDj07K8WQqRzGaz693uczIaO42J71PQ1MtpyzzIq0iR4tH4kUTyUgDHA/AqRToDeBWEW23gXtM0+/2APK7rJxPoT46VYVybyZnf9eyd6cbLzk/6ciFUXl7n1VFtHq6t/kwymZyOQftYJv4kgI9D/RmsQSI8B+aHUAg/klqTai+CgOMABc28V9FX+VMvQ3FB+BoznnWofWiwb/AAv9e+RDIa3VUS7T/0MugcAONPS8p4mASeY+ZXbaK/+WW5RrVoUeNJIvyXw/f+47RleZ4KLKEbbwNwluuOcYXfldhkKpdbAWAFgDsSUaMFhLnjbcQWuNLLVAQTsGiOt+pYavf70Xdm3E/kDDQmahQIxFVpAUIgzHbYTHemLfM3f0BzXtNUEM8NQHNZ1kYiM+H8ZO4K+HQkicL0lnNYuTYAzWXJh8OOT0gQ4JtbkMlkugnocKjBtAA0lyXEXOHcIsDX0pQMOM2hNj0AzWWxC8L5lCd8PhnDTqd+tgPQ3A6rQ1KFNarxOWx2+HzaFIDmspTn885BY/Itm1AikdgZDm/PEyMAzW2ZtWZNN4byiDghrckwjHJ/5n77o86/E9oQgOayLAEKw1XvHBlGIeXH/Og/Mx3t3MXj1gA0L14WodWxm0R0pg9dF8R8muO+M60MQPOGtLedWwU6S9f1XTz1zwzjNBAaFPT9nQA0L4I2cp6qlYDKENG1XvW5qampDMwqipFsEWXi9QA0D2RqX99SDCWJceowfcarqoEDvb2XA5R0/pHhxVQqNRCA5oEMp3N6WYFtDIHEA/F43NW7o8NJAX+oKJh4GiiuRLyTPSC4V0k7wHwU5H0tSu4ffFAaGxpmM+MBqKmgwzbx/QFoHkpByj8CUJLmngj/1aYbf9xj5kyleXxjsVhjQWjPQl31v+e2nhMMQPNIcrlcJwgPK2zy5M3lFUvj8XhUUYR5rJD8ClReIiL8butfA9C8jD6Zr4fCC78E7EW2vSJpGNc3NjZOaJsoOScZSRjGrWD8GSr3VBlt5ZWV92z9z6JIgtyo67HamrpTQTgJE0izKcCb66qrezq7u9fDgxpTE5WO7u5362pqDgCQVIhvGYCDZcE+v762hqtra7NdXV07zEoZi8X2qK+p+QaE/D2GbjqpNTpE31q1uvXlbT4Kf2Qo14M8B8BZKsLoYdkI8CIhxF2rs9mlcOmSrYKI7iUXx94GeDmAV8CilYD1kqQNoJyY5gDYDYTD4G7mzpxNaNz2kpDXoIlkNPYJCb7Kg4w7aQLfuCWfv1NFEhSlsOnG7Qx8ZtJG2OBTMpa16D+meW8kruufINCP4PTq1vjVfp+JflBbX3+TWzk2xivzZs+bIcODq0o55ft25PG0ZR43gj/pMmCR+FwI+Wvn9xodSysIV4wli6MXkjCMM8Bq1taKJtgBOqQm9s5kMrn//Dc3gwFKRGMXk5CLiKgYUpDWAzi3rqY6sfOsWc9s3LjR1xronV1dK+qqa3YBYbJk92YQzslks6+OAqELViweryZb/gHAcUU6Jili/uTw5WXfZLje1osAPlrymBFuSJvmNduxdsohm0e2fATFX6xsE0k6N9WWfcRn2GZpjKUoguKvDuTetGWes70oX+naSSwW25Ns+QJKoyLeNBa8KGEYF/jZCdM03yVpH4OSrd/Az5RXVV6AHSwlKfPR4g3xfQT4rwBmlNAoCQAn1lXXvtvZ3bXMr0509PR01tbXPUrMJ6CEKtwx4dH+fP7UTCbTP5aBdh6uR6NxEvLPAGpL8JMUIL4lGY2d6mcnMplMq004kIE3S8QnW1BbX3/KWNcoHftow/UGXlG4uu+X9IPlURNNo65KksnkdB4s3FbESacHmXBNxjR/gXFs9zkFTSR049HijS7HLWsR0vaeaJ0BpUGVYVxCjBsBlBfL4DCQZUFnZrPZ1ybiozgZjKsnEWQAMBt5ewGK4FRLxjR/A1v7CIDHi2Bc8iDcUNXf95GJQObIoiWj0d2YxHJ4l4/WS//jkrRp3los3RnOgft9eF97iwF6jNi+OpXLveNsSCf4ewldf34S1oHaKl02YVfTNItpyUEko7FTJPE3htPquykSwEME/n7Kspar+XYn9oWdQ6C73PYHAF4miNJSohMAhMBUBgwwPgJgTzenOALuTFlmUZ6wGKrKYp8P0JkYKpWtSlYwY6GwQ3erTjI9btBagFCbrv/TpShzLUC3aGz/oTWXy2zvByORSF25Fj6ZgUsAbnYB9QJrWlMmk2lFkUoLEFpjGM0MHCElWoiw9zjAkwxYBLwKpsWQ4tl0ezrl4oc7bmv2GQLdrrgfPQDf0JfP3ziBs2OUMIzTwfgBFG/jEOjulJU9t5Tm/EgkUlceCs2DpAZJchoxVTFQAYEeIWkzC94kiTLM3Opl9vIJgGYsV+sj0Is28alO/aGmpqayvs1bfkbgy1VGWzYhWmS+WknKuLagkrp+IEDfVPj8ewbswqm5XK7LaUMbNmywO7u7Hqurrl0HwrFQs72mCVBPZ3fX8wEqDiOZcXktRBeqc/bp9rRlnt3e3t6nUqF0LnsbEy6AsksqfEGAibegCTBOVPTyloqwdrlbSmVM8x6AfqiouUQsFtsjQMUj0BLR6IEAZimA7H0Kh09OpVIDbiqWtrL/PVTEXoEXafMnA1S8smhELUpsGdEPUqnUBg90k1zQLoOCLD5EaAlQ8WzqFAcqeJ4pQqFbvFJuaF2If+/cn8R+LS4lVQlA++Bw76sgArjR7Snzg3Yt9EvHFg2otGKx3QJcXAZtOB/Xzk5fOZWF7vFawXRb+m0AjusZkZRzA1xcBk3YtoIVd1rukW82kil9yrlVE/EAF7enTikizt81v+GXksTiNeetyIYAF5dBk0JWKXjbq30DTSh4NtO0ABeXQSMWlc7fE3X4paQtRIeCkZoa4OIyaCzYcWgvJBX8UlJKqSAjNsIBLm4HA5I2O37Zgqt8U1KI6QoCis0BLu5bNOcV2iT8c6YLcJznlSF6AlzcjjqZuxU8aXf/tJSOn01AV4CL26CFQo6P+BLjEPiUM5ek871KJk4HuLgMWjqdblfgo9TEo/HDvVawaaemKiYc5XigmFcGuLht0Ybu9zm/pEH2571WsL9iy9kEOF6e6bftVQEu7oMGBjmuZUSgU+IN8X29Uq65uTkM4qsV+Gcr29vbOwJcPAANkM+qcJdA8ideKdf1fseVUHAzSoIWB6h4BFpZobAECvL2E+HQpK5f7rZiSV3/KMDXqmlNBqB5BdrKNWs2Alii4qEM/DwejR7pllKGYcxipocA59tGDPRWbKl6MkDFs6kTAGGhogWHkCBx31zD2F+1QolEYmeN+VEVJZqHUXtwxYYVwa6Al6CFpkz5EwO9Sl4fUCcZS5LRmLKb4HMNYy8U7NcBUpZSXQixMMDEuYxrAXXjxo2DdTXVswBSZYlCIJxcV1M9p6au7rWxFMsa0R9LJqfUTZt2hQQtJKVJT/jttGlejSIuZDYpQQOAuhkz3obky6F0lZ+aifmS+traKVOrqt7q6ekZ06XipqamsuqKqrNZyj8BdAYpztXGRFd2dnX9I8BExXLDRPwgXf8tQJ91qU+DBH6KmZ4G8RtSiHRdXV3HsmXL8vPnzKkvhEJRsNidwUcQ4UQX6ym1pi1zNwB2gIlPoMVisZlC8kqUUKry8fuQfHzGsv4SIOLT1AkAXV1dvXU1tb2YXPlrt5VFGcv6foCHX8sb20jayt4C4OVJOCadCGlXBmgUCWgAbIS0MwBsnFQzJviidDrdFqBRPKAhnU63kaTPTJbwnxi/SFvWgwEWReKjbSsdPV2r6qpr+kA4usQx+0tDzrzILMI67AFoW52a7q4X62pqpwE4qEQt2WuVA30nvNrbOxAgUcSgDcP2dG1N7QwC9isxp+zVAVk4bvW6dcHlk1IAbRi2x2qra/pJwdFpjzB7Jlxefnw2m+0OUCgh0P41jdbWWACOAYr30i2DbqqdUX/+P/7xj74AAw/cE7canqvru0rgPoB2LzKdN4Fwcdo07w1efwlbtH9Fo93d7zeUly8YDIUrCLwvQKII9H1cY3liyrJeCF79JLFo20osFttDMP8aQ3c7/RCLwV/OWNai4JVPYtC2SjwaP1iQfQ2DjvfokSYzfi4FbvWyHE0gPoO2VZKGcQADnwbjdKg/AZJnwhNC0oJILvvQEqAQvOYPKWhbxTCMco354wxxlAAfwcD8CTa1HsBiAi1GWHvYvxSmgRQlaCOAN0tI2SSIGploHiRmgagK4CoAYWZsJoFuSHSAKE0SqyTTPzPtmdXBqyxu+V+5cdASDI15DgAAACV0RVh0ZGF0ZTpjcmVhdGUAMjAyNC0xMi0wOFQxMzoyMzowMiswMDowMDb8yVkAAAAldEVYdGRhdGU6bW9kaWZ5ADIwMjQtMTItMDhUMTM6MjM6MDIrMDA6MDBHoXHlAAAAAElFTkSuQmCC;labelPosition=right;align=left;fontStyle=1" vertex="1" parent="2ke4UV2yGzbmpDm_LMHO-1">
          <mxGeometry x="546" y="192" width="36.96" height="60" as="geometry" />
        </mxCell>
      </root>
    </mxGraphModel>
  </diagram>
  <diagram name="UpdateAcl" id="9p_0_DsT5EykcfH79oCK">
    <mxGraphModel dx="2878" dy="999" grid="1" gridSize="10" guides="1" tooltips="1" connect="1" arrows="1" fold="1" page="1" pageScale="1" pageWidth="1169" pageHeight="827" background="#ffffff" math="0" shadow="0">
      <root>
        <mxCell id="GLOqXwlAp-iV12XzMzbL-0" />
        <mxCell id="GLOqXwlAp-iV12XzMzbL-1" parent="GLOqXwlAp-iV12XzMzbL-0" />
        <mxCell id="GLOqXwlAp-iV12XzMzbL-2" value="" style="rounded=0;whiteSpace=wrap;html=1;verticalAlign=top;align=center;strokeWidth=2;" parent="GLOqXwlAp-iV12XzMzbL-1" vertex="1">
          <mxGeometry x="540" y="186" width="500" height="456" as="geometry" />
        </mxCell>
        <mxCell id="GLOqXwlAp-iV12XzMzbL-3" value="" style="group" parent="GLOqXwlAp-iV12XzMzbL-1" vertex="1" connectable="0">
          <mxGeometry x="-830" y="354" width="720" height="115" as="geometry" />
        </mxCell>
        <mxCell id="GLOqXwlAp-iV12XzMzbL-4" value="" style="group" parent="GLOqXwlAp-iV12XzMzbL-3" vertex="1" connectable="0">
          <mxGeometry width="720" height="115" as="geometry" />
        </mxCell>
        <mxCell id="GLOqXwlAp-iV12XzMzbL-5" style="edgeStyle=orthogonalEdgeStyle;shape=connector;curved=1;rounded=0;hachureGap=4;orthogonalLoop=1;jettySize=auto;html=1;entryX=0;entryY=0.5;entryDx=0;entryDy=0;labelBackgroundColor=default;strokeColor=default;fontFamily=Helvetica;fontSize=16;fontColor=default;endArrow=classic;" parent="GLOqXwlAp-iV12XzMzbL-4" source="GLOqXwlAp-iV12XzMzbL-7" target="GLOqXwlAp-iV12XzMzbL-10" edge="1">
          <mxGeometry relative="1" as="geometry" />
        </mxCell>
        <mxCell id="GLOqXwlAp-iV12XzMzbL-6" value="Deploy,&lt;br style=&quot;font-size: 14px;&quot;&gt;update DP" style="edgeLabel;html=1;align=center;verticalAlign=middle;resizable=0;points=[];fontSize=14;fontFamily=Helvetica;fontColor=default;labelBackgroundColor=none;" parent="GLOqXwlAp-iV12XzMzbL-5" vertex="1" connectable="0">
          <mxGeometry x="-0.0027" y="-2" relative="1" as="geometry">
            <mxPoint x="2" y="-26" as="offset" />
          </mxGeometry>
        </mxCell>
        <mxCell id="GLOqXwlAp-iV12XzMzbL-7" value="DP team" style="shape=umlActor;verticalLabelPosition=bottom;verticalAlign=top;html=1;outlineConnect=0;hachureGap=4;fontFamily=Helvetica;fontSize=16;fontColor=default;" parent="GLOqXwlAp-iV12XzMzbL-4" vertex="1">
          <mxGeometry y="30.768888888888725" width="35.55555555555556" height="66.23148148148154" as="geometry" />
        </mxCell>
        <mxCell id="GLOqXwlAp-iV12XzMzbL-8" value="" style="edgeStyle=orthogonalEdgeStyle;shape=connector;curved=1;rounded=0;hachureGap=4;orthogonalLoop=1;jettySize=auto;html=1;labelBackgroundColor=default;strokeColor=default;fontFamily=Helvetica;fontSize=16;fontColor=default;endArrow=classic;" parent="GLOqXwlAp-iV12XzMzbL-4" source="GLOqXwlAp-iV12XzMzbL-10" target="GLOqXwlAp-iV12XzMzbL-11" edge="1">
          <mxGeometry relative="1" as="geometry" />
        </mxCell>
        <mxCell id="GLOqXwlAp-iV12XzMzbL-9" value="Deploy&lt;div&gt;&lt;br&gt;&lt;/div&gt;" style="edgeLabel;html=1;align=center;verticalAlign=middle;resizable=0;points=[];fontSize=14;fontFamily=Helvetica;fontColor=default;labelBorderColor=none;labelBackgroundColor=none;" parent="GLOqXwlAp-iV12XzMzbL-8" vertex="1" connectable="0">
          <mxGeometry x="0.3239" relative="1" as="geometry">
            <mxPoint x="-24" y="-6" as="offset" />
          </mxGeometry>
        </mxCell>
        <mxCell id="GLOqXwlAp-iV12XzMzbL-10" value="" style="rounded=0;whiteSpace=wrap;html=1;hachureGap=4;fontFamily=Helvetica;fontSize=20;verticalAlign=middle;fillColor=#fff2cc;strokeColor=#d6b656;glass=0;" parent="GLOqXwlAp-iV12XzMzbL-4" vertex="1">
          <mxGeometry x="133.33333333333331" y="12.777777777777692" width="177.77777777777777" height="102.2222222222223" as="geometry" />
        </mxCell>
        <mxCell id="GLOqXwlAp-iV12XzMzbL-11" value="Provisioning Coordinator" style="whiteSpace=wrap;html=1;fontSize=20;fontFamily=Helvetica;fillColor=#fff2cc;strokeColor=#d6b656;rounded=0;hachureGap=4;glass=0;" parent="GLOqXwlAp-iV12XzMzbL-4" vertex="1">
          <mxGeometry x="417.7777777777777" y="12.777777777777692" width="177.77777777777777" height="101.15740740740749" as="geometry" />
        </mxCell>
        <mxCell id="GLOqXwlAp-iV12XzMzbL-12" value="" style="shape=image;verticalLabelPosition=bottom;labelBackgroundColor=default;verticalAlign=top;aspect=fixed;imageAspect=0;image=data:image/png,iVBORw0KGgoAAAANSUhEUgAABUgAAAD3CAYAAADPJr6lAAAACXBIWXMAAC4jAAAuIwF4pT92AAAgAElEQVR4nO3dDWyd5Z3n/dsvcV6c4KQYesIWbCbMUCpaG3V2mzIRNh0x7fOwTMxoZmiXleyUjlQ98gpn9lkRFkYxGlhAOzsx6pGekaZVbGn7UGZmi720O2VQi82klHbbSVwQlDZpYtomh3AgMYnz4tfV5fxPuOP45bzcL9f/ur4fKYLOtDn3uX18n/v63f///6qam5sLAACISz6bsfmLZqSxO9duwXGkLp/NNAdB0KXw0Icbu3PDFhwHAAAAAKVq+cEBAIAgCExAulvpiSAgBQAAgLfy2UyX5cUO/Y3duX4LjmNJBKQAAAAAAACAXqbYoc3io7e+oKHagmMAAAAAAAAAgFQQkAIAAAAAAADwFgEpAAAAAAAAAG8RkAIAAAAAAADwFgEpAAAAAAAAAG8RkAIAAAAAAADwFgEpAAAAAAAAAG8RkAIAAAAAAADwFgEpAAAAAAAAAG8RkAIAAAAAAADwFgEpAAAAAAAAAG8RkAIAAAAAAADwFgEpAAAAAAAAAG8RkAIAAAAAAADwFgEpAAAAAAAAAG8RkAIAAAAAAADwVi0/egAAAABanXnliaa5yVN3m8OfPT/eFsyc3zT/72eO3zg3dWbNwrc1N31m9cyJQ2vNv1evv2a2eu2V7y/21msamkcL/1697urB+X+pXfvj+lsf3seHBQAAtxCQAgAAALDexEsP9cxNn7l5bvL0DTPjR1rCQWe5Zk8frZ49fXTjYv/z6XdebQv9x4v/fvZfskF1/ebp6nWNp6vXX3Okqm7DkerVDSNVdRueXbd11xifJAAA9CEgBQAAAGAVE4aaatDZU7/aOns231BpEBq12YljtbMTxzYG77zaGgSB+dMRBMGesz/92lxNQ/O4qT41VaeEpgAA6EBACgAAACBV84HomeMdpjJ0+p1XF63o1GBu8lSVOX6pPjV/9pw/9NzZ6g3XHq1Zv3m4et2H/5LAFAAA+xCQAgAAAEjUxL7ee2bP5j8/896b7ZoD0WKY6teZE4e2TAXBliAI7jOBac3GG96s2fCRgfrbHuuz/x0AAOA+AlIAAAAAsTOh6Mz44V3Tx396s2lR9/WMS2A635p/7md/99e1mU/+suaKpr9f3/7kgxYcHgAAXiIgBQAAABALQtHlmZb8qbeGTXXprvM//+YDhKUAAKSDmxQAAAAAkTnzyhNNM6d+3Td9fP9nbdtcyWYLw9JV/+rW0ZpNv/0f6m99eJ/v5wYAgLgRkAIAAAComNloafrkoW4T8nE2K2PC0snDz7cGh5//56lfjZysverm/7H+M3u+pPk9AQBgMwJSAAAAAGUx1aKzZ97+i8mx4U5a6OMhu+Lfd/7gt75Yd137S9VXND1MVSkAANHiJgYAAABASebb6E8eGph8a/g2U+3I2YufOc/nDz7XFgTBP0/nXztU23hzF0EpAADRICAFAAAAUJSJlx/dNnPiF1+Z+s3LLQSj6ZmfVfrW8D/PvPvGr2oamv+6/rbH+nw9FwAARIGAFAAAAMCyTMXo1PED32W+qF0mx757bRAEe6aO/Wj3qn/1e1+u39b7jO/nBACAchCQAgAAAFgUrfQ6yJzSb0y/97PHaL0HAKB0BKQAAAAALnPqhe5nJw8/v51gVI+LrfcnfnGg9sqbOtZt3TXm+zkBAKAYBKQAAAAALpp46aGe84f+139lV3q9Jg8/3zr1m5cPz5z69dCGO7J3+34+AABYCTc9AAAAAOY3YJrO/e+/nzr6wwxnQ7/5Xe/f/IeO6eP7z9Rd2/6f2cgJAIClEZACAAAAnjv1nT8bZs6om2ZOHFp79sShPdMnD3Wvurr192m7BwDgcgSkAAAAgKcm9vXeMzn2wl4TovEZcJuZTzqd+8nh2XMnnlzf/uSDvp8PAADCCEgBAAAAD5mq0fMHn2vjZ+8PUyF87rWBXTPv/axr1TWf3ko1KQAAFxCQAgAAAB6hahRmzux0/nWqSQEAEASkAAAAgCdOvdD97OTh57czaxSFatLZidznaq+8qcOHatJ8NrMxCILWBf/n9iX+6yeDIDiw4P92oLE7dzKmwwPKls9mCp/jxT7jxRou/Pcau3PD/DTgGwJSAOrks5nmIAi6FB76MDcbAIA0nHnliaapoz94hR3qsdDk4edbZ04efGNu+tyO+m29z2g+QaEAtFWCokJoFNkoiXx2/ldoXMLTQoh6xPzhPg9xymczhc92s3y2zWe8JcKX3F34F/mcG2OFz7f8MZ/xk43duYUPDwD1CEgBaNQc/gJXhhtnAECiTEv9+V8M/ffZiWPc+2NRZtzCuYnjT89Njt+x/jN7vqThLEkY2i6BUeGfDQm9fEModN0eOqZAAqUD8meYqlOUI/T5Lny205oX3SR/Cq8/vwaTz/pI+LPe2J07wg8bmtVKKfZSbQU2M180g3z6PiAX0R5bjqcUjd25Xj1Hm4x8NtMjTwW16efL0Q75bKZLwmQsrTmfzdh8/aHqWIEFLZuVtLgVqjOCUGXSEa6pqMTp7+386vmD3/oiLfVYyXzL/etP3zd79r1PXnHnwC22nbAFgVF7xJVzUSoESttDYdKohKXDrGGxFKkQ7bL88x3WFg5u89nMWOFzTmAKjWrl5ltjJZb55ePL5VIdWqvq8tkMoVqI3ADuseaAijdO2G2VrhSfNmvRpOC6SUBqEXmwHG5xi/J3bNG/S6o0RiU8LVRqHOB7EysZ/5+fPzj11vAWThRKYVruT3z9986s3nLXTWnPJZWxSh1yT6MhMFpKi/y5X67pQ/L9Psi13G9yX9Eln/OkKqDjYu6rO+VP4cHAoHzOacmH9WrNB1WS/iZlP64m84XJF8olOiw6llKZY+/Tdcix0vqz5KEFAGfIwjzcvpnm4rywuA63co6FWjiHWXygwMwbnRz77oHpd17V2IkCC8y33L/xzMG56XP/Pum5pHLt7ZH7YW1r1GJtlz97JETqJyz1R2g/hS6HP+NB6N5lt9yz9Ln6Oc9nM3MWHIbtzOfA5sKU2wtziEyocX/KB1MOQjUhFYfbi/ov26mLn+UltAakVLoBUE0qOTqUtLeF2zjNsY/LPV2hKomZdx4y80Ynx17YawIu388FKmNm1p57/etPz02fbV3f/uSDcZ5OWct0SDCquVK0HC3SOWbC0pFQWMo13DFyj9GjfN1erqbQ53xIxrJRXAOrFALSYaUBKaHaBzRXjxotVARfoDzs5ksOgDr5bKZDvke1t7c1hFrb9lKV5B8Tjs4HWswbRUTm55K+NrArmJ28Ko7Nm2TmYk+hJRcXZzr25bMZc1/dy/VbP9kXoNfxatFSzFdQh6pK+3kgABtUBxc2yDEX33GFP5EWKU+Hzo22FtIe8kZF63kY4osNgBamisPMv85nM+a69awszrXP/lqoUJV0OJ/NDJsFmjyEg4NODz/wOOEo4mI2bzr1nT+LrFNIrkfm79tPOLqowgOvwvXbhbWed+RzbgLuvYSjiypUlR4xm6Zyj4K0VYdeX2vlF6HaBS6cB774L9B6HqgeBWA1c+Odz2Z6ZLHyoqOh6FLaZIF2RILhUnfYh8XMTvWmyo9wFHE6f/C5NrPxVyUvsSAwYiPJ4pjz9KI5b1KJCMvJQ9gDBKNFa5BNUwlKkSoXAlLvQzVpDXRhgbedi+E8NmgCgAiZbhMTCgZBcEIqFXxerBSqkvYXqkotOCZUYD4cff3p+ziHSMLUW8NbyglJqaSLRJOMTyEotZTcbwzKQ1jfZulGoRCUHuAzjjRcDEgVD8glVHOritbrimDFYfcI7fUAbCMVHKaF8zAtnItqCy+2uZ/Sh3AUaSglJCUYjUU4KPW+WMgWpvLRBHuebsAUtcJnfJiRikhS9YLXGlJ69n1vsycgdQfVowBQoVAw+iItnEVpCrXf09qmBOEo0rRSSEqLcSKapPV+mLEp6THnXj7ruz0a25OUNpnD2+vH20XaFgakzCFVRp4aunQh9v2JGwEpAJSJYLRi4RlgtLZZjHAUNlgsJKXFOBVtMjalnwdcyTJzzYMgGOazHrvdJoSmmhRxcyUg9TlUcy4cljZz7ygOu0cbu3NHLDgOAJ4KzRglGI1GQ6h90/fODusQjsIm4ZCUFuPUdfKAKxmy6WO/zDWnajQZLcwmRdwuCUhlhqDKNnuPb+BdfN/8LHXpV3rcANzQwYzR2Jj2zWeZAWYPwlHYyISk7+39xE9pMbZCA7Mb4yXndZj7jlQUPt99Hr53JGBhBWlAm70eMmvGxZk+BKS6DCs9bgBuoK0tfhdngNG+mZ7Tww88TjgK21TXb55e+4n7ds5OHL/NdBXxA7JGm1Tb9fh+IqIk6+8D3Huk7n55CMA9CSK1WECqNezwMVRztby8wbeKYMVh91hjd+6ABccBAIjfbllws2tywib29d5z/ufffMCrNw3r1V3/2QNrbrrnhvrbHuuTTkSzNhnnJ2cNU223hyApGtLavZ8qaWuYhwBUSiNSlwWkMktQ49M/70K1IAhcXqD49rPUGnazORMA+KWwa3IfC+5kTLz86LZzr3/96bnJU1U+vF/Yr6puw9yamzufuOLOgVvWbd01VjhgeWjeTkhqnTaZTcrDrTJJOLpX5cG7rTCXtNX3E4FoLFZBGiieKehNqCZPSlwu7fftC1zr+2X+KAD46X4WJfE788oTTZOH//GfCEdhi5pNW86uubnztvXtTz642CFJSEpbt30a5OFWr+8nolSEo9ZrkEpS7kdQsaUCUq1VYT6Faq6HwU2+XOQUh9201wOA30w16X4W3PGZOvqDV2ZOHFrr6vuDLquuaz+06d7vr6u/9eF9yx14Y3fOPEB/hB+vlXbTcl88wlE1CEkRiUUDUsVt9t6Eag7PHw3z4T0GbM4EAFCOBXcM3v925/6poz/MOPfGoNKaj33haw1/+I0bij32xu6ceXAywE/bSm10AKyMcFQdQlJUbKkK0kBx+OF8qOZBe32BLyMTmD8KANCOBXeETn9v51cnDz/PuUTqzLzRta1f/vz6z+z5UhnH0sPO9tZqkjDJx42OVyTfZX2WHyYuZ0LSfh7YolzLBaTMIbWXL6MEnK8IVhx2jzd25whIAQBhhZZ7XzpAYjG/Y/3Bb33RwbcGZebnjX7s3i/Ub+t9ppwjl53tO9i0yVomTHqWa/alZH02zG71arVI+E9IipItGZDKbMExhafUhzZ7n570uR4Ga31/hKMAgKXsNbvcc3ZKN78p09gLe9mUCWkz4ejqLXfdVG44WiCj2wjg7MY1W0ioNkg4ql4LFcAox3IVpAGbNdlHLtrbXX1/i3D9hkpr2E1ACgBYzv35bIY2txJNHT/wXTZlQtpWXfOpnAlH123dFUmxjHQdPcUP1mrz12zfT4KEaj6MsvNBZz6b6fH9JKA0rgakLodqvs2JaZE2B+doDrtprwcAFKGTNrfinR5+4PGpt4a3aDleuMnsVN/wR0ObowpHCxq7c8wjtV+nzyGpzGPttOBQEJ09zEZHKZYNSBu7c8NKZ8Y4G6p5GJAGDr9nre9ryIJjAADowCywIky8/Oi28z//5gPWHyicNh+OlrBTfRm6mEdqPS9DUskOqKB1E90sKNpKFaSB4ipSV0M1n9rrCwhI7UL1KACgFISkK5j61chzzB1FmhIIRwt7XPTyg7aejyFpP3NHndXCdQfFIiBVRMr+fdTm6KJKa9hNQAoAKBUh6RJOvdD97PQ7r3JekJokwtGCxu6cmfE4wk/bet6EpLLGbrPgUBAfM2PX9c2fEYEVA1KZNaixFcLFUM3XgDRw7b0rDruHGrtzJy04DgCAPoSkC5jW+snDz/vYHQRLmN3qkwpHQ2i118H5kFS+j2it9wO72mNFxVSQBlSRWoOA1B1a38+wBccAANCLkDSE1nqkyYSjZrf6pA+hsTt3hJZXNUxI6vIGyD201nvD7FPDdQfLKjYg1RqKOBOqScWhzxfv7Y4tppg/CgDwFSGp2bX+ezu/Sms90lJdv3nahKNR71ZfLFrtVdnrYkgqGzP1WHAoSE6P7/ceWJ7rFaQuhWrMzHAk8FYcdo/KE38AACrldUh65pUnms4f/NYXLTgUeKiqbsPc6t/e/u/TCkdDCKf06MtnM62Ovadeqke900D1OpZTVEAqMweHlJ5JV6pIfW6vL3AlJNb6PpjPAwCIUouvM8Gmjh/4Lq31SMvq3/mjJ+u39T6T9g9AdrV/JO3jQFEaXHqoJdWjnRYcCpJ3v/z8gcsUW0EaKK4iVR+qydO6JgsOJW2E3emivR4AEDUz386rkHTipYd6pt4a3mLBocBDq2/848H17U8+aNE7N7//aVeyojgNDu1H4PJcVayMKlIsyoeA1IVQjQv4BQ2Kd3+fpzjspr0eABCX+x3fBOQSU8d+tNuiw4FHVl3zqdyGO7J32/SOpVORsEKPFu0720sVLOMd/NZJFSkWU3RAKl9eowrPovpQjfb6S2g/F1oXgOxeDwCI014H59tdho2ZkBazKdOqaz691cYfQGN3rp8Nm1TRvrO975sf4wKK0HCZ2hJPifny2qPwNHZorYCVJxu013+AsDsdzB8FAMRt0ISk8lDeSZNjw8y8Qyos2ZRpOaaK9MUEXmc8CAIz+/Sk/LNgYTGAeZARfmhTGNvWlsAxamA2bTogc2S18b161FwHjsjn2+eg2Oxo3+fyPQdKV2pAOqg4INWK6tFLNcjiSd2XseKwe0zpzQ8AQJcmudd0ZVPGS5x6ofvZ2Yljpd57AxUzc0dt2JRpOY3dObMB0EjEAeS4BJ8HCv8sMQxZtMBGWrRb5VpV+KdvQVODFFCoqvyX9ViLBYcSt7HQZ//ASp996eBolp9nhyfnqEHeK4VAuKikmzQzgzCfzYwq/IVRG6pR+r2oLqVP/ticCQCA5bXls5nexu6cUzMJz7zyRNPk4ee3W3Ao8EztVR8/advc0WWYe/zDFf4dI3LvOhzX2k+CpuFw1akETO3yHnwIlwKZR6rteu1y8dGYhH39pe4dIb8rB+R3p1ceAnTI59nlqukeAlKElbJJU4HWsERd0OjRE65Saf1i0xp2E5ACAJK027V5pDMnDw3MTZ6qsuBQ4JGqug1zq65tu0vLO5ZQZ6CM/6kp4NkRBMGmxu5ce2N3ri/pwhjzevK65tp1fRAEO5Xu31EqbddrF4uPTDC6o7E712zC6ig21jUPAcxsYPP7JJ/ncn4vNWhhsyaE+RSQagzVaK9fXJO2hZPisHvctDxZcBwAAL8MSgWLevPVo28N38bnF0mru/6zQ/W3PrxP2YkvthrRtM8/ZcIbE0pKmGPFLEETUIXC0lskXBq34NDioqICz8HiI/OZ2inBaGw/A/k8dzkclPo+kxYhJQek8jTO5gHfS1EXqhGQLkvbuaG9HgCA4jWVEJRYjepRpEFZa/1FRVSRmnXoI2ZeYmN3rieKark4SWVpl8x3fMTRoHS+1d6C41iJS/OtTXWyeTDQl9QLhoLS25XmQUshc8FF5VSQBlSRxk+qJtglcWkEpMkgIAUApOX+fDajfkFL9SiSpq21fhGLhW0mWHwk1EasaudpaVnudTgo3a2gVdmVgNSEo+1pPRyQ7sJWh6pJNRbSISbl7qRpSrjvV/hD6VBUjcCTjOXNzwux/alxoDvsNu31BKS69Yc3EEjAboVna8zy1jBGXMB3/bLRpqowpOD093Z+lepRJK3uuvaXFLbWXyQbA4d3tDeBYp/W60CYvAezCU6frEs1rqmX0m95COlCQFoIR1P9XZDX78pnM+Y+dW+axxKRDtmkCp4rKyA1rQL5bGZM2p80UROqEZAWxZyjxNoKKjxOjQhmlItzHtFi8tmMxoD0iGu7ZcMq46Eb7pOL3HybioXCnM1mhfdVSWiS+WAqf08nx4Y7LTgMeKS6fvP0hs/9rfogqPqKa/+/2dO5NcHs1OeVrN1KIgFTTz6b6Zf1jAudg235bKbDxgILKVjR/h07ZkM4GmbWGvls5qSE4w22HFcZoiikG0nweDcqnadrPsM2X89PlltBGkh4ovGmz/pQTS7g2y04FNt1EZDGiupRACjeiASg83/K3UFZ2ryaJTxtl39qXnREwbRuDia9K3WlTg8/8PjsxLFK7rWBktVd/wd/pf2szVdenzv5xbqmz4xeceeAc+FomFzX2vPZTOFBkPbrfZ+lawgXWqg7bKyiNoG4jMMZVvz5NYV0Gys5v7LjfyLkfL+Y1OtFqN/2wpRKbtoGlQakGkI1lwZIx8n6imDlYTcBKQAsbUyuk8NRVsvIYvlA+BosoWmH/HFpB95S9Gm7P5p++1++bMFhwCNmY6b17U8+qPUdn3nliaapoz94ZeroDzPmP0/95uUW839bt3WXSxvCLMpstiPtyv3Kr/NmnmOvhSGI9vX1UzY/JJQO4x7l7fbtrH9R7iZNgSwGNA6XblEwQJr2+uLZ/mWn9ct4yIU5TwAQsXHZlOB22SikJ4lWQtkF2Sw4TVB6vVkoObaDbDHmWzftP8wLJl5+dNv0O69uLOa/C0Rl1eZ/84jWkzmxr/eec288c7AQjhpmfu/smbf/It0jS45c61vlGq9ZjxSJ2MT29f9KrB8zI6O9dlpwKOWiSA3lB6RCa8Ju+4efgLR4tp8r2usBQL8xuek3oWiX7OCaCtM1IcGsWeztSHjmVdo0jNWZN3PiF1+x4DDgkVXXfCpXf9tjan5HwkxL/bnXv/70YiMppo796N+lenApMNd4ub5r3em+QWZH20RzQDqgpXDFVEKbQhsLDqUcBKTwNiC1NrSS6gjfZ42VYruFTyjDCEgBQC8TjO6QalHrdlA21Roy8+p2T4LS+dZNC45jRaY12PJDhGNqM//6TzS+o/e/3bn/3OtP32eqRRf7/8+cOLTWVJcmf2Tpkmq8dsUhqW1VpJor+rWty7q0dhpbcAxIWaUBqdZdrm0O1ageLZ2V50xx2D1Kez0Az5kbe9Oq2iqLVKuZilYJSnd40HpvY+vmJeY3mFki7AHisOq69kP1tz68T9vJHf+fnz84efj5FTfPmX7vZ48lc0R2KWzgZO7NFR6+bVWkWsOv8SRG+URJ1pEqHmYuJJsfwWMVBaTy4ddaQm1rEElAWjp+ltGyPgwAgBiNSDDaq+1hkYS5LsyvW46NrZuXmDn5yzstOhx4oPZDH31I27s04ejUW8NbivnvTud+8lvxH5GdlIek1j/QUsDajZmWI632Gh/YrvjABm6rtII0oM0+OrJLLe31pbP1SY/WJ1C01wPwkaka3WkqMc2cT63v34S6Mr/udoerSa1ddF/YhfuDTWaAuJmd6+u39T6j6USXEo4GslnT6eEHHo/3qOwlD+s0hqTWP9BSQGvHbqC0ilT7Zl6okM8BqY3hVZcFx6BRg20720rY3WTBoZRqVHMwAABlMovOdql4cIJsJNWquNNnOdYuumdOHPQ2xEE6tO1cX2o4WjDz3s+8XicpDklZ3/pLY05EBannKg5I5WKtcWMA60I12usrYtu503ozQPUoAN+MSDiqso1tOVJN2iHzVF1jZUA6/d4b3MshMdX1m6c17VxfbjhqmMpsU6Ed/VHpEQpJNW2AYzbXIyT1kNJxjFSQeq42ordvQpU2haeyw5ZASHHFoS0Iu6NBQArAJwON3TnnF25mnmo+mzHdAXstOJyomAfdXTZtojXx8qPbzI7bFhwKPFHX1D6g5Z2eeqH72XLD0YLZM2//RRAEX4r0wJQxoZNsJDOsaDRbD3sc+Eke0gJqRNFiHzCHNBJcPCrTYMuuc4rD7jEXK6gAYAlehKMFEiTusONoImPVfLPZidx/tOAw4Imqug1z1es+/Jca3q2ZH3r+zX+oeK3DBmgXyP26pu+vFlkfoXRscgUkKJKAVGYWatxZz5pQjYA0EracQ6pHAcBuXoWjBQ6GpE0W3ccFs6d+tdWCw4AnajOf/OW6rbus34htYl/vPed//s0Hovi7pvOvfziKv8cFjd25QWXjU9isqTxaN/0FVIqqgjRQXDafepiVz2bMrIuWtI/DAQSklaH1BYAPvAxHCxwMSa1YdLN7PZJW+6GPPqThpE+OvbDX7EIfxd/l+272C5nxKYr2AqEYqDwtkhUASECUASlt9rqPwQVNabdvKA67x2mvB+CBIZ/D0QIJSXfacTQV227D4nH23Ikvp30M8Mf85kzbep+x/Q2//+3O/VHP5Z2dyH0uyr/PAR1KNm1qYLOmsqnZiA3QLrKAVNrsrW/zWETqoZriHc9tlPa5pL0eAOw0yvftBxq7c2bBpWaDlxWk/t078/7Yn6R9DPDHqo/83rdsf7MTLz3UM3n4+cjXWNPHf3pz1H+nZrJTuJbvtjSv1RrHARZsJ1wGkhFlBWmgOGRJ7YKTz2Y20l4fqbQXSVq/vAhIAbjMVNd0yUISQqppNS8aC1Jvs595902NmzNCqer6zH+z+cjNyInzh/7Xf43j756dOFY78fKj2+L4u7WSeaRDCg5/u6x906D9+7+Pja6A+EUdkDKHVNdru6gprVY7xWH3uNxYAYCrehgjsiQt7ZnLSbUbyIQ1JrRJ6/Xhl5pNW87W3/rwPpvf9MzJQwNx/k7MnXuXarrLdSm5lqe19tUekDYEQTCcz2bIDoAYRRqQyuJDa5t9WvOruMhFL61zSns9ANhnSGZuYhEyIqnXgXOTWmBCWIMk1V59y/M2n3DzwOD8wefa4nyNmdPH2Nl7AemQ0HAtT2u95MJDUhOSPpvPZlz4zgasFHUFacBmTcWTisPtSb+uB9JaqBCQAoBdxpk7ujKZR6plJ+SlpPYdTFiDJFWvbfyGzSd8Ove//z7u12CkxeLkWm57sVJa10uXukh257OZA/lshu8eIGJxBKTDSn9IaSygqB6NR0vSFcHKw26tv7MAsJJe5o4WTXuQnFqbPWENkmL77vVmY6apoz/MxP06zCFdVuozmVfQkFKwdySF14yTGev2Yj6b6U+xExZwTuQBqcwy1DjLKvv3PE0AACAASURBVPFQjYA0VkmfW60/yyHCAwCOGpVqGhRBWu0fUX6uEg95zWY0zB9FUmquvNHq6sCpYz/andRrzU2eujOp19JE1uK2dwQkvm5yeA55ZxAEhyUopaIUqFAcFaQBbfZF4yIWn6TPrdafJe31AFxlexWNjfqUb9iU+Hfx3OSpu5N+Tfir5oqm2NvXy2WqR6ffeTWxHcpnJ3KfS+q1FLL94WBa6ybto2SW0ykVpab1vku6GwGUiID0UoldrGUHuoakXs9D2xP+YmD+KADYY6SxO8f4kBJJR4HmqtvEu4FmzxynGwiJqV6z6W9sPdvT+dceSPL1Zk8fpa14CVJFanO1cUtKAZ4P9wWm9X6vGSkgVaV8RwEliCUgVdxmn2SoxsUqfomcY8Vh9wjt9QAcxQ6v5aOKtASzZ47fmOTrwV81m7acXbd1l5Whl5kHmsTs0bAkq1WVsv17MI0qUp8KQxqkqtTsen+SsBQoTlwVpIHiJzRJXTi4QMWPn+XyqB4F4KJRqkfL50AVaaKL7pnxtxqTfD34q2bjDW/a+uZnTvziK2m8Lhs1Lcv2gqXEN9WTOaSaHwCWKxyWzuWzmUFpw6cKG1ggzoCUOaRLkAHKtNfHL6mKYAJSALAHGzNVrl/xsSdbQcoGTUhI9doP/cTWcz31m5db0nhdNmpamjzssvleP605pKx/gmC7tOEflpmlfWzwBFxAQHq57Qm8BtWjyYn1Yq847B6VHYsBwCXjjd05zeGeFeT7YUjp4TclVRVjNqVJ4nUAo6qu4QUbT8Tp4Qcen5s8VZXGa8+de+/TabyuIjY/MGxL6XW5R7iUebhxv2zwdJLqUvgutoBUnlqpvLlOYD4HAWly+FkujpsDAC7i2hYdqkhXMDd95uYkXgcw6rf1PmPjiZh5f+xP0nptZgAvT1rKrd2sKZ/NpNFmP2z5BlZpalhQXXpEqks72BUfvoizgjSgzf5y8kXQFNffHyOtXyQEpItjPh8AFxGQRkTxhptBUrPt5iZP35DE6wC1V33c2k01p3M/+a20Xntu6syatF5bEZvX42lVKTKKpzhNUl36bBAEJ/LZzHA+m+lJI9gGkhJ3QMpGTZfrivHvjpP5ch1VeNwNcVUEaw675YkyALiEa1v0tD7oTmTxRvUaklK9/horxyKl2V4fsJN9sWx+cJhW0Nbv6WZNlTJjEfYEQbA/tDN+F9WlcEmsAanMsCJUu5TWAcj9iitz4vpZag67AcA1XNuip/WcJjLbjuo1JKWqboOVAensRO5zFhwGlmH5zu2pBKQyCpCOk8oUdsbfu6C6lNmlUC3uCtKAUO0DcsFIZZfHChWqcrQulOIKpTWH3QDgGkaHREza7FVKogVwZvyIxk0aoVD16oYRG4965uTB1Kuo2SytKLZ+P6YZpvVSRRqpQnVpeHYprfhQJ4mAlFDtA1rnVc7/DBVXBDdFfYF2IOwGAKdoDvMsZ2UwU4TYF95pthbDM7Vrf2zbGz7zyhNNMycOrbXgULAyWwPS1NZSUkXKLNJ4FGaX7icshTaxB6SEapfQ2pI9vMS/axL1uVcddgOAY7SGeBpo/d6PdTE28fKj2+L8+4Gw+lsf3mfbCZmbPHW3BYcRzJ4fT2SkhnLWXsdTnl/ZRxVp7BYLS2nDh7WSqCANFN9cRxaqKa44HF9QlcPIhAtcCLsBwBVc2+Kj9dzGuwCbPvu7sf79gKiu3zxt47mYPXPcjmKBmfObLDgKq1nePZZaZaFUkWpd02lUCEtNG/4BNniCjZIKSAnVHKk4lC/YsfQOp2yRVQQ7FHYDgCsYHRKTxu4cASmQoup1jadtPP+zZ46nPn8UJaHTYhGyNhqy7sDc1yIbPB2R3fBpwYcVEglICdXmad3QZ7FAzfe5srTXA4BdCEjjpfEeLtaAlLZe+G72bN6KTcpmxo9oLFpIwxFLj8uGNXIXrfapKeyGv79QVerpeYAlkqogDXwO1aR0fHs0h5OsJSoOtVYER3XBdSnsBgD1ZN454qMxgG6K9W+nrRcJqWlotnIvBzZoUofvySVIq73WAhiXzFeVyqzSXtrvkYYkA1KfQzWtF9xF2w2kIljjU7aWSodCOxh2A4B2tA3GT2WFLosrIB5mB3tOrToEpMuQcTKPWHuAfjHXl93Sfk9QikQlFpD6HKo52pKtNWyr9GfhVNgNAA44yQ8xdloX1sw0A2Jgyw72KImt13FrrtON3bneIAgGLDgUXNBAUIqkJVlBGngcqqmsOHQ0IK20Ipj5owBgF+aPxo/KIwBWmhk/YsUsVJTNqtCrsTtn1opWjrXwWDgoZUYpYkVAWpyyQ7F8NqO24lDmsSxK2rW1VgRX8kXsYtgNAABKwMYwSEr1uqutu4ebm53+sAWHMW9u8lSVBYdhPWkhR3HaCUmt1CAzSs1mTlr3BIHlEg1IFYdqbRWEaloD0mK+RL0KvF0NuwEAWI7ihTUt9kAM5s6992nOK1wl6yZCUnuZB5Qv5rOZPtruEbWkK0gDD6tIXW7J1rpg8u1nyRNjAICPWDgBAEoWCknZCNJe90vbvdY1OiyURkDqTagmv6wa5+KMNnbnipk3pjXs3l7m0ybmjwIAAACA40xI2tida2fjJquZrOVZqkkRFSpIi1dOqKZ1NkZ/Mf8lebKmdXf0ksJOD8JuAAAAAECIbNy0k3NiNVNNOpzPZhitg4okHpD6FKp5UnGoNfAuNbx2OuwGAAAAAFyusTvXFwTB7Ur3U/FFi4SktNyjbGlUkAY+hGry9KIp3sOJRakVh77MlKW9HgAAAAA8JBsWNjOX1GqFlvte308EykNAWppSQrIuGw64DCXNiJWKYI07/DUU+3TJo7AbAAAUoWrVunOcJ/iqas2HfsAPHz4KzSXdSTWp1Xbnsxk6KVGyVAJSH0I1xRWH5VxItF58iv0ZeRF2AwCA4lSvu/pNThWSMHvmuHVriqrq2rctOIx5VXUb5iw4DOvlsxmt48KsJC33rVSTWq2TkBSlSquCNHA5VFNccTjW2J07UMb/zvWKYJ/CbgAAAECFmoZmqvh0U9vtZjr1pJr0brOOtuCQcDlCUpQkzYDU5VBN6xO6sn4m0sattSJ42Z3uPAy7AQAAgCVV1W14lrOjTrOlB6x+HFhjd25Qqkkfoe3eSoSkKFpqAanLoZriluxKQmutF52VflZehd0AADjkJD9MaDc3M9lg21tYt3UX1XL62BqQOkFmk/bKeR7w/XxYiJAURUmzgjRwMVTLZzPmotiS7OFEYlx25iuX1nmXK1UE+xh2AwBwUREPhm0VWydFVd36g3xCkITZ00etDLZqr/o4DyB0sfU67tTnSIJSs368nqDUOiYk1bq2R0LSDkhdDNW0zqusKFCTdm6NT5Obllr4eRx2AwAQtpGzcamq2nWv2XQ8QNKqVq07Z8NJr2lo1tiRmAZbK0idHAkm80lNGLeJ1nur7GXDMiwn1YDUxVDN14A0wr8jDUs9SfL5ZwkAWmitbtSE1kwgJTPjR6xrsTeq1139pgWHgeJpLPpQb0Hr/Q42c7LCYD6b4cEvFpV2BWmgOMy5LFSTX7S2dA6nIuMyXLpSWkcmLPUUiYAUAOzHTW78tAak8VUm1a79cWx/NxAyN3mqysbzUb3uajvuN2tWn7DgKKxmecWcF5vKSlDa39idM9+nt9N+n6oGxbkFYmZDQOpSqOZ1oKa4IrhF2ukvIuwGADU0Xqu1UVmlaxakcf3d9bc+vC+uvxtYaGJf7z22nZT62x7rs+AwgurVDSMWHIbtrL2Gx3mdtpUZhRZqv9+hdONq7bYzjxSLST0gdSlUUxyQRjmv0pW5svwsAUCJRb6PES2N5zf2e8uqug1zcb8GMG92arONJ6Jm05azFhwGVmZrBanX4XaoqrRVNnXaSQt+ovpotcdCNlSQBi6EavLLtT3dwylblBWHroxMoL0eAPRgDmm8NM6uOxL3C9Q0NLPpBhIxe+a4lfelNRtvSH0OqS2VrJazNSD1rnp0KbKpU5+04N8SBMFTVJbGzrTac/3AJWwJSF0I1bTuhjYUZWuDtHdrXDBcrAgm7AYAdQhIY6J4t9fYA1JbdvGG+2YnT33ExjdZs+Ejqc5RpIp7ZXINt3KjL1/mj5bKdNg2dud6FlSWEpbGo5MuJIRZEZC6EKpRcRj735mEwiKQsBsAdNF63daAgHQJ7OKNpMydffdKG0+2qd5MM6SkirsoNq9RCUhXEKosbQ3NLB1Qmp3Yig2bcJEtFaSB4sq3wsKBgDTevzMJhZ8hP0sA0IWNmuKjNSCNfeFdVbf+YNyvARjT77xq7Zy82swnf5nWa1etvfLdtF5bEQJSR4RmlnY1duc2Siv+I1SXVqwtn83QiYR5BKSV68hnMx0Wty4sZzSmikOtM2W3S3s9ASkAKKO4Fdx2WsPn+Fvsa9e9FvdrAAU27mRv1G7ckk3rtavrNvw6rdfWQL4Xmyw91HFTHWnBcaglrfi9oerSu6W6lI2eStej7YARD5sCUrWh2iIb/GgRSzm5hK5Dis8JYTcA6KP14Za15AGwSmbhGPdxszkMkjQ3OX6HjSfc/B5U12+eTuO1q9ddTXHA8mxeo1I9GiGpLh2U6tJmmV26Q9bktOOvjFmkmGdNQKo8VGNDn2T/7jhp/VkyOwWA7whIo6f1nI4k9UJpBUPwz8zpY9ZWya/a/LvfT+WFa9f+OJXXVUBBV5zW4igVZHapacfvCLXj70zy+1EhrUVviJBNFaQBLcKJGo25rYGfZbI43wB818QMqchpDUgTq0yqabgun9RrwW8z775pa6t0UH1F08NJv6bZHKr+1of3Jf26inRZ3hVHQJogacc3mz21N3bnqqQd/yna8S9BQAoCUo/Feq6VVwRrE3fYDQBacHMbEcXz1YMkA1J2skdSZieO1U68/Og2G0+4CSpXXdd+KMnXZAf7Fdk+U5EW+xRJO35PqB1/J2t3HrTDsoCUUC1RSYTRPBlMBg8WAOACAtLoaB5ZkNj9BzMQkaS5c+9ae42rbbw50WOraWhm5+4l5LOZLos3ZwrYO8Eu0o5vqks7Fmz25ONDCO4jPWdbBWlAqJaIsSQ2LyC4SwznGQAuaJCFISogGxV0Kj2Hie6MXFW34dmkXguweQ5p0lWkVWs+9IOkXkuhXssPmbWLpRZs9rQxFJb6gnn2nrMxIOWCGb9EzrEsUHi6G6+kwm4A0IKAtHKaz2GiD9rXbd01VrNpy9kkXxP+snkOaZBwFensRO7ppF5LEwXVowEFUXoUwlKpLN3hwdq+id3s/WZdQEqologkdzxnd/V48UABAC7Vls9mrK2ysp3sfGz77LrlJP69WL3uw8wBRyLm55Du673H1rOdVBVpdf3m6SvuHPhp3K+jjVy/ba8eNVX+BKTKSGWp2RXfzOi83fHd8LmH9JiNFaQBoVqskq44JMCLF78rAHA52xeINutRvDlTkEZlUk1D08tJvyb8NTN+eJfNb95UkZod5uN8jZorb2Tn7cX1KKgeZW2onAm4zW74QRDc4mhQSkDqMVsDUi6c8Ul04SAVwdzExGOc9noAWBRVpGVwoHp0LMn5owVVa67kYSUSM3Py4I02n21TRVp3XftLcb5GzfrNVCAuIG3BGq7frPMdYdahEpTe7th6n53sPWZlQEqoFqs0vpT4IowH5xWoHHOG3EUVaem0V4+m8r1oAiHmkCIpMycOrZ14+dFtNp/wDZ/72/Y4fyd4KLGofgXXb1PcwfrFMTIyodWhzZxaLDgGpMTWCtKA8CcWaX0pcRMTD35HgMrZ3oqG8rWxo33xpPpot5bjXUJq9xs1G294M63Xhn9mTvziK7a/6bqmO3bE8fea4NU8lIjj79Yqn82Yh1ttCg6ftYujZEZpl2zkpB5dSP6yOSAlVIteKl9K0gZORXC0eAILACvrk7ZxrEz7fVfSM9YvUV2f+U5arw3/TB//6c22v+n6bb3PrL7hrsjnE/Iw4lLycEtLxwRrF8eZjZwcCUm5d4yH9cGztQEpoVos0vxS4gsxWpxPICL5bIZZQ+5q4IHryhRVHy0n1e/F9e1PPpjm68Mv87vZv/SQ9fMmTat97VUfPxnl31mz4SOutPFGZVDJaBSKOzwhIelTyt8tawNP2VxBGhACRS7NgeYMU48WvxtAdJhD6rbt+Wymw/eTsBRl1UfLST0IX3XNp3JpHwP8MX3yULeGN1vX9PutUe1qb/6e+tse64vi73JBPpvpVzQvkYeVHmnszvVQ7IZFWF+Za3tASqgWnSEzGyStF5cnhuNpvb6D+N0AosNTYvf1SxCIy2mpPlpOqu31BTUbf+vbaR8D/DH11vCWM688Yf0c7XVbd42t+di9X4ji76rNfPKXUfw9LpAZ252K3grBtn80P3xlBmk8rH+gY3VASqgWKRsqDql6jEaqYTewDK3Xa26C3GcCwEHmkV5KWfXRcqyoTKpe9+G/tOAw4JGZU79WETqZeaRrPvaFr1X699Rc0fT30RyRbjIaaK+iNzHS2J07YsFxIFms/XEZ20eb1VpwDCsZVPZ0zFa2BKT8LCvHlw1sdUDpHEPtsxdRnBapYGFne53VR8uxIiA1lXJTR3+Qmzr6w4wFhwMPTP36+/9Wy7tc/5k9X5qbPH3D+YPPlfWda9rrmfV7MVzQ1kmWaJAvHSOHk3zNCOxs7M45VWVrCnry2cwI99lYoFXWjFayvcU+IAyKxIgNFYdUBEeG3wkgYsyo9EanVE16TcJRTdVHyxmyqTKJNnskyWzWdHr4gce1nHSzadOq69oPlfO/pb3+knBU01iUsaQ3Z1JarerquCetlcO2j2WyNmAsgtWde9YHpIRqkbApUGN2ZmWsCLuBJWj+bBKQ+sPrkDSfzbQ7FI4Gtm38QZs9kjb99r98WdNJb/jDb9xQTkjqe3u90nA0SHEOpbb8wNVxT1oDUqvnOyvPA6xec2moIA0I1SpmU0BK9WNlOH+wmeanmZ3Mp/SKlyGpVI669D2SeGXSSkybfbkVckA5pt95dePESw/1aDp5pYak1fWbp31ur1ccjo6n+J2j7Z60ydHNJNkIFQs12Ny5pyUgJRQq36hlbQb8LCvD+QPio2qBiYp5FZKG2uq171gfZuUOub5XuiF5U8d+tFvbaTchad31ny0qxKq9+hOvxX9EdlIcjhp9KVa6aaxcdLGbieKD+IwqPnYC0goRCpXPqsWffEkOWXAoGtkWdgMLaa/276GK1DsmJHV+d/t8NtPrWFt9kHJl0rJMpZupeLPx2OAmjVWkxhV3DtxSzO72NZt++z8kc0R2kSorreHoeNKbMy2gcc3k4iaSbNAUH81t9p22VkyrCEgJ1Spi4+KBwLs83m8sAutpn4/bkPLNPNKx3SxApUrHKSb4NQFwEATqqsuKkGZl0opWbf7d79t6bHCTxirSQHa3X/uJ+3aaXeoX+//XXvXxk/W3Prwv+SNLlzzYelZx1X/a12iNY59aXLoXUf5eNMyw1TzaLLC1C0hLBWlAqFaWMUsrDpkpWx5+B2C1xu6c9i/qQJ5oujooH0trkZDUmTEL8jk+IAGwa9KuTFpR9RVNDzt31mE1rVWkRv1tj/WtubnztppNW84u/P/VXnXz/0jnqNLhyIMtG67RWu9JXRr3pLkiVsPnR3thSqeNIbqmgJRQrXRWBmoS2mqemZEGW8NuYCEXfredb7nGokyVzp58NjOseaMEWVybhemLtu/CWgGrq0cNU/HGZk1I2uSvhv+L1pNufmc23fv9deG5pPObM31mz5fSPbLkOPRgqyfta7Ssm7TtZB/Y3HpcBhdHBtjEhXzMuofdagJSQrWy2NySTbt4aagehRYuBPkNUk1ISOonMy/rgLQ3qiLz6szi+n6Hf3LWV48W1G7ckrXjSOCLmROH1p7+3s6van67Zi6pabk34agvoyoce7BlijpsWedprSJVv06WjSFd2hTSRtorSI022+63NVWQBoRqJRmzvN2VwK80fPahhQtt9oG0XDOP1F/mpn53Pps5Ijf5VjNVR6byVebVuVo1WmB99WiBaRterGUYiNP5g9/64plXnlB9HTC/O0Ew9/+c/+U/Xu362JtQ1agrD7Zs+s7UWmHXJg88VZICA3UPmRew/rPjyGizQO63rfm8awtICdWKZ/W5oiK4JLaH3UCYS+NQTJvTASpJvWZChr2FoNS2z4K5oZRg9EVPdoo134eqFl2rNv+b/9+Cw4BH5iZPVU2/+4b6NdPsRO7eYHb6JnN9y2cz/Q61Hc8z70dmjbo0DmWosTtn032g5vWT5s98rwOfaS3VmSMWHEMU+m2ZR6oqICVUK4mGkIK5ssXhwQDUsOzGOAotru5wjpLMB6VmhIQs1FP7PMiiuteEtlIx6kMwWqCuIsXMTzStwhYcCjwyefj51ol9vfdofcdSVRm+tnUGQXBYrn2qH1rKNdx0hh12bBO9cQs3GNJ8T9qgcSa+VAK6UA2tJVx3pYiqwZb1lrYK0oBQrSjjjd05DaEabePF4TMPbVx7kGVC0v0aZ1Iicg2yUN8vVaV9SbR/mhtGs8O+qWiWRfVuD1rpFxqxaK5dSeqa2gcUHS4cMTn2wl7F72Sp79vdoQdVqqrrFgSjnRYcUtR6bdtQVsaxaL4nVTXuScItV9b3WvZUcKnLtEHur1Md01E1NzeX5uuXTH7x9qs66OQNNHbnVOwaJxUwvi3ySmHCbtp7F5BA4kWrDqo4j2hrDy2HbDTg6iYxY7IIcO4Bj+LfK1uMyAMtc7N6pNzRKLLoN3/Mz6NV/slGB0Fwi+ZxM+/tvWVqduJYrQWHAo+svvGPBzfckb1b0zsu8btoSOYSW1tMIBV1XY5Viy5kHmBZOStWHm7vtuBQKmH92l4ymmFH7lfUrL/lnvGwBYcSNXNt70pj5ry6GzVzc5zPZsYI1ZalqSV70PHdditFez00cvn3ujCTslee6g9GXTEhN5kbHRxX4Lq2cEtoPpsJJFAvfD4OLDHTqrCo3CjVIrjcU9pncZsq0nOvP32fBYcCj0wefn67abWv39b7jKJ3XcqDZBM6bpe1obn36LfhWiHf4ybQ6vBkzWpba33YoAMBaae02qcSGK3EsXA00NS9adYgjmZj26VbwBSlJFpFra6CNHC/Oqlijd25Ki3HSkXwiu5WMi4hUVSQ2i+fzZz0qOptVG7A56sHy7l5lc90qywymtL4rFBBCkuZG/9WLTvXL4cqUqShZtOWs5vu/f46DSc/ou+hQlg6nNQ9tIRX7fLHl1C0YGfSAUapHOpYHJWQ1JoHhtIO3efYPb/1n+kwGd3h4tiOgjEZ3dAXx71gYc5v4e/WepPWT0C6pCFLj2tRUhE8Tvvg4ghHodiw4+1kYS3yZ75CQZ7kHpFqwaVuYgtVg810RADLsrJiphxUkSINMycOrT31nT8b3vC5v7WyBXqBKB4MNsk68X6p5B+R7+LC+JOKq8MkyG0OjUHxtfp/REmQNOxIgFTYODTxqrqFJFTqd/ReX1sH16DjAWmTrLF257OZodADsIo6+OQ6Xqj07yj83FUGpIRqy9IYqLn+S10uVWE3sMCgRwHpQk2h0NPXcwBE4SmXRk2YHe0nx4Y7qSJF0s4ffK6t+qWHeupve8zaMEtmdbYV8V8t1UrjT1a6xmyUIDSQf7L+vGBcQgUNXKqwM5+/PfL70pvGd6SjVaMF4wpH+vg0kmt7YW0VKkgpvP/lzkNhvn/her7ktVzzDRqh2uIISN1B9Sg0M59fzTvoAkjXWETVZFZZveX//k9nf/q1PXy2kLRzP/u7v66q2/Dsuq27xiw9+UmGt+EHmXGEsj7o0FLdb0JEB+c0ms/ti/lsZiSJoFQqRjvke9nlzid162/zeyiVlb4VZRSu44VreCSzhquj+EtSQnh0uSGNbWjSRj5uwaHYhs841JJrEVXQAMrlTGt9mKngq73q4869L9hvbvJU1eTYd62sjMpnMz2Mm1HlEYXV/f0WHEMcCkHp/IY2sr9HZEylqsy4PCKFD67/nmpdf5MbRERtBakJ1Wizv4zmXwyqSC+lMuwGFnB1NhGAeGlcfBdt1bVtd02/8+o/KzlcOGT6nVc3vv/tzv1X3Dlwiy3vSirTvNjA0hEjSjcc7XdgN/vlhOc0jhU2Di38KWZdmc9mCm3I7aH5uj5lLeOK9/+gcy8i2mcgEapdSvNiwpXh2VHhKRDUkwdZrrU0AYiX1sV30epvfXjf7PtjI2YupJJDhkMmDz/fevp7O79qZuJa8q5cnWXoolFFc0cvYTZ08agNuUnW1RfX1ovM3g1jtu4FatffHrfZR05zi33g2UDalYxWupNXyggEL8VnG65wtaUJQPQ0bfpRkZqNWzqr6zdPK34LUOzc60/fN7Gv956034HsIkyBhA7jDow+0bDjfpyaQpuWhf8Qjl6g/fPBmisC2gNSQrUPqP6FYF7hJbSH3UAYX9YAitXuy3gZs1FO3fV/8FcWHAo8de71rz9tQUjqe2ClSYfC3b0vIaNbRi06JNhjxIHP96BUCaMCqgNSQrVLuBAWE3hfQKAEZ0jYP8BPFMAKdmhfnJRqffuTD6665lM5XUcNV5hNm87/Yui/n3nliVTG4JgNZYIgaOEDpcIOh+ZCE8pjMa58LsgRKqS9gjQgVJvnSsUhP8sLOA9wDZsvAFjOQGN3zsub+lXXfHprVd2GOQsOBR6anThWe/7Qc28kHZLKTtsub5jjkh0uXZ/lvVBlh7AxxZszLdQn4zBQJgJSNzjxRE8qgkcsOJQ00V4P51BFCmAZQ43duS5fT5BptV/9O3/0pAWHAk/NnDi0NoWQlConHZ5y9OGVt985WJQzhRySp5CPVUB9QCofAt9nibj0xeX7LzSbM8FVVJECWGiUhSqt9khfkiEprfVqmMr+HhffmIwL8L0oBxeMOvgQgDVXBVyoIA08fwo55tjMLt8DUp6ow0lUkQJYYNSnTK25wAAADqJJREFUTZlWQqs90pZESEprvRoDHlT2Oxn+omTOfQ5Yc1XGlYDU51DNqfcuv9C+VgS7FnYDC/UyFweAzH8jHA0xrfZrPvqnf27NAcFLcYak+WxmI4UQKvgQjgay5nrKgkNBeoYc2nxsoR7WXOVxIiD1PFRz8UbD1ypKbhrhNLlWs3so4Ddzw95BOHq5+tse66u7/rM8KEWqYgxJzfd/Kjvmo2g7PZsJ3cuGTd4ad7mKWO6xWHOVwZUK0sDTUG3c0acevs7hJCCF8xq7c73MjQa8NS6Vo4SAS7jizoFbajZtOWvlwcEbhZB04uVHt0XxnvPZjAndOvkEWc3sVu9VoCIhEq32fur1YGPkPh4AlM6lgNTHUM3JQE0WTr79MrsadgOL4WYU8M8Y4Whx6q7/v/6AeaRImwlJz7028NLEvt57KjkUmTtKJZO9xiUc9bKDr7E7N0irvXdGfHgYwAOA8jgTkHoaqrlccehbNSXVo/CGPAzgZhTwh6kabyUcLU79rQ/vYx4pbDA3earq3Otff/r093Z+tZzDCc0dbeAHaqVCVb/vm8TS3eQP85n3ZoyEPAAYsuBQ1HCpgjTwLGQalw+8q3z7oiYghVcau3M93IwCXmC3+jKYeaSrb/xj7g2Qugsh6dP3nfrOn5XT6TTI3FFrmWtzMw+uLlbadbGpjRe6PGitX4jPdglcC0h9CtWcvmn2rCLY9bAbWApf2IDbhghHy7fhjuzdq65rP6T1+OGW8wefaxv/5vZjxW7elM9mzLqsjY+BlQa4Nl9K1p60I7vtER/X3KEHACiCUwGpZ6GaD/MqfZnJSTgKL3EzCjhtoLE7x271FWr4w2/cwKZNsMXU0R9mzr3xzMGV5pKyKZPVzLzRLq7Nl5NRA4/YdlyIxJBsFOslCYYH+CitzLUK0oBQzSm+BIdszgRvyc0o80gBt8wvwPmZRmP1lrtuIiSFLWYnjtWePfA33zj1Qvezix1SPpvpCIJgLz8w65iW+luYN7o8CdEIktwySgXlPMabFcHFgNSHUG3Ih6d+8qTDh/ZbKkjhNZlHys0ooN84C/Dordu6a6yu6Y4d7GwPm5x/8x86Tj5zx4lwy73sWM/vv32ekpZ67+eNFkMe8HFf6gbmoAs5Bx2MN1uecwGpJ6GaT4Ga6+/Vi7AbKAJPNQHdRtjwIz7123qfWfOxe79ASAqbTL/z6sazP/3a4dPDDzwu4egwO9ZbxayJ7zYPollvlIz7Uv0IRxeQDararTooy7hYQRp4EKoRkLqD6lHgg6ea7dyMAiqZjQ9YhMRsPiT96J/+udNvEurM73L/2sCu6vrM3xGOWmVAHlqx1ihD6L50SN3BIyAcXZo8yN5h6/GljYBUn1GfftE9+FLnpgUQhKSAOmZjzNt93vggafW3Pda35mNf+Jpf7xq2W3Vd+6EP7TjwO6ZakfbN1BWuy2zEVCFz/sxmg7Tbq0M4ugIZhURIuggnA1LHQzUf5/q4+uTOq7AbKAYhKaCG+W5ubezOsdFgwtZ/Zs+XCElhCxOONvzhN24IPliDNbP5YirGpZq/metytJhJqgrhaJEISRfnagVp4HCo5mPFoavvmSH2wCIISQGrjclMuw4WIOkhJIUNwuFogVTdmfmN18tsYsRvQB5YUc0fEwlJCZPsNtDYnWvl3qR4hKSXczkgdTFUG5XBur5xNSClvR5YgiywWnliD1jlKVmE8/1lAUJSpGmxcDTMrFnMbGLT7k1QGhtzXm+Rdnof14iJkjDpFsZIWGmnhNgoESHppQhIdfFyQSJPgVyrCPY17AZKIjc7OzlrWAaVxvErLMLZCdkyhKRIw0rhaJhp9w4FpVyvozEic0bbZcMVJETOdzOhvzXG5Xehz/cTUYlQSOp9+O9sQOpoqOZzxYZrs3SovgGKJDc9t/OljSUM0soZG9NOv4NFuN1MSLr2E/ftrKrbMOf7uUD8Vt/4x4PFhqNhEpS2UlFakXAwypzRlEiXU7s8wOfeND0m62HmbkQkJG33/TPtcgVp4FioNub54sS1QJGAFCiB3PzwxB6LopUzcuHNPpiXrcCF3e3v/QIhKeJkqpU33JG9u5KXWFBRyhid4pjzdD3BqF3kAX4r9x2JG5eWemahR4wKafcDUpdCKK8DNWlHd6Utx/ewGygLT+yxkgULbxYspZsPRqUig80+lKnf1vuMCUlrNm056/u5QLRM8L7m5s4nTLVyVH+xXK+7pAPgEalYxwfG5H5nEzNG7RV6QEt7cjKGZBY6LfUxCa23HnHyDa7A6YDUsVCNCg53zgHVo0AFQk/sXRujgogQlJZsLByMUpGhlwlJV2+56yZCUkRlPhz92L1fWN/+5INxnFQJmMx1x1Qt3e35d/u4VIveLhX8fVyPdZBui2ZfQ6UEjMnvRQcPC5IhD8pv8e3hlesVpIEjoRoVhxe4EiwSdgMVkgVVhwRgVJ1gUaGg9BZaORc1KjNGCUYdsm7rrrFN935/ndlIx/dzgcqYoH3tJ+673gTvSZzKxu7coHy3b5KKPF/C0iF5v81SLUobvUJSedcrVdHcc0Sj0E7PrNEUSAbV6lPw70NA6kKoxsXgg4pg7UEIYTcQIQnAmmVhQVCKRZnrLq2clyhUKLUyY9RdZiMds6GO7+cB5TEBu6lGNoF70qdQgqb+BWHpgEMtzGPyfu5u7M5VSVVcPw+p3CAP8bsISisSHvlDO32KFgT/zndl1VpwDLEyF6h8NmO+hJoUvw1ubj9gzsX9thxMGQi7gRhIyNOfz2bMDWmv8ms+YiIP2sznozefzZiFd+FPgwfn3FSLmkXGIItwf5gNdapXN/Sc+9nf/fXc5Kkq388HimOC9Uo3Y4qKXK/6Cx1Y+WymVa7b7VLZpOH6PS5rgPk/FEv4Qe45uvLZTE8QBOZPF/enKxqT33XGS1hGPs/t+WymXe4nW1x8n84HpEJzqDZu2k0sOA5b9CsPSPlZAjEKBaXtcjO6nfONxch362A+m9kYCkpd+7yMyvfmIDO7/GV2uA9q1/548vA//tPMiUNrfT8fWNr8vNGP/umfz39mLCXh4sWAUQLT8J82C458RI5x/g+BqN8k6Cs8nO1y9H6jUuZ3pp+uFvvJqINW+Sz3uBaUVs3NzVlwGPGSL879Sg9/QEr0IfLZzBGlT99M2L3RguNQT8KvFxW+j0fYGTpZ+WymWW5EexRdN8zT88RnkPF7dUGosrRd4XdNoUppUKqUCEVxife/3bl/8vDzrZwVLFR71cdP1jX9fmsaLfVRk+/+ZrmOB6F/RlVxOh4Kac0196T85yNcd1GM0P1pl6uVeEUYL1SH8xBBL0eKUm4vrLu8qCA1v3CK2+ypOLyc1opgfpZAwmShYiph+kJteR0W3oyOyTWCm8SUFSpLgw8WMO2hP7bdRxQW6YW2Tca4YFlX3Dlwy+nhBx4///NvPkDLPQpW33DXyIbP/W27KydEvvuPLDfaSu4JSilcIPxEZBbcnzaHHsy6Xlk6LvdYg3TJukHuPYflc9yldJTExXEOXlSQBh9UhGh8Ys78jQVCv3zaDBJ8REPxZ4AAwxKhtupWuSFNOjAdXRBspb7oooJ0ZfK5aQ3NvmtO8LMzFlrwF9o2WayjLGdeeaJp6ugPXpk6+sMMZ9BfZpf6uqY7diS1Sz2AlUlu0Z7S/WkcRgvdLayD/CAPoArjJGwNS0dDFcz+BaQAACxHAsJC6FWoLInixnREgq2L4RYPvtwSaucs/AlCn6Gwhe2di+0GWlg8FFo2T/JwDXE59UL3s5OHn99ONal/6q7/7IHaK2/qcKGlHnCZ3J+m8WC2XCMLigC45/WYhKXhbqy0NtYrqjiFgBQAgBXIzWlYOAgLQgFoAaEWABUmXn5029SvRp6bfudV5qR7YL5q9Nr2/2zzRkwAlif3pc0LHupHNWO3WKPyMHdY7oHZkAwrWmRjvTg+t+ERVAdKCeoJSAEAAADPMZvUfa7NGgVwudA4oCAUnIYtfMi/mJOhjciCBYUAdEIhcqFilHAH1mKf34KFn9H5DqxKxzgQkAIAAACYn006/e4bg+x07xazQ/2qa9vuqr/14X2+nwsAAJZCQAoAAADgool9vfdM/eb7f0PbvW7V9Zun667/g79a3/7kg76fCwAAVkJACgAAAOAypu1+8vA//b+zE8dqOTt6VNVtmKu7rv0l2ukBACgeASkAAACAJZ3+3s6vTo4NdxKU2s/MGa3ZuKWT3ekBACgNASkAAACAZZn5pDMnDw1MvjV8Gxs52WfVde2Hahtv7mLOKAAA5SEgBQAAAFCUQlA6dezHv0dFabpMK31t5pO/JBgFAKByBKQAAAAASkbrfToKM0ZppQcAIDoEpAAAAADKZjZzmn77X77Mrvfxmt+Vvql9oHrdh/+SYBQAgGgRkAIAAACo2MTLj26bOfGLr0z95uUW5pRGZ36+6MYt2frbHutz5T0BAGAbAlIAAAAAkTLt9zMnf3nn1NEfZjizpavZtOVs7dW3PF+z4SM9VIsCABA/AlIAAAAAsZjf1OnUr/umj+//7MyJQ2s5y0szLfS1V3/itZqG65+o39b7jK3HCQCAiwhIAQAAAMTOtODPTuT+48x7b7Yzr/QCUylas/GGNwlFAQBIFwEpAAAAgESZytLZM2//xczpY+0z777Z5MtO+GYH+trGj71dveHaV6rrM/+t/taH91lwWAAAeI+AFAAAAECqJvb13jN7Nv/52VO/2joz/lajK4GpCURrGprHaxqaR6vXXT3IRksAANiJgBQAAACAVUw7/tzkqTvnzr336ZnxIy0z40caNOyMX3vVx09Wr7/mSPXaD/2kqq7hBdrmAQDQgYAUAAAAgPVMW/7c5Km7Z8+Pt81NnmqePX20eW76zOqkN38ymylVr2s8XbX2yner6zb82lSGBrVrf0y7PAAAehGQAgAAAFCtEJ6a9zA3febmucnTNxTez+yZ4zfOTZ1ZU+z7M+3wH/yH1SeqVzeMzP87ISgAAG4KguD/AHF5VCE9kdVYAAAAAElFTkSuQmCC;fontFamily=Helvetica;" parent="GLOqXwlAp-iV12XzMzbL-4" vertex="1">
          <mxGeometry x="152.88" y="51.74999999999994" width="127.58968888888899" height="23.306666666666683" as="geometry" />
        </mxCell>
        <mxCell id="GLOqXwlAp-iV12XzMzbL-13" value="" style="group" parent="GLOqXwlAp-iV12XzMzbL-4" vertex="1" connectable="0">
          <mxGeometry x="622.2222222222222" width="97.77777777777777" height="62.18518518518514" as="geometry" />
        </mxCell>
        <mxCell id="GLOqXwlAp-iV12XzMzbL-14" value="" style="group;fontSize=13;" parent="GLOqXwlAp-iV12XzMzbL-13" vertex="1" connectable="0">
          <mxGeometry x="31.111111111111107" width="35.55555555555556" height="36.62962962962966" as="geometry" />
        </mxCell>
        <mxCell id="GLOqXwlAp-iV12XzMzbL-15" value="" style="shape=note;whiteSpace=wrap;html=1;backgroundOutline=1;darkOpacity=0.05;size=13;fontSize=13;" parent="GLOqXwlAp-iV12XzMzbL-14" vertex="1">
          <mxGeometry width="35.55555555555556" height="36.62962962962966" as="geometry" />
        </mxCell>
        <mxCell id="GLOqXwlAp-iV12XzMzbL-16" value="" style="endArrow=none;html=1;rounded=0;fontSize=13;" parent="GLOqXwlAp-iV12XzMzbL-14" edge="1">
          <mxGeometry width="50" height="50" relative="1" as="geometry">
            <mxPoint x="2.9629629629629632" y="15.593756613756636" as="sourcePoint" />
            <mxPoint x="32.592592592592595" y="15.593756613756636" as="targetPoint" />
          </mxGeometry>
        </mxCell>
        <mxCell id="GLOqXwlAp-iV12XzMzbL-17" value="" style="endArrow=none;html=1;rounded=0;fontSize=13;" parent="GLOqXwlAp-iV12XzMzbL-14" edge="1">
          <mxGeometry width="50" height="50" relative="1" as="geometry">
            <mxPoint x="2.9629629629629632" y="20.93121693121695" as="sourcePoint" />
            <mxPoint x="32.592592592592595" y="20.93121693121695" as="targetPoint" />
          </mxGeometry>
        </mxCell>
        <mxCell id="GLOqXwlAp-iV12XzMzbL-18" value="" style="endArrow=none;html=1;rounded=0;fontStyle=0;fontSize=13;" parent="GLOqXwlAp-iV12XzMzbL-14" edge="1">
          <mxGeometry width="50" height="50" relative="1" as="geometry">
            <mxPoint x="2.9629629629629632" y="26.164021164021186" as="sourcePoint" />
            <mxPoint x="32.592592592592595" y="26.164021164021186" as="targetPoint" />
          </mxGeometry>
        </mxCell>
        <mxCell id="GLOqXwlAp-iV12XzMzbL-19" value="" style="endArrow=none;html=1;rounded=0;fontSize=13;" parent="GLOqXwlAp-iV12XzMzbL-14" edge="1">
          <mxGeometry width="50" height="50" relative="1" as="geometry">
            <mxPoint x="2.9629629629629632" y="31.39682539682543" as="sourcePoint" />
            <mxPoint x="32.592592592592595" y="31.39682539682543" as="targetPoint" />
          </mxGeometry>
        </mxCell>
        <mxCell id="GLOqXwlAp-iV12XzMzbL-20" value="yaml descriptor" style="text;html=1;align=center;verticalAlign=middle;resizable=0;points=[];autosize=1;strokeColor=none;fillColor=none;fontSize=13;" parent="GLOqXwlAp-iV12XzMzbL-13" vertex="1">
          <mxGeometry y="36.62962962962956" width="110" height="30" as="geometry" />
        </mxCell>
        <mxCell id="GLOqXwlAp-iV12XzMzbL-21" style="rounded=1;orthogonalLoop=1;jettySize=auto;html=1;entryX=0;entryY=0.5;entryDx=0;entryDy=0;exitX=1;exitY=0.5;exitDx=0;exitDy=0;" parent="GLOqXwlAp-iV12XzMzbL-1" source="GLOqXwlAp-iV12XzMzbL-11" target="GLOqXwlAp-iV12XzMzbL-26" edge="1">
          <mxGeometry relative="1" as="geometry">
            <mxPoint x="467.7777777777778" y="0.23148148148106884" as="sourcePoint" />
            <mxPoint x="196.66666666666652" y="232.14814814814804" as="targetPoint" />
          </mxGeometry>
        </mxCell>
        <mxCell id="GLOqXwlAp-iV12XzMzbL-22" value="UpdateAcl&amp;nbsp;&lt;span style=&quot;background-color: light-dark(#ffffff, var(--ge-dark-color, #121212)); color: light-dark(rgb(0, 0, 0), rgb(255, 255, 255));&quot;&gt;request&lt;/span&gt;" style="edgeLabel;html=1;align=center;verticalAlign=middle;resizable=0;points=[];" parent="GLOqXwlAp-iV12XzMzbL-21" vertex="1" connectable="0">
          <mxGeometry x="-0.8469" y="2" relative="1" as="geometry">
            <mxPoint x="66" y="17" as="offset" />
          </mxGeometry>
        </mxCell>
        <mxCell id="GLOqXwlAp-iV12XzMzbL-23" value="" style="group" parent="GLOqXwlAp-iV12XzMzbL-1" vertex="1" connectable="0">
          <mxGeometry x="-60" y="109.99999999999989" width="506" height="525.3600000000001" as="geometry" />
        </mxCell>
        <mxCell id="GLOqXwlAp-iV12XzMzbL-24" value="" style="group" parent="GLOqXwlAp-iV12XzMzbL-23" vertex="1" connectable="0">
          <mxGeometry y="65.36000000000013" width="450" height="460" as="geometry" />
        </mxCell>
        <mxCell id="GLOqXwlAp-iV12XzMzbL-25" value="Confluent Kafka Tech adapter" style="rounded=0;whiteSpace=wrap;html=1;fontStyle=1;strokeWidth=2;fontSize=13;verticalAlign=top;fillColor=#dae8fc;strokeColor=#6c8ebf;container=0;" parent="GLOqXwlAp-iV12XzMzbL-24" vertex="1">
          <mxGeometry y="35" width="450" height="405" as="geometry" />
        </mxCell>
        <mxCell id="GLOqXwlAp-iV12XzMzbL-26" value="A&lt;br style=&quot;font-size: 13px;&quot;&gt;P&lt;br style=&quot;font-size: 13px;&quot;&gt;I" style="rounded=0;whiteSpace=wrap;html=1;fontStyle=1;strokeWidth=2;fontSize=13;fillColor=#dae8fc;strokeColor=#6c8ebf;container=0;" parent="GLOqXwlAp-iV12XzMzbL-24" vertex="1">
          <mxGeometry y="20" width="29.61" height="440" as="geometry" />
        </mxCell>
        <mxCell id="GLOqXwlAp-iV12XzMzbL-27" value="6 - Report outcome" style="shape=process;whiteSpace=wrap;html=1;backgroundOutline=1;align=left;fontSize=14;spacingLeft=6;container=0;" parent="GLOqXwlAp-iV12XzMzbL-24" vertex="1">
          <mxGeometry x="47.36842105263159" y="360.64" width="379" height="40" as="geometry" />
        </mxCell>
        <mxCell id="GLOqXwlAp-iV12XzMzbL-28" value="4 - Assign Read permission for topic" style="shape=process;whiteSpace=wrap;html=1;backgroundOutline=1;align=left;fontSize=14;spacingLeft=6;container=0;" parent="GLOqXwlAp-iV12XzMzbL-24" vertex="1">
          <mxGeometry x="50" y="236.64" width="377.37" height="42.36" as="geometry" />
        </mxCell>
        <mxCell id="GLOqXwlAp-iV12XzMzbL-29" value="3 - Mapping between Witboost identities and Kafka principals" style="shape=process;whiteSpace=wrap;html=1;backgroundOutline=1;align=left;fontSize=14;spacingLeft=6;container=0;" parent="GLOqXwlAp-iV12XzMzbL-24" vertex="1">
          <mxGeometry x="48.370000000000005" y="186.64" width="379" height="40" as="geometry" />
        </mxCell>
        <mxCell id="GLOqXwlAp-iV12XzMzbL-30" value="1 - Validate request" style="shape=process;whiteSpace=wrap;html=1;backgroundOutline=1;align=left;fontSize=14;spacingLeft=6;container=0;" parent="GLOqXwlAp-iV12XzMzbL-24" vertex="1">
          <mxGeometry x="47.36842105263159" y="84.63999999999999" width="379" height="40" as="geometry" />
        </mxCell>
        <mxCell id="GLOqXwlAp-iV12XzMzbL-31" value="2 - Extract descriptor metadata" style="shape=process;whiteSpace=wrap;html=1;backgroundOutline=1;align=left;fontSize=14;spacingLeft=6;container=0;" parent="GLOqXwlAp-iV12XzMzbL-24" vertex="1">
          <mxGeometry x="47.36842105263159" y="135.64" width="379" height="40" as="geometry" />
        </mxCell>
        <mxCell id="GLOqXwlAp-iV12XzMzbL-32" value="5 - Assign Read permission to a consumer group (name to use is derived from a naming convention), so authorized users can join it" style="shape=process;whiteSpace=wrap;html=1;backgroundOutline=1;align=left;fontSize=14;spacingLeft=6;container=0;" parent="GLOqXwlAp-iV12XzMzbL-24" vertex="1">
          <mxGeometry x="50" y="290.64" width="377.37" height="59.64" as="geometry" />
        </mxCell>
        <mxCell id="GLOqXwlAp-iV12XzMzbL-33" value="Idempotent, i.e. does not fail if something it provisions already exists" style="shape=callout;whiteSpace=wrap;html=1;perimeter=calloutPerimeter;flipH=1;spacing=4;flipV=1;fontSize=14;position2=0.64;base=25;size=30;position=0.56;direction=west;" parent="GLOqXwlAp-iV12XzMzbL-23" vertex="1">
          <mxGeometry x="256" width="250" height="100" as="geometry" />
        </mxCell>
        <mxCell id="GLOqXwlAp-iV12XzMzbL-34" value="ZooKeeper&lt;div&gt;ensemble&lt;/div&gt;" style="rounded=1;whiteSpace=wrap;html=1;" parent="GLOqXwlAp-iV12XzMzbL-1" vertex="1">
          <mxGeometry x="730" y="212" width="120" height="60" as="geometry" />
        </mxCell>
        <mxCell id="GLOqXwlAp-iV12XzMzbL-35" value="" style="group;labelPosition=center;verticalLabelPosition=bottom;align=center;verticalAlign=top;" parent="GLOqXwlAp-iV12XzMzbL-1" vertex="1" connectable="0">
          <mxGeometry x="582.5" y="292" width="415" height="220" as="geometry" />
        </mxCell>
        <mxCell id="GLOqXwlAp-iV12XzMzbL-36" value="Kafka Cluster" style="rounded=0;whiteSpace=wrap;html=1;labelPosition=center;verticalLabelPosition=bottom;align=center;verticalAlign=top;" parent="GLOqXwlAp-iV12XzMzbL-35" vertex="1">
          <mxGeometry width="415" height="219.99999999999997" as="geometry" />
        </mxCell>
        <mxCell id="GLOqXwlAp-iV12XzMzbL-37" value="Broker" style="rounded=1;whiteSpace=wrap;html=1;labelPosition=center;verticalLabelPosition=top;align=center;verticalAlign=bottom;" parent="GLOqXwlAp-iV12XzMzbL-35" vertex="1">
          <mxGeometry x="17.5" y="33.930348258706466" width="120" height="152.13930348258705" as="geometry" />
        </mxCell>
        <mxCell id="GLOqXwlAp-iV12XzMzbL-38" value="Broker" style="rounded=1;whiteSpace=wrap;html=1;labelPosition=center;verticalLabelPosition=top;align=center;verticalAlign=bottom;" parent="GLOqXwlAp-iV12XzMzbL-35" vertex="1">
          <mxGeometry x="147.5" y="33.930348258706466" width="120" height="152.13930348258705" as="geometry" />
        </mxCell>
        <mxCell id="GLOqXwlAp-iV12XzMzbL-39" value="Broker" style="rounded=1;whiteSpace=wrap;html=1;labelPosition=center;verticalLabelPosition=top;align=center;verticalAlign=bottom;" parent="GLOqXwlAp-iV12XzMzbL-35" vertex="1">
          <mxGeometry x="277.5" y="33.930348258706466" width="120" height="152.13930348258705" as="geometry" />
        </mxCell>
        <mxCell id="GLOqXwlAp-iV12XzMzbL-40" value="Partition" style="rounded=0;whiteSpace=wrap;html=1;" parent="GLOqXwlAp-iV12XzMzbL-35" vertex="1">
          <mxGeometry x="47.5" y="55.82089552238806" width="60" height="32.83582089552239" as="geometry" />
        </mxCell>
        <mxCell id="GLOqXwlAp-iV12XzMzbL-41" value="Partition" style="rounded=0;whiteSpace=wrap;html=1;" parent="GLOqXwlAp-iV12XzMzbL-35" vertex="1">
          <mxGeometry x="47.5" y="99.60199004975124" width="60" height="32.83582089552239" as="geometry" />
        </mxCell>
        <mxCell id="GLOqXwlAp-iV12XzMzbL-42" value="Partition" style="rounded=0;whiteSpace=wrap;html=1;" parent="GLOqXwlAp-iV12XzMzbL-35" vertex="1">
          <mxGeometry x="177.5" y="55.82089552238806" width="60" height="32.83582089552239" as="geometry" />
        </mxCell>
        <mxCell id="GLOqXwlAp-iV12XzMzbL-43" value="Partition" style="rounded=0;whiteSpace=wrap;html=1;" parent="GLOqXwlAp-iV12XzMzbL-35" vertex="1">
          <mxGeometry x="177.5" y="99.60199004975124" width="60" height="32.83582089552239" as="geometry" />
        </mxCell>
        <mxCell id="GLOqXwlAp-iV12XzMzbL-44" value="Partition" style="rounded=0;whiteSpace=wrap;html=1;" parent="GLOqXwlAp-iV12XzMzbL-35" vertex="1">
          <mxGeometry x="307.5" y="55.82089552238806" width="60" height="32.83582089552239" as="geometry" />
        </mxCell>
        <mxCell id="GLOqXwlAp-iV12XzMzbL-45" style="edgeStyle=orthogonalEdgeStyle;rounded=0;orthogonalLoop=1;jettySize=auto;html=1;exitX=0.5;exitY=0;exitDx=0;exitDy=0;entryX=0.5;entryY=1;entryDx=0;entryDy=0;dashed=1;endArrow=none;endFill=0;" parent="GLOqXwlAp-iV12XzMzbL-1" source="GLOqXwlAp-iV12XzMzbL-36" target="GLOqXwlAp-iV12XzMzbL-34" edge="1">
          <mxGeometry relative="1" as="geometry" />
        </mxCell>
        <mxCell id="GLOqXwlAp-iV12XzMzbL-46" value="Schema Registry" style="rounded=1;whiteSpace=wrap;html=1;" parent="GLOqXwlAp-iV12XzMzbL-1" vertex="1">
          <mxGeometry x="730" y="562" width="120" height="60" as="geometry" />
        </mxCell>
        <mxCell id="GLOqXwlAp-iV12XzMzbL-47" style="edgeStyle=orthogonalEdgeStyle;rounded=0;orthogonalLoop=1;jettySize=auto;html=1;exitX=1;exitY=0.5;exitDx=0;exitDy=0;entryX=0;entryY=0.5;entryDx=0;entryDy=0;curved=1;" parent="GLOqXwlAp-iV12XzMzbL-1" source="GLOqXwlAp-iV12XzMzbL-28" target="GLOqXwlAp-iV12XzMzbL-37" edge="1">
          <mxGeometry relative="1" as="geometry" />
        </mxCell>
        <mxCell id="GLOqXwlAp-iV12XzMzbL-50" value="Kafka" style="shape=image;verticalLabelPosition=middle;labelBackgroundColor=default;verticalAlign=middle;aspect=fixed;imageAspect=0;image=data:image/png,iVBORw0KGgoAAAANSUhEUgAAAJoAAAD6CAYAAABZC15NAAAABGdBTUEAALGPC/xhBQAAACBjSFJNAAB6JgAAgIQAAPoAAACA6AAAdTAAAOpgAAA6mAAAF3CculE8AAAABmJLR0QA/wD/AP+gvaeTAAAAB3RJTUUH6AwIDRcC1dKASAAAJ59JREFUeNrtnXlgHWXV/7/nmXvTpEmbrdDS3tyZu7QpBFkMuyxhe0FkUfYdFEUWFX6K4PYq+lNEXHADBF9AWxAELJuyWwqUnVpEim16l5mbtKWUZmvTLPfOc94/kvpWSdok88zMvWHOPy00eeY5z3zmPOc8yzmEIpFIJFJXHgodAuYmBuYTUyMTZgCoBlAJIAygB0APCD3E1CqZWwXoHY3ki6ssK4tAilbIz4fHYrE9hZTnAHQUgD0BCAfNmQQsZvADact6CoAdvN4PMWhNOzVV9VX2fpYYnwawh0uPWQfQH6TAr7LZrBW85g8RaNFotDYE8UUifAlAvUePzYNxN4fEDzOZTGvwuic3aJSIxs4D8U8A7OSPmlwA0c0UCv13KpXqCV77JANtrq7vKkG3AziwSPRdQ5IuS7VlHwle/SQBLRmNncckbwaoqgi1vq28svKLK1asGAwQKFHQWoBQm67fDNDnilpxxmsFgZNM03w3wKDEQEsmk1M4X/gDgJNLQXkGsrDFMZn2zOoAhRIBrWmnpqr+qZsfB+jgEhuD9ZDaUem29NsBDu6JUNFIc3NzuL+i94EShAwAZkLYTxqGYQQ4FDdoomvDxoUgHFPC4zBbYzwxb/a8GQESRQpa0jCuAeGMSTAWjXZ48I8AtAAL9aI5hOwAZiyYRC8nVldTPdjZ3f1CgEaRBAONjY3TCn0DK0BomFxDwgVBdPBq03w1wKMIpk67b+B7kw8yAKCQZNwcTKFFMHXGYrE9Cfw/AAl3u8cFgHIApQFaR0Pn0aZi6Gyam7JLXU3ths7urtcCRHycOhO68TiAY13q0T8Y+ANs8UzF9Iq3RtgmongkniTBLQw+lQhHumR9NpZvqTRWbFixOcDEB9AS0WgzSLzhQl+eFYKuXZ3NPj9O69ooJF8H4FNQvqVGV6et7I8DTPwATTf+BKVbTLyZWFyaymXvchQB6/qBzPR7EOYqHJ93B+xCvL29vS9AxcNgoLGhYTaAkxRC1g7mFqeQAUDKsl7OQ+4P8DMKx2dWmaZ9KsDEY9AKInSOQn/oHYRCzelcbpkqZXK5XGeDZX2cQHcrM/lM5weYeL28QXyeKkebpH1iOp1+T7VCS4ACwtpFAF5S5Fwcpev6LgEqHoFmGIYBxkcUPNMG+LRUW1vaLaVSqdSAFHQywO0KmtPCwHEBKh6BJpiPUBR9LEhb1rNuK5bNZtcD+JKKtiTQEqDi3dR5uILn9XNI+45XyqUt60GAXnT+cdCRASpeWTTQPgrM2W3pdLrNSwVJ4gYFzeySnJOMBLi4DFoLEGIgoeBhd3qtYKQt+xgAx0GH1AYbA1xcBi0Xj8fheH+R21eb5pteK7gEKAD8pPOREvMCXFwGjQusK5jElvqlJEE877wNGAEuLoNGJKc7fRAz/umXksy282dLTA9wcR00mqYgclvnm0Vjdnx3U8UYBKDt+EVNVTD1+LYxbYdCjo/6MLgywMVl0AAMKHCUyv1SskzKqQqa6Q9wcTsYIOp1/ii5s19KSiLHz2aoGIMAtB15092OXxSRb+tQUip5dneAi/s+mvOsicwH+aYlScc36IlhBri4DFq/lFkA7PBVJePx+DxfdGRyfL+BQUEyZrdBGz7K7Niqkc0XeK1gQtdbVFwLJEkrA1zcjzoB4BXnj+MvJhIJj4MC+paCfr+fbk+nA1w8AI1ZBWiYRnn7614pl4zGToCK401ELzl3HQLQxiQa8VMqHsiEy2Kx2J5uK9bY2DiNhxI0Kwhb6ZkAFY9AW21Z/yRAhZ9SJiQ/7PIUKgoDA3cBUBF8MMLioQAV73w0MGiRoufqKMhFs2fPnuqGUgldvx6ME9W4eHjD68OaH3rQNLZvByDVPJo/NjVc9lIsFtNVKZNMJqckdeMOgL6qbIQk/TbARMX3Ol5rETWeUJzd8V1meW4ml/urk0bmRaNxm8RdUFvToKuyvy/y1vr1JbH91NTUVDa4eXNCAvMJ2EUyTQNQLQQEMw8yU68g2mgzLGhozWazOa+CnHGDFovGjhaKAoP/6MpfIMXXxpu0eN7seTPsssFvgXEpgDLFo3ND2jSvKVaw4vF4tZCyhYEjMHRLbT5AoXE0sQXA68xYDIjF0VzmlSVAoShAA4CEYTwPxiEu9McG6Ali3FsQ/MxoNQD2mDmzsrei4hBinMbAqYArhxJ7woV8fOWaNRuLCa7m5uZw94aOY1nweWCcACg9FbOeGPeAeEHKspb7DlqsIXaIEPwc3K4lxWgDIQNgIwg2ATXM0AHE4HKONGZcm8mZ3y0WwGbPnj21IlT2WQBXeZQA8SUGX5exrMdUTK8TBiURNX4HwgWYlMKpAdveo0iyCGmJaOwyEH8LgB9HrZYT4csp01ziC2jzZs+bYYcH/gnQZEuZzszyaKfBiQqZaxj7S8YtAPb2fUzAd0uir060pNGEU4O2rm19n4ELMNm2Zgi/KgLItKRhXCsZLxYBZABABDpXY7wd1/VPTEghJ0/v7O5eXVtTU03FUybR6Yf7BoXDZ3V0dPhWJlvX9V1m1NQ+DOBCKKpso1CmEuisuprqqj27u581x7Gm6jjXWTyZWNzf27cfCMkSp2ydTXRsJpPxLco0DGN+CPQchurLF6/NBx3UU1PbXFE59aFNmzblXfXRtpXGxsZphf6B54rEzE9oKYPALapD+nF9sA3xfUjIx+BbleYJEMd4TRTKPtG6tvV9T0ADgEQisTMV7Ke4uL/GESGTko7PtmV9q5Yy1zD2kowlAKpL0d0o31J1+I6ylytdB4tEInVTQqEnwNi3REZpI0vx8Uxb5nW/OpBsaEiw0JYCmFWy8RPh6SmVlcdvr6Kz0vz8PT09fRVTp94dDmnzADQVd3CJlTbhmGwu+5Zv02U8Xg3geYCiJe7fJuzBfKSju+thT0ADgE2bNuU7u7oeqK+tGQD4MPerq0zE2uNhKgt9IpPJrPGzG7XTp99FpVnjdCTZu662xurs6nrT9alzJAdXCLmQgflF5PR/OWVZd8Dn9b+krl/GoJswiYSBXsFyv1Qu947rFm1b6ezpXDt1WtUdIaH1M7A/qT5dMZ4xIDzAmvhU2uFWiqLAqQFSPgRQ2WQCjYAykNirs7vrTk9BG/bbCp3dXc/vNK3q90yiEoTdAYQ81H8Jgc9JW9aNnZ2dRXHbvG569Z0A7YnJKdHaEaZQ8roXhmHMEhJfIsKFANzK3z8A4EGW4qeZtswbxfQW3DvP939uMoGfA/CyBFYR0CmF2Ew2TSch5xCwKw8d8drfRUOzgcKhZCqV6vENtG2tacIwjibG6QwcA2C2w/b6iLAUzH8cZF6Uy+U6izI80/UX4EIAQIzXWODGgULh4bGcOtF1fZcw0YVgXMVAnXJfhfD1jGleXwyg/btzbBjHMOOJCfzqOoDPsYleNk2zqFNLJQ3jMB5amFUpORCuSJvmQxOa56LR2rAQXwPjS1B7iPK9vvxgbO3atVuAItq0lQWRmWjMkbasZ4sdsqHPnK9S3OLiAbuw90QhA4bqZ6VN8xqW4lAAaxX2befysrJ/nVcUCMQb3ywWm8kqi+kybq2ZUX9se3t7h4rmMm2Z10PS3hfgNxT2MQDNc4dUynPGeXFke+sI96dz5qXLli3Lq+zjqra2tQO2fQzAKUXLHfsbhjE/AM1L1wB0uiqnf6BQcO3AaXt7ewcxfxJD9eudf2BMpwWgeSTxeLyagH0UNNVva3S623cZUrncCgb/P0Xz55EBaB6JyPNhULJmxb/KZrOWF33OWNbvGHhTQVMH7jFzZmUAmhfBppAq1s26Bmz7ek9ne7CC3HIo6y0v3y8AzRMhBUemeKGqCHMcVu0vAFoVBAW7BqB5Y9Ocp89i/qMvPWf8yXEbRI0BaC5Lc3NzGKCYw1e1uWannV7zxRYTO09CyJgXgOaydHd31zgNBBi0QvWa2VhlwLadBwSE+gA0l0XL56sU+Di+pZ4f9gu7HPWfMS0AzWUZFMJ5VTz2vWpLt7PuB6B54uYEQxAs2HrgTFOfAlT9vu9Z4/BL2xSA5rLYtr3JMWeMuF/9nz9nTj0cXmxmCkBzXSzLWg/AUcQoCU1DyyQ++JiatpcCH3Nj8Rx8DMkJLgFwmVtp5FWpBsDR/VECKjs3dO7vj28ljlIw9beG/Br9aDRaWwbtKEl8IAEHgPHRCWqRrAiHu5O6sYLBrxPwCgrhJ1NrUu1FBNs7AAxnvp59BoClXruYTDjNeSO8ytOIyDCMWSHmkxn4FECHwb08tAzwMkA8TGwvGulCq5cSjxrXEcFpDayuAbuQ8HK/Mx6NH08kH3UeEOFwT0BLRKPNILoCoDPhcpLjUVRdBsZttuAFftwtSEZjJzDxI86/HvpZxsp+xaNuawldfxOg3R22MzBgF2rdBI2S0dgpLPjbYHykSKawdwH66YCdv8nLRMjJZHI65/MbFRzlHgiBd11lWa7vFCT12GcZrKJqzJK0ZR7uSjCQNIxjEnrsdSa+v4ggA4BZAP94ihZanYjGLvYqkpP5/MEADSpoakoBuC8SiVS4OgM1JHZn8M8U2Zu/Dgc06mReJDLHFqGbQDipRFYf3iHCRSnTfMWNxmfPnj11arjsJwxconis701b5tlw4d7AULb1wVcBJWt3zLZozLRnVqu6Ek9JXb9cCm0RqKQyPu4E4DN1tTV1DVOmvLC+t1fZCYl4Q3yfcEg8iaErdqpdlN3ramt2iScST65bt04qNRQh/AXqctu9mmnL3qDEokUikbopWngBwJ9ASQunpBCnZLOOE/NpCV3/GkDf8SDwWaLly04bSw7ZHclwTYMHoTAfChMuzZjmbxyDNpzg936na0RFJFsY/LmMZf1hIr/cqOuxAsRCgD/mYZ/XEug7KSt7JwB7gobiGwB/AcAUhf1a35cfjG9NiTBh0OK6fjKB7obafA1FIvTTtJX96nh8oIRhXAjGLwFM86nT7zD4uv58/sGtL3eH06SmXQjQVwDUqp8gcE06Z97wrxGdUFQSjV0M4pvhQX41/2ZS/D6dMy/akZWYP2dOfSFUdiuDTymObqOXgOcAepkYqyTsDk2IzbYU0yBkAzHvSkyHMWEfuHd6571Q+ZTkqlWrNk0YtHjUuIYI1+NDIAT605SqqWePlm16OAPSHXCecmuyDdyFadP8/b//r/FAZhiXEuPmD9mwLUpb5mnYphxNJBKpmKJpPwLoCwgONv4nZC+kTfOw/3Q7xjz1JQzjTGLc/iEc2F3raqrrOru7HweApK7vrQntCYCODyD7wMS92SY6saur6/0P8jcWyHT9IICehX/Jjv0fQsbXAIAI3/swj8N2jRnT+alcduHIhm4HYhjGLI2xLPBDAtnBp/g/acv63Gj/ut2oowUICYk/BpC5uywBhwcji0CeqJkx47Lt/cB2QWvTY18nwqEBCy6tRBBuq+zv249tcTjUpvX00vl/vXxL5Wk7uuA86tSZjEZ3YxJ/g9rV4kCGZB0RPp0yzSf/Y7yfhT910yf6rSzNM584lgzoo4EmErqxFL5UFuYCiJaD+e+AaAVjPZPsFUQFyVxJLOpBci6AXQEcAFBViUG2SMuXfX6k/cnhSnePANitBCzZIwOFwpljPdc3Imhxw/g0DS1EeiUDBPozQ95N4fBfty2EsD1pbm4Od7zXcYAQ8nSAzgJQX8SvZhODr8wM1aEaVeLxeDXZ8h4AHy9SPSQzfpTJmf+Nceyt0ghRZrnGWAXAi9J+PcS4mcPajel0+j0nDSWTySmyUPg0GFcTECuyl/OSxvK81lxurCnutXjUuIoI16K49pI3gHB+2jTHXQ/iA8GAxny5J5AR7peC5qVy5tedQgYAqVRqIGOav6mdUd/IjCsB3lwEPkyBCD+qmVHfMg7IAMDO5MwfEctmYrxWBIAxwAsR0nafCGQfsGjD1iwHd+t6b2QWF2ZymT+7OTLxeHyesOV9PpbebmUpzlVQ3VgkorFzQfxd+HEci/A6S/HlTC7j6Krfv1k0DTjTVcgI/0BI29ttyAAgk8m0FggHALjH86+f8ZvK/r6PKiqhLdO57ILyqspGgL6oqgbAWCJKIhybNs39nEL2AYuW0I1lwEQv8u7YT8mzPN6HYmAioes/H3pJrst6ZvFZlz8kikejR5AQF4NxAgCVF1XWMegeFliQzWb/rtbGbHWmDeMAZrzsjiHD36UmDstkMn7l+aK4HvstgS9y7fsnPEqa9lkV/uZYJRKJVJSHQodC4lhJaKGhJZ9xrHvyZoBeG9rHlovTlvUqJnBKd1ygJQzj52Bc4cIz1hXAzZZlrfPTm20BQu2G8RgzjnZhslydzpnz4L9o8Ug8TiHZBEk7A1wDoulEHAIwwEybCbJDsmZRmFal0+k271y94T8TumG6EG1KZnFMJpd5pgheAhKJxM4o2Mvhwt5tCBz34mJvqYoYnjb3d2VJg/DrYoEMANLp9HsgXO5G2wWmEwKcdhx1HutC2++yEN8uNoWHalvSX9R/VByAtiPQmNVfD2PCj3x0/rc/nwt8E8pvedNBLUAoQGp00DSAFCd54/er+vp+W6xKZ7PZvxNYtVWb2q7rewRIjQJaLBbbHarvIhLd/db69b1FrbkUbnwIBwZIjQKaYN5VvbvCC4pd8eqd6x4H+H2Vbfq43VUCUydzQnGb76Usa3mxKz50IpQUR8QiHiA1ysgQSPXgLIZLZZiVC9NixQ0mAqRGAY1VnwhgLC8d9e2/KW6wIYg8R406SWlVDmJaWSrKhyoqWhVbX800jKoAqxFBY6U5+pnskrk6NpyEROlan6Zp0wKsRgwGoPQL5FBoU2kNgdqTuLZtVwZYjQQaqb3eL6UcLLExUJoOnoiCdAmjBANbVDYYkrLEvmhSOtVphUJvgNUIoBFB6dTBDkvueU0ZgOkqGyxoWgDaKD5ar9o3p5XMouW8SGQ21B6FRmVv5eYAq5EsmuJtGAn1W1puSUGI+Yqtee+KDSsCizaij0aUUdkgEQ4qIfUPVjwPp1EquyKeT50SacVtHlDk9TO3lSMUt5cJkBrVoim/Jziloqys6E+b6rq+CxEUH/jk1QFSo4AWlvJN5a0yzi92xcPAWVCcvp5YvB4gNQpoq9ra1jKg+vbOsclotKlYlW5ubg7LoYzaagdT5l8KkBrNRxsyQS8qn5KFuLpYle7auPEcFzIOWa3t7WsCpLYDGrF4wYXp89x4Q3zfYlO4sbFxGhjfV90uDZ3DC2R7oBWG6mZL1W2T4Fu8Kr46VrH7Br4HYI7yhiU9FOC0A9Asy1oHwovqm+fmro0bv18syiZ0/eNM+JILem7u5/zTAU6jy/+dBpV4AIRDXJhCv5qMxl5P5bIP+KloPBKfC8iFcKPQFtE/29vbfT+1Mn/OnPpCOLy7BHYlpp0AOR1E05l5KhFtIaCTmXoZMgOprRJTROtY07gqcC2GJBaLzRSSLbiThXsA4OPSluWLH6Pr+i4a6EV3U47yUpvoPNM0TS/1ChEdA4ljQWgBMHMCzbzDw9mEwuXlT29bkc4V0IanlgUAnefSuGxhFmd4kYRvWxnOdP0kAC8ujvQQ0+WpXPYutx5gGEa5YD6FiD4PxsFQW49qCwEPMWFh2jSfUum3/1sn4w3xfUlIF3OmcgFMX0nnzF/Bgz3BpGG0MOPeCX7pTuRem3CpaZpdCgGr0ZiuAvgSeJN9vBWEH9bU19+9o2IV4wZt2Kq9ANDBLivxoE24zDTNd10BLJmcgkLhG8z4JvwrXpsjwvkp03zOSSOzZ8+eWh4q+6IgXM1AnQ96WMR0dSqXvU8paLGG2CFC8PMeKNAFxneoLHRrKpUaUOb06/pxBLoRQDEkxpPEuGHKtMrvjFZcdnsy/C7u9Gja3/5cxHgKUnwh055ZrQQ0AEjq+qM8VI/SC1kD8I0UDi9IpVIbJuq3aMBJYL4KoH2KL7inZTbxuaZprhyrPoJxHQFXwL1y1BPy4UC4PG2av1MCWqIhsTtEYTlAXl6GzQN4GownWYpna2fWrtyebxCLxXTNxqEs+CgwTkTxHyHfwoSvZEzzN2OIkB8kYP+i1YSwoG9w8NK1a9ducQTasCN9PTOu8VGdPIY2+9cBtBnMBRBVgXhnZsQJKMlrbUx4VIRCF41kvZO6vjcDjwAUKQFVxpVlnbY7HTHeBNCIQFTLuwB/Jm1Zj2/zYR/AjKegOoWYu7JCswvHjOUwwXbXYOLR+MFEcomPkdtkFgb4pgHbvnqKELuBxDMorRtkWwFaKfJlh4xUrW/MoA1/aV9nxnUBF67JOwTM8mnpQtUX82pVf9+R20u+uENL1dHV9WJdTc0eGCqW8GGWQZcs+05QfOXPB6sWyYfCu3V2d4261jaW0JkpHLoQQ7W/P6yyicAHgunzDATX6UaWT8YN44oJT51bZV4kMsfWQkvhR4U1ny2ZZDo+m8s+DQxVzSPbvrs41+v8HyuW4uCRiq2NeTGwtb19DWzt6KGI6UMjNoM/vRUyYKhqXs2MGQcBdB1cqptUwlIGIW9rGSEZ4bh3/pPRaBMTPVEiaz2Ovk5iOjeVy94/2g8MbxEtBKAHjG3jazGuzOTMXzgCbXj6iJItn5jEAcIWEE4ZS7XdeDxeLWx5MwNnF0kI2EaEpwF6mQRa2bbfF0B/XtOmCeZdiHk3ZjoUxEcC5FZ2yp5wIR9fuWbNRkegAUOnOfOh0EMenPTwWtYQ4dSUab4yro9P188m0M0Aqn3BC/QYIH+WtqwlGMM5sj1mzqzcXF5+BoG+7Y5F5v+ftqxvOwYNGLof2fV+xw8B/jLUHsDzS55FSDtzojU3Y7GYTjYvIMKhHjL2NpgvSedyE7rzMbQDRF8A+FuKP5Iu1oSxtUyTEjiShnESGHeU7qIjFwBxQ9rKfluBg68lDeNqZnwXgKs3wBj8QH8+f8F4Nre385E0CsmPQOHxKiJ8OWWaN0KlFTIMY5Ym8XMQziglxAj4O7O8KJ3LLVPZbrwhvg8JeRdc2yvm7w9PTcpOKkej0dowafcDfKSqsU1Z5l5KQdvGVzkOoF+7exFEiWxiwnW19fU/VXFUeTQ/qLei4mdgXKzWktFNGSv7BTf63LRTU1X/1N4XASgpoCYF7ZnNZt9SvqXS2d29enZkzi35fH4dAXtBcepOBdIH0C+1fNlpqbb0U+vWrZNuPWh9b2++s6vrz/XTa5eD8CkoKXbBz0Qt8zxT/YVvAMCGLRsGq2trnhDAOVBwFIuYOjq7uxa76sAbhlGuSVw8XPXX16PVBHQw+A7Ntn/udY6MSCRSN0ULbYDj07K8WQqRzGaz693uczIaO42J71PQ1MtpyzzIq0iR4tH4kUTyUgDHA/AqRToDeBWEW23gXtM0+/2APK7rJxPoT46VYVybyZnf9eyd6cbLzk/6ciFUXl7n1VFtHq6t/kwymZyOQftYJv4kgI9D/RmsQSI8B+aHUAg/klqTai+CgOMABc28V9FX+VMvQ3FB+BoznnWofWiwb/AAv9e+RDIa3VUS7T/0MugcAONPS8p4mASeY+ZXbaK/+WW5RrVoUeNJIvyXw/f+47RleZ4KLKEbbwNwluuOcYXfldhkKpdbAWAFgDsSUaMFhLnjbcQWuNLLVAQTsGiOt+pYavf70Xdm3E/kDDQmahQIxFVpAUIgzHbYTHemLfM3f0BzXtNUEM8NQHNZ1kYiM+H8ZO4K+HQkicL0lnNYuTYAzWXJh8OOT0gQ4JtbkMlkugnocKjBtAA0lyXEXOHcIsDX0pQMOM2hNj0AzWWxC8L5lCd8PhnDTqd+tgPQ3A6rQ1KFNarxOWx2+HzaFIDmspTn885BY/Itm1AikdgZDm/PEyMAzW2ZtWZNN4byiDghrckwjHJ/5n77o86/E9oQgOayLAEKw1XvHBlGIeXH/Og/Mx3t3MXj1gA0L14WodWxm0R0pg9dF8R8muO+M60MQPOGtLedWwU6S9f1XTz1zwzjNBAaFPT9nQA0L4I2cp6qlYDKENG1XvW5qampDMwqipFsEWXi9QA0D2RqX99SDCWJceowfcarqoEDvb2XA5R0/pHhxVQqNRCA5oEMp3N6WYFtDIHEA/F43NW7o8NJAX+oKJh4GiiuRLyTPSC4V0k7wHwU5H0tSu4ffFAaGxpmM+MBqKmgwzbx/QFoHkpByj8CUJLmngj/1aYbf9xj5kyleXxjsVhjQWjPQl31v+e2nhMMQPNIcrlcJwgPK2zy5M3lFUvj8XhUUYR5rJD8ClReIiL8butfA9C8jD6Zr4fCC78E7EW2vSJpGNc3NjZOaJsoOScZSRjGrWD8GSr3VBlt5ZWV92z9z6JIgtyo67HamrpTQTgJE0izKcCb66qrezq7u9fDgxpTE5WO7u5362pqDgCQVIhvGYCDZcE+v762hqtra7NdXV07zEoZi8X2qK+p+QaE/D2GbjqpNTpE31q1uvXlbT4Kf2Qo14M8B8BZKsLoYdkI8CIhxF2rs9mlcOmSrYKI7iUXx94GeDmAV8CilYD1kqQNoJyY5gDYDYTD4G7mzpxNaNz2kpDXoIlkNPYJCb7Kg4w7aQLfuCWfv1NFEhSlsOnG7Qx8ZtJG2OBTMpa16D+meW8kruufINCP4PTq1vjVfp+JflBbX3+TWzk2xivzZs+bIcODq0o55ft25PG0ZR43gj/pMmCR+FwI+Wvn9xodSysIV4wli6MXkjCMM8Bq1taKJtgBOqQm9s5kMrn//Dc3gwFKRGMXk5CLiKgYUpDWAzi3rqY6sfOsWc9s3LjR1xronV1dK+qqa3YBYbJk92YQzslks6+OAqELViweryZb/gHAcUU6Jili/uTw5WXfZLje1osAPlrymBFuSJvmNduxdsohm0e2fATFX6xsE0k6N9WWfcRn2GZpjKUoguKvDuTetGWes70oX+naSSwW25Ns+QJKoyLeNBa8KGEYF/jZCdM03yVpH4OSrd/Az5RXVV6AHSwlKfPR4g3xfQT4rwBmlNAoCQAn1lXXvtvZ3bXMr0509PR01tbXPUrMJ6CEKtwx4dH+fP7UTCbTP5aBdh6uR6NxEvLPAGpL8JMUIL4lGY2d6mcnMplMq004kIE3S8QnW1BbX3/KWNcoHftow/UGXlG4uu+X9IPlURNNo65KksnkdB4s3FbESacHmXBNxjR/gXFs9zkFTSR049HijS7HLWsR0vaeaJ0BpUGVYVxCjBsBlBfL4DCQZUFnZrPZ1ybiozgZjKsnEWQAMBt5ewGK4FRLxjR/A1v7CIDHi2Bc8iDcUNXf95GJQObIoiWj0d2YxHJ4l4/WS//jkrRp3los3RnOgft9eF97iwF6jNi+OpXLveNsSCf4ewldf34S1oHaKl02YVfTNItpyUEko7FTJPE3htPquykSwEME/n7Kspar+XYn9oWdQ6C73PYHAF4miNJSohMAhMBUBgwwPgJgTzenOALuTFlmUZ6wGKrKYp8P0JkYKpWtSlYwY6GwQ3erTjI9btBagFCbrv/TpShzLUC3aGz/oTWXy2zvByORSF25Fj6ZgUsAbnYB9QJrWlMmk2lFkUoLEFpjGM0MHCElWoiw9zjAkwxYBLwKpsWQ4tl0ezrl4oc7bmv2GQLdrrgfPQDf0JfP3ziBs2OUMIzTwfgBFG/jEOjulJU9t5Tm/EgkUlceCs2DpAZJchoxVTFQAYEeIWkzC94kiTLM3Opl9vIJgGYsV+sj0Is28alO/aGmpqayvs1bfkbgy1VGWzYhWmS+WknKuLagkrp+IEDfVPj8ewbswqm5XK7LaUMbNmywO7u7Hqurrl0HwrFQs72mCVBPZ3fX8wEqDiOZcXktRBeqc/bp9rRlnt3e3t6nUqF0LnsbEy6AsksqfEGAibegCTBOVPTyloqwdrlbSmVM8x6AfqiouUQsFtsjQMUj0BLR6IEAZimA7H0Kh09OpVIDbiqWtrL/PVTEXoEXafMnA1S8smhELUpsGdEPUqnUBg90k1zQLoOCLD5EaAlQ8WzqFAcqeJ4pQqFbvFJuaF2If+/cn8R+LS4lVQlA++Bw76sgArjR7Snzg3Yt9EvHFg2otGKx3QJcXAZtOB/Xzk5fOZWF7vFawXRb+m0AjusZkZRzA1xcBk3YtoIVd1rukW82kil9yrlVE/EAF7enTikizt81v+GXksTiNeetyIYAF5dBk0JWKXjbq30DTSh4NtO0ABeXQSMWlc7fE3X4paQtRIeCkZoa4OIyaCzYcWgvJBX8UlJKqSAjNsIBLm4HA5I2O37Zgqt8U1KI6QoCis0BLu5bNOcV2iT8c6YLcJznlSF6AlzcjjqZuxU8aXf/tJSOn01AV4CL26CFQo6P+BLjEPiUM5ek871KJk4HuLgMWjqdblfgo9TEo/HDvVawaaemKiYc5XigmFcGuLht0Ybu9zm/pEH2571WsL9iy9kEOF6e6bftVQEu7oMGBjmuZUSgU+IN8X29Uq65uTkM4qsV+Gcr29vbOwJcPAANkM+qcJdA8ideKdf1fseVUHAzSoIWB6h4BFpZobAECvL2E+HQpK5f7rZiSV3/KMDXqmlNBqB5BdrKNWs2Alii4qEM/DwejR7pllKGYcxipocA59tGDPRWbKl6MkDFs6kTAGGhogWHkCBx31zD2F+1QolEYmeN+VEVJZqHUXtwxYYVwa6Al6CFpkz5EwO9Sl4fUCcZS5LRmLKb4HMNYy8U7NcBUpZSXQixMMDEuYxrAXXjxo2DdTXVswBSZYlCIJxcV1M9p6au7rWxFMsa0R9LJqfUTZt2hQQtJKVJT/jttGlejSIuZDYpQQOAuhkz3obky6F0lZ+aifmS+traKVOrqt7q6ekZ06XipqamsuqKqrNZyj8BdAYpztXGRFd2dnX9I8BExXLDRPwgXf8tQJ91qU+DBH6KmZ4G8RtSiHRdXV3HsmXL8vPnzKkvhEJRsNidwUcQ4UQX6ym1pi1zNwB2gIlPoMVisZlC8kqUUKry8fuQfHzGsv4SIOLT1AkAXV1dvXU1tb2YXPlrt5VFGcv6foCHX8sb20jayt4C4OVJOCadCGlXBmgUCWgAbIS0MwBsnFQzJviidDrdFqBRPKAhnU63kaTPTJbwnxi/SFvWgwEWReKjbSsdPV2r6qpr+kA4usQx+0tDzrzILMI67AFoW52a7q4X62pqpwE4qEQt2WuVA30nvNrbOxAgUcSgDcP2dG1N7QwC9isxp+zVAVk4bvW6dcHlk1IAbRi2x2qra/pJwdFpjzB7Jlxefnw2m+0OUCgh0P41jdbWWACOAYr30i2DbqqdUX/+P/7xj74AAw/cE7canqvru0rgPoB2LzKdN4Fwcdo07w1efwlbtH9Fo93d7zeUly8YDIUrCLwvQKII9H1cY3liyrJeCF79JLFo20osFttDMP8aQ3c7/RCLwV/OWNai4JVPYtC2SjwaP1iQfQ2DjvfokSYzfi4FbvWyHE0gPoO2VZKGcQADnwbjdKg/AZJnwhNC0oJILvvQEqAQvOYPKWhbxTCMco354wxxlAAfwcD8CTa1HsBiAi1GWHvYvxSmgRQlaCOAN0tI2SSIGploHiRmgagK4CoAYWZsJoFuSHSAKE0SqyTTPzPtmdXBqyxu+V+5cdASDI15DgAAACV0RVh0ZGF0ZTpjcmVhdGUAMjAyNC0xMi0wOFQxMzoyMzowMiswMDowMDb8yVkAAAAldEVYdGRhdGU6bW9kaWZ5ADIwMjQtMTItMDhUMTM6MjM6MDIrMDA6MDBHoXHlAAAAAElFTkSuQmCC;labelPosition=right;align=left;fontStyle=1" parent="GLOqXwlAp-iV12XzMzbL-1" vertex="1">
          <mxGeometry x="546" y="192" width="36.96" height="60" as="geometry" />
        </mxCell>
        <mxCell id="VDfyyAjog4UnEN4wXaWk-1" style="edgeStyle=orthogonalEdgeStyle;rounded=0;orthogonalLoop=1;jettySize=auto;html=1;exitX=1;exitY=0.5;exitDx=0;exitDy=0;entryX=0;entryY=0.5;entryDx=0;entryDy=0;curved=1;" parent="GLOqXwlAp-iV12XzMzbL-1" source="GLOqXwlAp-iV12XzMzbL-32" target="GLOqXwlAp-iV12XzMzbL-37" edge="1">
          <mxGeometry relative="1" as="geometry" />
        </mxCell>
        <mxCell id="ve_2RrpBH2aQXk2jnyeJ-1" style="edgeStyle=orthogonalEdgeStyle;rounded=0;orthogonalLoop=1;jettySize=auto;html=1;exitX=0;exitY=0.5;exitDx=0;exitDy=0;" parent="GLOqXwlAp-iV12XzMzbL-1" source="ve_2RrpBH2aQXk2jnyeJ-0" edge="1">
          <mxGeometry relative="1" as="geometry">
            <mxPoint x="450" y="430" as="targetPoint" />
          </mxGeometry>
        </mxCell>
        <mxCell id="ve_2RrpBH2aQXk2jnyeJ-0" value="&lt;h1 style=&quot;margin-top: 0px;&quot;&gt;&lt;font style=&quot;font-size: 14px;&quot;&gt;NOTES&lt;/font&gt;&lt;/h1&gt;&lt;p&gt;Witboost sends only the current authorized users. The tech adapter must first remove all authorized users for a specific topic and then assign the given users.&lt;/p&gt;" style="text;html=1;whiteSpace=wrap;overflow=hidden;rounded=0;fillColor=none;strokeColor=default;spacing=3;" parent="GLOqXwlAp-iV12XzMzbL-1" vertex="1">
          <mxGeometry x="540" y="660" width="500" height="120" as="geometry" />
        </mxCell>
      </root>
    </mxGraphModel>
  </diagram>
</mxfile>
